999
dxfrw 0.6.3
  0
SECTION
  2
HEADER
  9
$ACADVER
  1
AC1021
  9
$DWGCODEPAGE
  3
ANSI_1252
  9
$INSBASE
 10
0
 20
0
 30
0
  9
$EXTMIN
 10
0
 20
0
 30
0
  9
$EXTMAX
 10
420
 20
297
 30
0
  9
$LIMMIN
 10
0
 20
0
  9
$LIMMAX
 10
420
 20
297
  9
$ORTHOMODE
 70
    0
  9
$REGENMODE
 70
    1
  9
$FILLMODE
 70
    1
  9
$QTEXTMODE
 70
    0
  9
$MIRRTEXT
 70
    0
  9
$LTSCALE
 40
1
  9
$ATTMODE
 70
    0
  9
$TEXTSIZE
 40
2.5
  9
$TRACEWID
 40
15.68
  9
$TEXTSTYLE
  7
STANDARD
  9
$CLAYER
  8
flame
  9
$CELTYPE
  6
BYLAYER
  9
$CECOLOR
 62
  256
  9
$CELTSCALE
 40
1
  9
$DISPSILH
 70
    0
  9
$DIMSCALE
 40
1
  9
$DIMASZ
 40
2.5
  9
$DIMEXO
 40
0.625
  9
$DIMDLI
 40
3.75
  9
$DIMRND
 40
0
  9
$DIMDLE
 40
0
  9
$DIMEXE
 40
1.25
  9
$DIMTP
 40
0
  9
$DIMTM
 40
0
  9
$DIMTXT
 40
2.5
  9
$DIMCEN
 40
2.5
  9
$DIMTSZ
 40
0
  9
$DIMTOL
 70
    0
  9
$DIMLIM
 70
    0
  9
$DIMTIH
 70
    0
  9
$DIMTOH
 70
    0
  9
$DIMSE1
 70
    0
  9
$DIMSE2
 70
    0
  9
$DIMTAD
 70
    1
  9
$DIMZIN
 70
    8
  9
$DIMBLK
  1

  9
$DIMASO
 70
    1
  9
$DIMSHO
 70
    1
  9
$DIMPOST
  1

  9
$DIMAPOST
  1

  9
$DIMALT
 70
    0
  9
$DIMALTD
 70
    3
  9
$DIMALTF
 40
0.03937
  9
$DIMLFAC
 40
1
  9
$DIMTOFL
 70
    1
  9
$DIMTVP
 40
0
  9
$DIMTIX
 70
    0
  9
$DIMSOXD
 70
    0
  9
$DIMSAH
 70
    0
  9
$DIMBLK1
  1

  9
$DIMBLK2
  1

  9
$DIMSTYLE
  2
STANDARD
  9
$DIMCLRD
 70
    0
  9
$DIMCLRE
 70
    0
  9
$DIMCLRT
 70
    0
  9
$DIMTFAC
 40
1
  9
$DIMGAP
 40
0.625
  9
$DIMJUST
 70
    0
  9
$DIMSD1
 70
    0
  9
$DIMSD2
 70
    0
  9
$DIMTOLJ
 70
    0
  9
$DIMTZIN
 70
    8
  9
$DIMALTZ
 70
    0
  9
$DIMALTTZ
 70
    0
  9
$DIMUPT
 70
    0
  9
$DIMDEC
 70
    2
  9
$DIMTDEC
 70
    2
  9
$DIMALTU
 70
    2
  9
$DIMALTTD
 70
    3
  9
$DIMTXSTY
  7
STANDARD
  9
$DIMAUNIT
 70
    0
  9
$DIMADEC
 70
    0
  9
$DIMALTRND
 40
0
  9
$DIMAZIN
 70
    0
  9
$DIMDSEP
 70
   44
  9
$DIMATFIT
 70
    3
  9
$DIMFRAC
 70
    0
  9
$DIMLDRBLK
  1
STANDARD
  9
$DIMLUNIT
 70
    2
  9
$DIMLWD
 70
   -2
  9
$DIMLWE
 70
   -2
  9
$DIMTMOVE
 70
    0
  9
$DIMFXL
 40
1
  9
$DIMFXLON
 70
    0
  9
$DIMJOGANG
 40
0.7854
  9
$DIMTFILL
 70
    0
  9
$DIMTFILLCLR
 70
    0
  9
$DIMARCSYM
 70
    0
  9
$DIMLTYPE
  6

  9
$DIMLTEX1
  6

  9
$DIMLTEX2
  6

  9
$LUNITS
 70
    2
  9
$LUPREC
 70
    4
  9
$SKETCHINC
 40
1
  9
$FILLETRAD
 40
0
  9
$AUNITS
 70
    0
  9
$AUPREC
 70
    2
  9
$MENU
  1
.
  9
$ELEVATION
 40
0
  9
$PELEVATION
 40
0
  9
$THICKNESS
 40
0
  9
$LIMCHECK
 70
    0
  9
$CHAMFERA
 40
0
  9
$CHAMFERB
 40
0
  9
$CHAMFERC
 40
0
  9
$CHAMFERD
 40
0
  9
$SKPOLY
 70
    0
  9
$USRTIMER
 70
    1
  9
$ANGBASE
 50
0
  9
$ANGDIR
 70
    0
  9
$PDMODE
 70
   34
  9
$PDSIZE
 40
0
  9
$PLINEWID
 40
0
  9
$SPLFRAME
 70
    0
  9
$SPLINETYPE
 70
    2
  9
$SPLINESEGS
 70
    8
  9
$HANDSEED
  5
20000
  9
$SURFTAB1
 70
    6
  9
$SURFTAB2
 70
    6
  9
$SURFTYPE
 70
    6
  9
$SURFU
 70
    6
  9
$SURFV
 70
    6
  9
$UCSBASE
  2

  9
$UCSNAME
  2

  9
$UCSORG
 10
0
 20
0
 30
0
  9
$UCSXDIR
 10
1
 20
0
 30
0
  9
$UCSYDIR
 10
0
 20
1
 30
0
  9
$UCSORTHOREF
  2

  9
$UCSORTHOVIEW
 70
    0
  9
$UCSORGTOP
 10
0
 20
0
 30
0
  9
$UCSORGBOTTOM
 10
0
 20
0
 30
0
  9
$UCSORGLEFT
 10
0
 20
0
 30
0
  9
$UCSORGRIGHT
 10
0
 20
0
 30
0
  9
$UCSORGFRONT
 10
0
 20
0
 30
0
  9
$UCSORGBACK
 10
0
 20
0
 30
0
  9
$PUCSBASE
  2

  9
$PUCSNAME
  2

  9
$PUCSORG
 10
0
 20
0
 30
0
  9
$PUCSXDIR
 10
1
 20
0
 30
0
  9
$PUCSYDIR
 10
0
 20
1
 30
0
  9
$PUCSORTHOREF
  2

  9
$PUCSORTHOVIEW
 70
    0
  9
$PUCSORGTOP
 10
0
 20
0
 30
0
  9
$PUCSORGBOTTOM
 10
0
 20
0
 30
0
  9
$PUCSORGLEFT
 10
0
 20
0
 30
0
  9
$PUCSORGRIGHT
 10
0
 20
0
 30
0
  9
$PUCSORGFRONT
 10
0
 20
0
 30
0
  9
$PUCSORGBACK
 10
0
 20
0
 30
0
  9
$USERI1
 70
    0
  9
$USERI2
 70
    0
  9
$USERI3
 70
    0
  9
$USERI4
 70
    0
  9
$USERI5
 70
    0
  9
$USERR1
 40
0
  9
$USERR2
 40
0
  9
$USERR3
 40
0
  9
$USERR4
 40
0
  9
$USERR5
 40
0
  9
$WORLDVIEW
 70
    1
  9
$SHADEDGE
 70
    3
  9
$SHADEDIF
 70
   70
  9
$TILEMODE
 70
    1
  9
$MAXACTVP
 70
   64
  9
$PINSBASE
 10
0
 20
0
 30
0
  9
$PLIMCHECK
 70
    0
  9
$PEXTMIN
 10
0
 20
0
 30
0
  9
$PEXTMAX
 10
0
 20
0
 30
0
  9
$GRIDMODE
 70
    1
  9
$SNAPSTYLE
 70
    0
  9
$PLIMMIN
 10
0
 20
0
  9
$PLIMMAX
 10
420
 20
297
  9
$UNITMODE
 70
    0
  9
$VISRETAIN
 70
    1
  9
$PLINEGEN
 70
    0
  9
$PSLTSCALE
 70
    1
  9
$TREEDEPTH
 70
 3020
  9
$CMLSTYLE
  2
Standard
  9
$CMLJUST
 70
    0
  9
$CMLSCALE
 40
20
  9
$PROXYGRAPHICS
 70
    1
  9
$MEASUREMENT
 70
    1
  9
$CELWEIGHT
370
   -1
  9
$ENDCAPS
280
    0
  9
$JOINSTYLE
280
    0
  9
$LWDISPLAY
290
    0
  9
$INSUNITS
 70
    4
  9
$HYPERLINKBASE
  1

  9
$STYLESHEET
  1

  9
$XEDIT
290
    1
  9
$CEPSNTYPE
380
    0
  9
$PSTYLEMODE
290
    1
  9
$EXTNAMES
290
    1
  9
$PSVPSCALE
 40
1
  9
$OLESTARTUP
290
    0
  9
$SORTENTS
280
  127
  9
$INDEXCTL
280
    0
  9
$HIDETEXT
280
    1
  9
$XCLIPFRAME
290
    0
  9
$HALOGAP
280
    0
  9
$OBSCOLOR
 70
  257
  9
$OBSLTYPE
280
    0
  9
$INTERSECTIONDISPLAY
280
    0
  9
$INTERSECTIONCOLOR
 70
  257
  9
$DIMASSOC
280
    1
  9
$PROJECTNAME
  1

  9
$CAMERADISPLAY
290
    0
  9
$LENSLENGTH
 40
50
  9
$CAMERAHEIGHT
 40
0
  9
$STEPSPERSEC
 40
2
  9
$STEPSIZE
 40
50
  9
$3DDWFPREC
 40
2
  9
$PSOLWIDTH
 40
5
  9
$PSOLHEIGHT
 40
80
  9
$LOFTANG1
 40
1.570796326794897
  9
$LOFTANG2
 40
1.570796326794897
  9
$LOFTMAG1
 40
0
  9
$LOFTMAG2
 40
0
  9
$LOFTPARAM
 70
    7
  9
$LOFTNORMALS
280
    1
  9
$LATITUDE
 40
1
  9
$LONGITUDE
 40
1
  9
$NORTHDIRECTION
 40
0
  9
$TIMEZONE
 70
-8000
  9
$LIGHTGLYPHDISPLAY
280
    1
  9
$TILEMODELIGHTSYNCH
280
    1
  9
$SOLIDHIST
280
    1
  9
$SHOWHIST
280
    1
  9
$DWFFRAME
280
    2
  9
$DGNFRAME
280
    0
  9
$REALWORLDSCALE
290
    1
  9
$INTERFERECOLOR
 62
    1
  9
$CSHADOW
280
    0
  9
$SHADOWPLANELOCATION
 40
0
  0
ENDSEC
  0
SECTION
  2
CLASSES
  0
ENDSEC
  0
SECTION
  2
TABLES
  0
TABLE
  2
VPORT
  5
8
330
0
100
AcDbSymbolTable
 70
    1
  0
VPORT
  5
31
330
2
100
AcDbSymbolTableRecord
100
AcDbViewportTableRecord
  2
*ACTIVE
 70
    0
 10
0
 20
0
 11
1
 21
1
 12
234.3058236166937
 22
75.4784729161706
 13
0
 23
0
 14
10
 24
10
 15
10
 25
10
 16
0
 26
0
 36
1
 17
0
 27
0
 37
0
 40
198.4374211026844
 41
1.695708712613784
 42
50
 43
0
 44
0
 50
0
 51
0
 71
    0
 72
  100
 73
    1
 74
    3
 75
    0
 76
    1
 77
    0
 78
    0
281
    0
 65
    1
110
0
120
0
130
0
111
1
121
0
131
0
112
0
122
1
132
0
 79
    0
146
0
348
10020
 60
    7
 61
    5
292
1
282
    1
141
0
142
0
 63
  250
421
3358443
  0
ENDTAB
  0
TABLE
  2
LTYPE
  5
5
330
0
100
AcDbSymbolTable
 70
    4
  0
LTYPE
  5
14
330
5
100
AcDbSymbolTableRecord
100
AcDbLinetypeTableRecord
  2
ByBlock
 70
    0
  3

 72
   65
 73
    0
 40
0
  0
LTYPE
  5
15
330
5
100
AcDbSymbolTableRecord
100
AcDbLinetypeTableRecord
  2
ByLayer
 70
    0
  3

 72
   65
 73
    0
 40
0
  0
LTYPE
  5
16
330
5
100
AcDbSymbolTableRecord
100
AcDbLinetypeTableRecord
  2
Continuous
 70
    0
  3
Solid line
 72
   65
 73
    0
 40
0
  0
LTYPE
  5
32
330
5
100
AcDbSymbolTableRecord
100
AcDbLinetypeTableRecord
  2
DOT
 70
    0
  3
Dot . . . . . . . . . . . . . . . . . . . . . .
 72
   65
 73
    2
 40
6.35
 49
0
 74
    0
 49
-6.35
 74
    0
  0
LTYPE
  5
33
330
5
100
AcDbSymbolTableRecord
100
AcDbLinetypeTableRecord
  2
DOTTINY
 70
    0
  3
Dot (.15x) .....................................
 72
   65
 73
    2
 40
0.9525
 49
0
 74
    0
 49
-0.9525
 74
    0
  0
LTYPE
  5
34
330
5
100
AcDbSymbolTableRecord
100
AcDbLinetypeTableRecord
  2
DOT2
 70
    0
  3
Dot (.5x) .....................................
 72
   65
 73
    2
 40
3.175
 49
0
 74
    0
 49
-3.175
 74
    0
  0
LTYPE
  5
35
330
5
100
AcDbSymbolTableRecord
100
AcDbLinetypeTableRecord
  2
DOTX2
 70
    0
  3
Dot (2x) .  .  .  .  .  .  .  .  .  .  .  .  .
 72
   65
 73
    2
 40
12.7
 49
0
 74
    0
 49
-12.7
 74
    0
  0
LTYPE
  5
36
330
5
100
AcDbSymbolTableRecord
100
AcDbLinetypeTableRecord
  2
DASHED
 70
    0
  3
Dashed _ _ _ _ _ _ _ _ _ _ _ _ _ _ _ _ _
 72
   65
 73
    2
 40
19.05
 49
12.7
 74
    0
 49
-6.35
 74
    0
  0
LTYPE
  5
37
330
5
100
AcDbSymbolTableRecord
100
AcDbLinetypeTableRecord
  2
DASHEDTINY
 70
    0
  3
Dashed (.15x) _ _ _ _ _ _ _ _ _ _ _ _ _ _ _ _ _
 72
   65
 73
    2
 40
2.8575
 49
1.905
 74
    0
 49
-0.9525
 74
    0
  0
LTYPE
  5
38
330
5
100
AcDbSymbolTableRecord
100
AcDbLinetypeTableRecord
  2
DASHED2
 70
    0
  3
Dashed (.5x) _ _ _ _ _ _ _ _ _ _ _ _ _ _ _ _ _
 72
   65
 73
    2
 40
9.524999999999999
 49
6.35
 74
    0
 49
-3.175
 74
    0
  0
LTYPE
  5
39
330
5
100
AcDbSymbolTableRecord
100
AcDbLinetypeTableRecord
  2
DASHEDX2
 70
    0
  3
Dashed (2x) ____  ____  ____  ____  ____  ___
 72
   65
 73
    2
 40
38.09999999999999
 49
25.4
 74
    0
 49
-12.7
 74
    0
  0
LTYPE
  5
3A
330
5
100
AcDbSymbolTableRecord
100
AcDbLinetypeTableRecord
  2
DASHDOT
 70
    0
  3
Dash dot __ . __ . __ . __ . __ . __ . __ . __
 72
   65
 73
    4
 40
25.4
 49
12.7
 74
    0
 49
-6.35
 74
    0
 49
0
 74
    0
 49
-6.35
 74
    0
  0
LTYPE
  5
3B
330
5
100
AcDbSymbolTableRecord
100
AcDbLinetypeTableRecord
  2
DASHDOTTINY
 70
    0
  3
Dash dot (.15x) _._._._._._._._._._._._._._._.
 72
   65
 73
    4
 40
3.81
 49
1.905
 74
    0
 49
-0.9525
 74
    0
 49
0
 74
    0
 49
-0.9525
 74
    0
  0
LTYPE
  5
3C
330
5
100
AcDbSymbolTableRecord
100
AcDbLinetypeTableRecord
  2
DASHDOT2
 70
    0
  3
Dash dot (.5x) _._._._._._._._._._._._._._._.
 72
   65
 73
    4
 40
12.7
 49
6.35
 74
    0
 49
-3.175
 74
    0
 49
0
 74
    0
 49
-3.175
 74
    0
  0
LTYPE
  5
3D
330
5
100
AcDbSymbolTableRecord
100
AcDbLinetypeTableRecord
  2
DASHDOTX2
 70
    0
  3
Dash dot (2x) ____  .  ____  .  ____  .  ___
 72
   65
 73
    4
 40
50.8
 49
25.4
 74
    0
 49
-12.7
 74
    0
 49
0
 74
    0
 49
-12.7
 74
    0
  0
LTYPE
  5
3E
330
5
100
AcDbSymbolTableRecord
100
AcDbLinetypeTableRecord
  2
DIVIDE
 70
    0
  3
Divide ____ . . ____ . . ____ . . ____ . . ____
 72
   65
 73
    6
 40
31.75
 49
12.7
 74
    0
 49
-6.35
 74
    0
 49
0
 74
    0
 49
-6.35
 74
    0
 49
0
 74
    0
 49
-6.35
 74
    0
  0
LTYPE
  5
3F
330
5
100
AcDbSymbolTableRecord
100
AcDbLinetypeTableRecord
  2
DIVIDETINY
 70
    0
  3
Divide (.15x) __..__..__..__..__..__..__..__.._
 72
   65
 73
    6
 40
4.7625
 49
1.905
 74
    0
 49
-0.9525
 74
    0
 49
0
 74
    0
 49
-0.9525
 74
    0
 49
0
 74
    0
 49
-0.9525
 74
    0
  0
LTYPE
  5
40
330
5
100
AcDbSymbolTableRecord
100
AcDbLinetypeTableRecord
  2
DIVIDE2
 70
    0
  3
Divide (.5x) __..__..__..__..__..__..__..__.._
 72
   65
 73
    6
 40
15.875
 49
6.35
 74
    0
 49
-3.175
 74
    0
 49
0
 74
    0
 49
-3.175
 74
    0
 49
0
 74
    0
 49
-3.175
 74
    0
  0
LTYPE
  5
41
330
5
100
AcDbSymbolTableRecord
100
AcDbLinetypeTableRecord
  2
DIVIDEX2
 70
    0
  3
Divide (2x) ________  .  .  ________  .  .  _
 72
   65
 73
    6
 40
63.5
 49
25.4
 74
    0
 49
-12.7
 74
    0
 49
0
 74
    0
 49
-12.7
 74
    0
 49
0
 74
    0
 49
-12.7
 74
    0
  0
LTYPE
  5
42
330
5
100
AcDbSymbolTableRecord
100
AcDbLinetypeTableRecord
  2
BORDER
 70
    0
  3
Border __ __ . __ __ . __ __ . __ __ . __ __ .
 72
   65
 73
    6
 40
44.45
 49
12.7
 74
    0
 49
-6.35
 74
    0
 49
12.7
 74
    0
 49
-6.35
 74
    0
 49
0
 74
    0
 49
-6.35
 74
    0
  0
LTYPE
  5
43
330
5
100
AcDbSymbolTableRecord
100
AcDbLinetypeTableRecord
  2
BORDERTINY
 70
    0
  3
Border (.15x) __.__.__.__.__.__.__.__.__.__.__.
 72
   65
 73
    6
 40
6.6675
 49
1.905
 74
    0
 49
-0.9525
 74
    0
 49
1.905
 74
    0
 49
-0.9525
 74
    0
 49
0
 74
    0
 49
-0.9525
 74
    0
  0
LTYPE
  5
44
330
5
100
AcDbSymbolTableRecord
100
AcDbLinetypeTableRecord
  2
BORDER2
 70
    0
  3
Border (.5x) __.__.__.__.__.__.__.__.__.__.__.
 72
   65
 73
    6
 40
22.225
 49
6.35
 74
    0
 49
-3.175
 74
    0
 49
6.35
 74
    0
 49
-3.175
 74
    0
 49
0
 74
    0
 49
-3.175
 74
    0
  0
LTYPE
  5
45
330
5
100
AcDbSymbolTableRecord
100
AcDbLinetypeTableRecord
  2
BORDERX2
 70
    0
  3
Border (2x) ____  ____  .  ____  ____  .  ___
 72
   65
 73
    6
 40
88.89999999999999
 49
25.4
 74
    0
 49
-12.7
 74
    0
 49
25.4
 74
    0
 49
-12.7
 74
    0
 49
0
 74
    0
 49
-12.7
 74
    0
  0
LTYPE
  5
46
330
5
100
AcDbSymbolTableRecord
100
AcDbLinetypeTableRecord
  2
CENTER
 70
    0
  3
Center ____ _ ____ _ ____ _ ____ _ ____ _ ____
 72
   65
 73
    4
 40
50.8
 49
31.75
 74
    0
 49
-6.35
 74
    0
 49
6.35
 74
    0
 49
-6.35
 74
    0
  0
LTYPE
  5
47
330
5
100
AcDbSymbolTableRecord
100
AcDbLinetypeTableRecord
  2
CENTERTINY
 70
    0
  3
Center (.15x) ___ _ ___ _ ___ _ ___ _ ___ _ ___
 72
   65
 73
    4
 40
7.62
 49
4.7625
 74
    0
 49
-0.9525
 74
    0
 49
0.9525
 74
    0
 49
-0.9525
 74
    0
  0
LTYPE
  5
48
330
5
100
AcDbSymbolTableRecord
100
AcDbLinetypeTableRecord
  2
CENTER2
 70
    0
  3
Center (.5x) ___ _ ___ _ ___ _ ___ _ ___ _ ___
 72
   65
 73
    4
 40
28.575
 49
19.05
 74
    0
 49
-3.175
 74
    0
 49
3.175
 74
    0
 49
-3.175
 74
    0
  0
LTYPE
  5
49
330
5
100
AcDbSymbolTableRecord
100
AcDbLinetypeTableRecord
  2
CENTERX2
 70
    0
  3
Center (2x) ________  __  ________  __  _____
 72
   65
 73
    4
 40
101.6
 49
63.5
 74
    0
 49
-12.7
 74
    0
 49
12.7
 74
    0
 49
-12.7
 74
    0
  0
ENDTAB
  0
TABLE
  2
LAYER
  5
2
330
0
100
AcDbSymbolTable
 70
    1
  0
LAYER
  5
10
330
2
100
AcDbSymbolTableRecord
100
AcDbLayerTableRecord
  2
0
 70
    1
 62
    7
  6
CONTINUOUS
370
    0
390
F
  0
LAYER
  5
4A
330
2
100
AcDbSymbolTableRecord
100
AcDbLayerTableRecord
  2
Plate
 70
    0
 62
   96
420
32768
  6
CONTINUOUS
370
    0
390
F
  0
LAYER
  5
4B
330
2
100
AcDbSymbolTableRecord
100
AcDbLayerTableRecord
  2
flame
 70
    0
 62
    7
  6
CONTINUOUS
370
    0
390
F
  0
ENDTAB
  0
TABLE
  2
STYLE
  5
3
330
0
100
AcDbSymbolTable
 70
    3
  0
STYLE
  5
4C
330
2
100
AcDbSymbolTableRecord
100
AcDbTextStyleTableRecord
  2
Standard
 70
    0
 40
0
 41
1
 50
0
 71
    0
 42
1
  3
txt
  4

  0
ENDTAB
  0
TABLE
  2
VIEW
  5
6
330
0
100
AcDbSymbolTable
 70
    0
  0
ENDTAB
  0
TABLE
  2
UCS
  5
7
330
0
100
AcDbSymbolTable
 70
    0
  0
ENDTAB
  0
TABLE
  2
APPID
  5
9
330
0
100
AcDbSymbolTable
 70
    1
  0
APPID
  5
12
330
9
100
AcDbSymbolTableRecord
100
AcDbRegAppTableRecord
  2
ACAD
 70
    0
  0
APPID
  5
4D
330
9
100
AcDbSymbolTableRecord
100
AcDbRegAppTableRecord
  2
LibreCad
 70
    0
  0
ENDTAB
  0
TABLE
  2
DIMSTYLE
  5
A
330
0
100
AcDbSymbolTable
 70
    1
100
AcDbDimStyleTable
 71
    1
  0
DIMSTYLE
105
4E
330
A
100
AcDbSymbolTableRecord
100
AcDbDimStyleTableRecord
  2
Standard
 70
    0
 40
1
 41
2.5
 42
0.625
 43
0.38
 44
1.25
 45
0
 46
0
 47
0
 48
0
 49
1
140
2.5
141
0.09
142
0
143
25.4
144
1
145
0
146
1
147
0.625
148
0
 71
    0
 72
    0
 73
    0
 74
    1
 75
    0
 76
    0
 77
    0
 78
    8
 79
    0
170
    0
171
    2
172
    0
173
    0
174
    0
175
    0
176
    0
177
    0
178
    0
179
    0
271
    2
272
    4
273
    2
274
    2
275
    0
276
    0
277
    2
278
   44
279
    0
280
    0
281
    0
282
    0
283
    1
284
    0
285
    0
286
    0
288
    0
289
    3
340
STANDARD
341

371
   -2
372
   -2
  0
ENDTAB
  0
TABLE
  2
BLOCK_RECORD
  5
1
330
0
100
AcDbSymbolTable
 70
    2
  0
BLOCK_RECORD
  5
1F
330
1
100
AcDbSymbolTableRecord
100
AcDbBlockTableRecord
  2
*Model_Space
 70
    0
280
    1
281
    0
  0
BLOCK_RECORD
  5
1E
330
1
100
AcDbSymbolTableRecord
100
AcDbBlockTableRecord
  2
*Paper_Space
 70
    0
280
    1
281
    0
  0
BLOCK_RECORD
  5
4F
330
1
100
AcDbSymbolTableRecord
100
AcDbBlockTableRecord
  2
suit80_7u_plate_references
 70
    0
280
    1
281
    0
  0
ENDTAB
  0
ENDSEC
  0
SECTION
  2
BLOCKS
  0
BLOCK
  5
20
330
1F
100
AcDbEntity
  8
0
100
AcDbBlockBegin
  2
*Model_Space
 70
    0
 10
0
 20
0
 30
0
  3
*Model_Space
  1

  0
ENDBLK
  5
21
330
1F
100
AcDbEntity
  8
0
100
AcDbBlockEnd
  0
BLOCK
  5
1C
330
1B
100
AcDbEntity
  8
0
100
AcDbBlockBegin
  2
*Paper_Space
 70
    0
 10
0
 20
0
 30
0
  3
*Paper_Space
  1

  0
ENDBLK
  5
1D
330
1F
100
AcDbEntity
  8
0
100
AcDbBlockEnd
  0
BLOCK
  5
50
330
4F
100
AcDbEntity
  8
0
100
AcDbBlockBegin
  2
suit80_7u_plate_references
 70
    0
 10
0
 20
0
  3
suit80_7u_plate_references
  1

  0
LINE
  5
52
100
AcDbEntity
  8
0
  6
ByLayer
 62
    0
370
   -1
100
AcDbLine
 10
0.09508460000000001
 20
120.908
 11
348.713
 21
120.908
  0
LINE
  5
53
100
AcDbEntity
  8
0
  6
ByLayer
 62
    0
370
   -1
100
AcDbLine
 10
348.713
 20
120.908
 11
348.713
 21
0.409279
  0
LINE
  5
54
100
AcDbEntity
  8
0
  6
ByLayer
 62
    0
370
   -1
100
AcDbLine
 10
348.713
 20
0.409279
 11
0.09508460000000001
 21
0.409279
  0
LINE
  5
55
100
AcDbEntity
  8
0
  6
ByLayer
 62
    0
370
   -1
100
AcDbLine
 10
0.09508460000000001
 20
0.409279
 11
0.09508460000000001
 21
120.908
  0
LINE
  5
56
100
AcDbEntity
  8
0
  6
ByLayer
 62
    0
370
   -1
100
AcDbLine
 10
136.446
 20
17.6527
 11
136.446
 21
12.9536
  0
LINE
  5
57
100
AcDbEntity
  8
0
  6
ByLayer
 62
    0
370
   -1
100
AcDbLine
 10
136.446
 20
12.9536
 11
89.67189999999999
 21
12.9536
  0
LINE
  5
58
100
AcDbEntity
  8
0
  6
ByLayer
 62
    0
370
   -1
100
AcDbLine
 10
89.67189999999999
 20
12.9536
 11
89.67189999999999
 21
16.1837
  0
LINE
  5
59
100
AcDbEntity
  8
0
  6
ByLayer
 62
    0
370
   -1
100
AcDbLine
 10
89.67189999999999
 20
16.1837
 11
82.9222
 21
16.1837
  0
LINE
  5
5A
100
AcDbEntity
  8
0
  6
ByLayer
 62
    0
370
   -1
100
AcDbLine
 10
82.9222
 20
16.1837
 11
82.9222
 21
12.9536
  0
LINE
  5
5B
100
AcDbEntity
  8
0
  6
ByLayer
 62
    0
370
   -1
100
AcDbLine
 10
82.9222
 20
12.9536
 11
82.0967
 21
12.9536
  0
LINE
  5
5C
100
AcDbEntity
  8
0
  6
ByLayer
 62
    0
370
   -1
100
AcDbLine
 10
82.0967
 20
12.9536
 11
82.0967
 21
10.1534
  0
LINE
  5
5D
100
AcDbEntity
  8
0
  6
ByLayer
 62
    0
370
   -1
100
AcDbLine
 10
82.0967
 20
10.1534
 11
82.9222
 21
10.1534
  0
LINE
  5
5E
100
AcDbEntity
  8
0
  6
ByLayer
 62
    0
370
   -1
100
AcDbLine
 10
82.9222
 20
10.1534
 11
82.9222
 21
3.88331
  0
LINE
  5
5F
100
AcDbEntity
  8
0
  6
ByLayer
 62
    0
370
   -1
100
AcDbLine
 10
82.9222
 20
3.88331
 11
84.6459
 21
3.88331
  0
LINE
  5
60
100
AcDbEntity
  8
0
  6
ByLayer
 62
    0
370
   -1
100
AcDbLine
 10
84.6459
 20
3.88331
 11
84.6459
 21
2.68304
  0
LINE
  5
61
100
AcDbEntity
  8
0
  6
ByLayer
 62
    0
370
   -1
100
AcDbLine
 10
84.6459
 20
2.68304
 11
87.9464
 21
2.68304
  0
LINE
  5
62
100
AcDbEntity
  8
0
  6
ByLayer
 62
    0
370
   -1
100
AcDbLine
 10
87.9464
 20
2.68304
 11
87.9464
 21
3.88331
  0
LINE
  5
63
100
AcDbEntity
  8
0
  6
ByLayer
 62
    0
370
   -1
100
AcDbLine
 10
87.9464
 20
3.88331
 11
89.67189999999999
 21
3.88331
  0
LINE
  5
64
100
AcDbEntity
  8
0
  6
ByLayer
 62
    0
370
   -1
100
AcDbLine
 10
89.67189999999999
 20
3.88331
 11
89.67189999999999
 21
8.353669999999999
  0
LINE
  5
65
100
AcDbEntity
  8
0
  6
ByLayer
 62
    0
370
   -1
100
AcDbLine
 10
89.67189999999999
 20
8.353669999999999
 11
136.446
 21
8.353669999999999
  0
LINE
  5
66
100
AcDbEntity
  8
0
  6
ByLayer
 62
    0
370
   -1
100
AcDbLine
 10
136.446
 20
8.353669999999999
 11
136.446
 21
3.65319
  0
LINE
  5
67
100
AcDbEntity
  8
0
  6
ByLayer
 62
    0
370
   -1
100
AcDbLine
 10
136.446
 20
3.65319
 11
150.446
 21
3.65319
  0
LINE
  5
68
100
AcDbEntity
  8
0
  6
ByLayer
 62
    0
370
   -1
100
AcDbLine
 10
150.446
 20
3.65319
 11
150.446
 21
8.353669999999999
  0
LINE
  5
69
100
AcDbEntity
  8
0
  6
ByLayer
 62
    0
370
   -1
100
AcDbLine
 10
150.446
 20
8.353669999999999
 11
197.222
 21
8.353669999999999
  0
LINE
  5
6A
100
AcDbEntity
  8
0
  6
ByLayer
 62
    0
370
   -1
100
AcDbLine
 10
197.222
 20
8.353669999999999
 11
197.222
 21
3.88331
  0
LINE
  5
6B
100
AcDbEntity
  8
0
  6
ByLayer
 62
    0
370
   -1
100
AcDbLine
 10
197.222
 20
3.88331
 11
198.946
 21
3.88331
  0
LINE
  5
6C
100
AcDbEntity
  8
0
  6
ByLayer
 62
    0
370
   -1
100
AcDbLine
 10
198.946
 20
3.88331
 11
198.946
 21
2.68304
  0
LINE
  5
6D
100
AcDbEntity
  8
0
  6
ByLayer
 62
    0
370
   -1
100
AcDbLine
 10
198.946
 20
2.68304
 11
202.246
 21
2.68304
  0
LINE
  5
6E
100
AcDbEntity
  8
0
  6
ByLayer
 62
    0
370
   -1
100
AcDbLine
 10
202.246
 20
2.68304
 11
202.246
 21
3.88331
  0
LINE
  5
6F
100
AcDbEntity
  8
0
  6
ByLayer
 62
    0
370
   -1
100
AcDbLine
 10
202.246
 20
3.88331
 11
203.972
 21
3.88331
  0
LINE
  5
70
100
AcDbEntity
  8
0
  6
ByLayer
 62
    0
370
   -1
100
AcDbLine
 10
203.972
 20
3.88331
 11
203.972
 21
10.1534
  0
LINE
  5
71
100
AcDbEntity
  8
0
  6
ByLayer
 62
    0
370
   -1
100
AcDbLine
 10
203.972
 20
10.1534
 11
204.797
 21
10.1534
  0
LINE
  5
72
100
AcDbEntity
  8
0
  6
ByLayer
 62
    0
370
   -1
100
AcDbLine
 10
204.797
 20
10.1534
 11
204.797
 21
12.9536
  0
LINE
  5
73
100
AcDbEntity
  8
0
  6
ByLayer
 62
    0
370
   -1
100
AcDbLine
 10
204.797
 20
12.9536
 11
203.972
 21
12.9536
  0
LINE
  5
74
100
AcDbEntity
  8
0
  6
ByLayer
 62
    0
370
   -1
100
AcDbLine
 10
203.972
 20
12.9536
 11
203.972
 21
16.1837
  0
LINE
  5
75
100
AcDbEntity
  8
0
  6
ByLayer
 62
    0
370
   -1
100
AcDbLine
 10
203.972
 20
16.1837
 11
197.222
 21
16.1837
  0
LINE
  5
76
100
AcDbEntity
  8
0
  6
ByLayer
 62
    0
370
   -1
100
AcDbLine
 10
197.222
 20
16.1837
 11
197.222
 21
12.9536
  0
LINE
  5
77
100
AcDbEntity
  8
0
  6
ByLayer
 62
    0
370
   -1
100
AcDbLine
 10
197.222
 20
12.9536
 11
150.446
 21
12.9536
  0
LINE
  5
78
100
AcDbEntity
  8
0
  6
ByLayer
 62
    0
370
   -1
100
AcDbLine
 10
150.446
 20
12.9536
 11
150.446
 21
17.6527
  0
LINE
  5
79
100
AcDbEntity
  8
0
  6
ByLayer
 62
    0
370
   -1
100
AcDbLine
 10
150.446
 20
17.6527
 11
136.446
 21
17.6527
  0
LINE
  5
7A
100
AcDbEntity
  8
0
  6
ByLayer
 62
    0
370
   -1
100
AcDbLine
 10
7.85894
 20
17.6527
 11
21.8598
 21
17.6527
  0
LINE
  5
7B
100
AcDbEntity
  8
0
  6
ByLayer
 62
    0
370
   -1
100
AcDbLine
 10
21.8598
 20
17.6527
 11
21.8598
 21
3.65319
  0
LINE
  5
7C
100
AcDbEntity
  8
0
  6
ByLayer
 62
    0
370
   -1
100
AcDbLine
 10
21.8598
 20
3.65319
 11
7.85894
 21
3.65319
  0
LINE
  5
7D
100
AcDbEntity
  8
0
  6
ByLayer
 62
    0
370
   -1
100
AcDbLine
 10
7.85894
 20
3.65319
 11
7.85894
 21
17.6527
  0
LINE
  5
7E
100
AcDbEntity
  8
0
  6
ByLayer
 62
    0
370
   -1
100
AcDbLine
 10
31.6714
 20
17.6527
 11
45.671
 21
17.6527
  0
LINE
  5
7F
100
AcDbEntity
  8
0
  6
ByLayer
 62
    0
370
   -1
100
AcDbLine
 10
45.671
 20
17.6527
 11
45.671
 21
3.65319
  0
LINE
  5
80
100
AcDbEntity
  8
0
  6
ByLayer
 62
    0
370
   -1
100
AcDbLine
 10
45.671
 20
3.65319
 11
31.6714
 21
3.65319
  0
LINE
  5
81
100
AcDbEntity
  8
0
  6
ByLayer
 62
    0
370
   -1
100
AcDbLine
 10
31.6714
 20
3.65319
 11
31.6714
 21
17.6527
  0
LINE
  5
82
100
AcDbEntity
  8
0
  6
ByLayer
 62
    0
370
   -1
100
AcDbLine
 10
55.4838
 20
17.6527
 11
69.4849
 21
17.6527
  0
LINE
  5
83
100
AcDbEntity
  8
0
  6
ByLayer
 62
    0
370
   -1
100
AcDbLine
 10
69.4849
 20
17.6527
 11
69.4849
 21
3.65319
  0
LINE
  5
84
100
AcDbEntity
  8
0
  6
ByLayer
 62
    0
370
   -1
100
AcDbLine
 10
69.4849
 20
3.65319
 11
55.4838
 21
3.65319
  0
LINE
  5
85
100
AcDbEntity
  8
0
  6
ByLayer
 62
    0
370
   -1
100
AcDbLine
 10
55.4838
 20
3.65319
 11
55.4838
 21
17.6527
  0
LINE
  5
86
100
AcDbEntity
  8
0
  6
ByLayer
 62
    0
370
   -1
100
AcDbLine
 10
217.409
 20
17.6527
 11
231.41
 21
17.6527
  0
LINE
  5
87
100
AcDbEntity
  8
0
  6
ByLayer
 62
    0
370
   -1
100
AcDbLine
 10
231.41
 20
17.6527
 11
231.41
 21
3.65319
  0
LINE
  5
88
100
AcDbEntity
  8
0
  6
ByLayer
 62
    0
370
   -1
100
AcDbLine
 10
231.41
 20
3.65319
 11
217.409
 21
3.65319
  0
LINE
  5
89
100
AcDbEntity
  8
0
  6
ByLayer
 62
    0
370
   -1
100
AcDbLine
 10
217.409
 20
3.65319
 11
217.409
 21
17.6527
  0
LINE
  5
8A
100
AcDbEntity
  8
0
  6
ByLayer
 62
    0
370
   -1
100
AcDbLine
 10
241.221
 20
17.6527
 11
255.221
 21
17.6527
  0
LINE
  5
8B
100
AcDbEntity
  8
0
  6
ByLayer
 62
    0
370
   -1
100
AcDbLine
 10
255.221
 20
17.6527
 11
255.221
 21
3.65319
  0
LINE
  5
8C
100
AcDbEntity
  8
0
  6
ByLayer
 62
    0
370
   -1
100
AcDbLine
 10
255.221
 20
3.65319
 11
241.221
 21
3.65319
  0
LINE
  5
8D
100
AcDbEntity
  8
0
  6
ByLayer
 62
    0
370
   -1
100
AcDbLine
 10
241.221
 20
3.65319
 11
241.221
 21
17.6527
  0
LINE
  5
8E
100
AcDbEntity
  8
0
  6
ByLayer
 62
    0
370
   -1
100
AcDbLine
 10
265.034
 20
17.6527
 11
279.035
 21
17.6527
  0
LINE
  5
8F
100
AcDbEntity
  8
0
  6
ByLayer
 62
    0
370
   -1
100
AcDbLine
 10
279.035
 20
17.6527
 11
279.035
 21
3.65319
  0
LINE
  5
90
100
AcDbEntity
  8
0
  6
ByLayer
 62
    0
370
   -1
100
AcDbLine
 10
279.035
 20
3.65319
 11
265.034
 21
3.65319
  0
LINE
  5
91
100
AcDbEntity
  8
0
  6
ByLayer
 62
    0
370
   -1
100
AcDbLine
 10
265.034
 20
3.65319
 11
265.034
 21
17.6527
  0
LINE
  5
92
100
AcDbEntity
  8
0
  6
ByLayer
 62
    0
370
   -1
100
AcDbLine
 10
293.609
 20
17.6527
 11
307.61
 21
17.6527
  0
LINE
  5
93
100
AcDbEntity
  8
0
  6
ByLayer
 62
    0
370
   -1
100
AcDbLine
 10
307.61
 20
17.6527
 11
307.61
 21
3.65319
  0
LINE
  5
94
100
AcDbEntity
  8
0
  6
ByLayer
 62
    0
370
   -1
100
AcDbLine
 10
307.61
 20
3.65319
 11
293.609
 21
3.65319
  0
LINE
  5
95
100
AcDbEntity
  8
0
  6
ByLayer
 62
    0
370
   -1
100
AcDbLine
 10
293.609
 20
3.65319
 11
293.609
 21
17.6527
  0
LINE
  5
96
100
AcDbEntity
  8
0
  6
ByLayer
 62
    0
370
   -1
100
AcDbLine
 10
312.659
 20
17.6527
 11
326.66
 21
17.6527
  0
LINE
  5
97
100
AcDbEntity
  8
0
  6
ByLayer
 62
    0
370
   -1
100
AcDbLine
 10
326.66
 20
17.6527
 11
326.66
 21
3.65319
  0
LINE
  5
98
100
AcDbEntity
  8
0
  6
ByLayer
 62
    0
370
   -1
100
AcDbLine
 10
326.66
 20
3.65319
 11
312.659
 21
3.65319
  0
LINE
  5
99
100
AcDbEntity
  8
0
  6
ByLayer
 62
    0
370
   -1
100
AcDbLine
 10
312.659
 20
3.65319
 11
312.659
 21
17.6527
  0
LINE
  5
9A
100
AcDbEntity
  8
0
  6
ByLayer
 62
    0
370
   -1
100
AcDbLine
 10
331.709
 20
17.6527
 11
345.71
 21
17.6527
  0
LINE
  5
9B
100
AcDbEntity
  8
0
  6
ByLayer
 62
    0
370
   -1
100
AcDbLine
 10
345.71
 20
17.6527
 11
345.71
 21
3.65319
  0
LINE
  5
9C
100
AcDbEntity
  8
0
  6
ByLayer
 62
    0
370
   -1
100
AcDbLine
 10
345.71
 20
3.65319
 11
331.709
 21
3.65319
  0
LINE
  5
9D
100
AcDbEntity
  8
0
  6
ByLayer
 62
    0
370
   -1
100
AcDbLine
 10
331.709
 20
3.65319
 11
331.709
 21
17.6527
  0
LINE
  5
9E
100
AcDbEntity
  8
0
  6
ByLayer
 62
    0
370
   -1
100
AcDbLine
 10
15.0027
 20
36.7026
 11
15.0027
 21
32.0036
  0
LINE
  5
9F
100
AcDbEntity
  8
0
  6
ByLayer
 62
    0
370
   -1
100
AcDbLine
 10
15.0027
 20
32.0036
 11
13.4772
 21
32.0036
  0
LINE
  5
A0
100
AcDbEntity
  8
0
  6
ByLayer
 62
    0
370
   -1
100
AcDbLine
 10
13.4772
 20
32.0036
 11
13.4772
 21
35.2337
  0
LINE
  5
A1
100
AcDbEntity
  8
0
  6
ByLayer
 62
    0
370
   -1
100
AcDbLine
 10
13.4772
 20
35.2337
 11
6.72758
 21
35.2337
  0
LINE
  5
A2
100
AcDbEntity
  8
0
  6
ByLayer
 62
    0
370
   -1
100
AcDbLine
 10
6.72758
 20
35.2337
 11
6.72758
 21
32.0036
  0
LINE
  5
A3
100
AcDbEntity
  8
0
  6
ByLayer
 62
    0
370
   -1
100
AcDbLine
 10
6.72758
 20
32.0036
 11
5.90215
 21
32.0036
  0
LINE
  5
A4
100
AcDbEntity
  8
0
  6
ByLayer
 62
    0
370
   -1
100
AcDbLine
 10
5.90215
 20
32.0036
 11
5.90215
 21
29.2034
  0
LINE
  5
A5
100
AcDbEntity
  8
0
  6
ByLayer
 62
    0
370
   -1
100
AcDbLine
 10
5.90215
 20
29.2034
 11
6.72758
 21
29.2034
  0
LINE
  5
A6
100
AcDbEntity
  8
0
  6
ByLayer
 62
    0
370
   -1
100
AcDbLine
 10
6.72758
 20
29.2034
 11
6.72758
 21
22.9333
  0
LINE
  5
A7
100
AcDbEntity
  8
0
  6
ByLayer
 62
    0
370
   -1
100
AcDbLine
 10
6.72758
 20
22.9333
 11
8.452870000000001
 21
22.9333
  0
LINE
  5
A8
100
AcDbEntity
  8
0
  6
ByLayer
 62
    0
370
   -1
100
AcDbLine
 10
8.452870000000001
 20
22.9333
 11
8.452870000000001
 21
21.7331
  0
LINE
  5
A9
100
AcDbEntity
  8
0
  6
ByLayer
 62
    0
370
   -1
100
AcDbLine
 10
8.452870000000001
 20
21.7331
 11
11.7519
 21
21.7331
  0
LINE
  5
AA
100
AcDbEntity
  8
0
  6
ByLayer
 62
    0
370
   -1
100
AcDbLine
 10
11.7519
 20
21.7331
 11
11.7519
 21
22.9333
  0
LINE
  5
AB
100
AcDbEntity
  8
0
  6
ByLayer
 62
    0
370
   -1
100
AcDbLine
 10
11.7519
 20
22.9333
 11
13.4772
 21
22.9333
  0
LINE
  5
AC
100
AcDbEntity
  8
0
  6
ByLayer
 62
    0
370
   -1
100
AcDbLine
 10
13.4772
 20
22.9333
 11
13.4772
 21
27.4037
  0
LINE
  5
AD
100
AcDbEntity
  8
0
  6
ByLayer
 62
    0
370
   -1
100
AcDbLine
 10
13.4772
 20
27.4037
 11
15.0027
 21
27.4037
  0
LINE
  5
AE
100
AcDbEntity
  8
0
  6
ByLayer
 62
    0
370
   -1
100
AcDbLine
 10
15.0027
 20
27.4037
 11
15.0027
 21
22.7032
  0
LINE
  5
AF
100
AcDbEntity
  8
0
  6
ByLayer
 62
    0
370
   -1
100
AcDbLine
 10
15.0027
 20
22.7032
 11
29.0022
 21
22.7032
  0
LINE
  5
B0
100
AcDbEntity
  8
0
  6
ByLayer
 62
    0
370
   -1
100
AcDbLine
 10
29.0022
 20
22.7032
 11
29.0022
 21
27.4037
  0
LINE
  5
B1
100
AcDbEntity
  8
0
  6
ByLayer
 62
    0
370
   -1
100
AcDbLine
 10
29.0022
 20
27.4037
 11
30.5277
 21
27.4037
  0
LINE
  5
B2
100
AcDbEntity
  8
0
  6
ByLayer
 62
    0
370
   -1
100
AcDbLine
 10
30.5277
 20
27.4037
 11
30.5277
 21
22.9333
  0
LINE
  5
B3
100
AcDbEntity
  8
0
  6
ByLayer
 62
    0
370
   -1
100
AcDbLine
 10
30.5277
 20
22.9333
 11
32.253
 21
22.9333
  0
LINE
  5
B4
100
AcDbEntity
  8
0
  6
ByLayer
 62
    0
370
   -1
100
AcDbLine
 10
32.253
 20
22.9333
 11
32.253
 21
21.7331
  0
LINE
  5
B5
100
AcDbEntity
  8
0
  6
ByLayer
 62
    0
370
   -1
100
AcDbLine
 10
32.253
 20
21.7331
 11
35.5519
 21
21.7331
  0
LINE
  5
B6
100
AcDbEntity
  8
0
  6
ByLayer
 62
    0
370
   -1
100
AcDbLine
 10
35.5519
 20
21.7331
 11
35.5519
 21
22.9333
  0
LINE
  5
B7
100
AcDbEntity
  8
0
  6
ByLayer
 62
    0
370
   -1
100
AcDbLine
 10
35.5519
 20
22.9333
 11
37.2773
 21
22.9333
  0
LINE
  5
B8
100
AcDbEntity
  8
0
  6
ByLayer
 62
    0
370
   -1
100
AcDbLine
 10
37.2773
 20
22.9333
 11
37.2773
 21
29.2034
  0
LINE
  5
B9
100
AcDbEntity
  8
0
  6
ByLayer
 62
    0
370
   -1
100
AcDbLine
 10
37.2773
 20
29.2034
 11
38.1028
 21
29.2034
  0
LINE
  5
BA
100
AcDbEntity
  8
0
  6
ByLayer
 62
    0
370
   -1
100
AcDbLine
 10
38.1028
 20
29.2034
 11
38.1028
 21
32.0036
  0
LINE
  5
BB
100
AcDbEntity
  8
0
  6
ByLayer
 62
    0
370
   -1
100
AcDbLine
 10
38.1028
 20
32.0036
 11
37.2773
 21
32.0036
  0
LINE
  5
BC
100
AcDbEntity
  8
0
  6
ByLayer
 62
    0
370
   -1
100
AcDbLine
 10
37.2773
 20
32.0036
 11
37.2773
 21
35.2337
  0
LINE
  5
BD
100
AcDbEntity
  8
0
  6
ByLayer
 62
    0
370
   -1
100
AcDbLine
 10
37.2773
 20
35.2337
 11
30.5277
 21
35.2337
  0
LINE
  5
BE
100
AcDbEntity
  8
0
  6
ByLayer
 62
    0
370
   -1
100
AcDbLine
 10
30.5277
 20
35.2337
 11
30.5277
 21
32.0036
  0
LINE
  5
BF
100
AcDbEntity
  8
0
  6
ByLayer
 62
    0
370
   -1
100
AcDbLine
 10
30.5277
 20
32.0036
 11
29.0022
 21
32.0036
  0
LINE
  5
C0
100
AcDbEntity
  8
0
  6
ByLayer
 62
    0
370
   -1
100
AcDbLine
 10
29.0022
 20
32.0036
 11
29.0022
 21
36.7026
  0
LINE
  5
C1
100
AcDbEntity
  8
0
  6
ByLayer
 62
    0
370
   -1
100
AcDbLine
 10
29.0022
 20
36.7026
 11
15.0027
 21
36.7026
  0
LINE
  5
C2
100
AcDbEntity
  8
0
  6
ByLayer
 62
    0
370
   -1
100
AcDbLine
 10
253.128
 20
36.7026
 11
253.128
 21
32.0036
  0
LINE
  5
C3
100
AcDbEntity
  8
0
  6
ByLayer
 62
    0
370
   -1
100
AcDbLine
 10
253.128
 20
32.0036
 11
251.601
 21
32.0036
  0
LINE
  5
C4
100
AcDbEntity
  8
0
  6
ByLayer
 62
    0
370
   -1
100
AcDbLine
 10
251.601
 20
32.0036
 11
251.601
 21
35.2337
  0
LINE
  5
C5
100
AcDbEntity
  8
0
  6
ByLayer
 62
    0
370
   -1
100
AcDbLine
 10
251.601
 20
35.2337
 11
244.852
 21
35.2337
  0
LINE
  5
C6
100
AcDbEntity
  8
0
  6
ByLayer
 62
    0
370
   -1
100
AcDbLine
 10
244.852
 20
35.2337
 11
244.852
 21
32.0036
  0
LINE
  5
C7
100
AcDbEntity
  8
0
  6
ByLayer
 62
    0
370
   -1
100
AcDbLine
 10
244.852
 20
32.0036
 11
244.027
 21
32.0036
  0
LINE
  5
C8
100
AcDbEntity
  8
0
  6
ByLayer
 62
    0
370
   -1
100
AcDbLine
 10
244.027
 20
32.0036
 11
244.027
 21
29.2034
  0
LINE
  5
C9
100
AcDbEntity
  8
0
  6
ByLayer
 62
    0
370
   -1
100
AcDbLine
 10
244.027
 20
29.2034
 11
244.852
 21
29.2034
  0
LINE
  5
CA
100
AcDbEntity
  8
0
  6
ByLayer
 62
    0
370
   -1
100
AcDbLine
 10
244.852
 20
29.2034
 11
244.852
 21
22.9333
  0
LINE
  5
CB
100
AcDbEntity
  8
0
  6
ByLayer
 62
    0
370
   -1
100
AcDbLine
 10
244.852
 20
22.9333
 11
246.578
 21
22.9333
  0
LINE
  5
CC
100
AcDbEntity
  8
0
  6
ByLayer
 62
    0
370
   -1
100
AcDbLine
 10
246.578
 20
22.9333
 11
246.578
 21
21.7331
  0
LINE
  5
CD
100
AcDbEntity
  8
0
  6
ByLayer
 62
    0
370
   -1
100
AcDbLine
 10
246.578
 20
21.7331
 11
249.877
 21
21.7331
  0
LINE
  5
CE
100
AcDbEntity
  8
0
  6
ByLayer
 62
    0
370
   -1
100
AcDbLine
 10
249.877
 20
21.7331
 11
249.877
 21
22.9333
  0
LINE
  5
CF
100
AcDbEntity
  8
0
  6
ByLayer
 62
    0
370
   -1
100
AcDbLine
 10
249.877
 20
22.9333
 11
251.601
 21
22.9333
  0
LINE
  5
D0
100
AcDbEntity
  8
0
  6
ByLayer
 62
    0
370
   -1
100
AcDbLine
 10
251.601
 20
22.9333
 11
251.601
 21
27.4037
  0
LINE
  5
D1
100
AcDbEntity
  8
0
  6
ByLayer
 62
    0
370
   -1
100
AcDbLine
 10
251.601
 20
27.4037
 11
253.128
 21
27.4037
  0
LINE
  5
D2
100
AcDbEntity
  8
0
  6
ByLayer
 62
    0
370
   -1
100
AcDbLine
 10
253.128
 20
27.4037
 11
253.128
 21
22.7032
  0
LINE
  5
D3
100
AcDbEntity
  8
0
  6
ByLayer
 62
    0
370
   -1
100
AcDbLine
 10
253.128
 20
22.7032
 11
267.127
 21
22.7032
  0
LINE
  5
D4
100
AcDbEntity
  8
0
  6
ByLayer
 62
    0
370
   -1
100
AcDbLine
 10
267.127
 20
22.7032
 11
267.127
 21
27.4037
  0
LINE
  5
D5
100
AcDbEntity
  8
0
  6
ByLayer
 62
    0
370
   -1
100
AcDbLine
 10
267.127
 20
27.4037
 11
268.653
 21
27.4037
  0
LINE
  5
D6
100
AcDbEntity
  8
0
  6
ByLayer
 62
    0
370
   -1
100
AcDbLine
 10
268.653
 20
27.4037
 11
268.653
 21
22.9333
  0
LINE
  5
D7
100
AcDbEntity
  8
0
  6
ByLayer
 62
    0
370
   -1
100
AcDbLine
 10
268.653
 20
22.9333
 11
270.378
 21
22.9333
  0
LINE
  5
D8
100
AcDbEntity
  8
0
  6
ByLayer
 62
    0
370
   -1
100
AcDbLine
 10
270.378
 20
22.9333
 11
270.378
 21
21.7331
  0
LINE
  5
D9
100
AcDbEntity
  8
0
  6
ByLayer
 62
    0
370
   -1
100
AcDbLine
 10
270.378
 20
21.7331
 11
273.677
 21
21.7331
  0
LINE
  5
DA
100
AcDbEntity
  8
0
  6
ByLayer
 62
    0
370
   -1
100
AcDbLine
 10
273.677
 20
21.7331
 11
273.677
 21
22.9333
  0
LINE
  5
DB
100
AcDbEntity
  8
0
  6
ByLayer
 62
    0
370
   -1
100
AcDbLine
 10
273.677
 20
22.9333
 11
275.402
 21
22.9333
  0
LINE
  5
DC
100
AcDbEntity
  8
0
  6
ByLayer
 62
    0
370
   -1
100
AcDbLine
 10
275.402
 20
22.9333
 11
275.402
 21
29.2034
  0
LINE
  5
DD
100
AcDbEntity
  8
0
  6
ByLayer
 62
    0
370
   -1
100
AcDbLine
 10
275.402
 20
29.2034
 11
276.228
 21
29.2034
  0
LINE
  5
DE
100
AcDbEntity
  8
0
  6
ByLayer
 62
    0
370
   -1
100
AcDbLine
 10
276.228
 20
29.2034
 11
276.228
 21
32.0036
  0
LINE
  5
DF
100
AcDbEntity
  8
0
  6
ByLayer
 62
    0
370
   -1
100
AcDbLine
 10
276.228
 20
32.0036
 11
275.402
 21
32.0036
  0
LINE
  5
E0
100
AcDbEntity
  8
0
  6
ByLayer
 62
    0
370
   -1
100
AcDbLine
 10
275.402
 20
32.0036
 11
275.402
 21
35.2337
  0
LINE
  5
E1
100
AcDbEntity
  8
0
  6
ByLayer
 62
    0
370
   -1
100
AcDbLine
 10
275.402
 20
35.2337
 11
268.653
 21
35.2337
  0
LINE
  5
E2
100
AcDbEntity
  8
0
  6
ByLayer
 62
    0
370
   -1
100
AcDbLine
 10
268.653
 20
35.2337
 11
268.653
 21
32.0036
  0
LINE
  5
E3
100
AcDbEntity
  8
0
  6
ByLayer
 62
    0
370
   -1
100
AcDbLine
 10
268.653
 20
32.0036
 11
267.127
 21
32.0036
  0
LINE
  5
E4
100
AcDbEntity
  8
0
  6
ByLayer
 62
    0
370
   -1
100
AcDbLine
 10
267.127
 20
32.0036
 11
267.127
 21
36.7026
  0
LINE
  5
E5
100
AcDbEntity
  8
0
  6
ByLayer
 62
    0
370
   -1
100
AcDbLine
 10
267.127
 20
36.7026
 11
253.128
 21
36.7026
  0
LINE
  5
E6
100
AcDbEntity
  8
0
  6
ByLayer
 62
    0
370
   -1
100
AcDbLine
 10
45.9588
 20
36.7026
 11
59.9585
 21
36.7026
  0
LINE
  5
E7
100
AcDbEntity
  8
0
  6
ByLayer
 62
    0
370
   -1
100
AcDbLine
 10
59.9585
 20
36.7026
 11
59.9585
 21
22.7032
  0
LINE
  5
E8
100
AcDbEntity
  8
0
  6
ByLayer
 62
    0
370
   -1
100
AcDbLine
 10
59.9585
 20
22.7032
 11
45.9588
 21
22.7032
  0
LINE
  5
E9
100
AcDbEntity
  8
0
  6
ByLayer
 62
    0
370
   -1
100
AcDbLine
 10
45.9588
 20
22.7032
 11
45.9588
 21
36.7026
  0
LINE
  5
EA
100
AcDbEntity
  8
0
  6
ByLayer
 62
    0
370
   -1
100
AcDbLine
 10
65.00879999999999
 20
36.7026
 11
79.0099
 21
36.7026
  0
LINE
  5
EB
100
AcDbEntity
  8
0
  6
ByLayer
 62
    0
370
   -1
100
AcDbLine
 10
79.0099
 20
36.7026
 11
79.0099
 21
22.7032
  0
LINE
  5
EC
100
AcDbEntity
  8
0
  6
ByLayer
 62
    0
370
   -1
100
AcDbLine
 10
79.0099
 20
22.7032
 11
65.00879999999999
 21
22.7032
  0
LINE
  5
ED
100
AcDbEntity
  8
0
  6
ByLayer
 62
    0
370
   -1
100
AcDbLine
 10
65.00879999999999
 20
22.7032
 11
65.00879999999999
 21
36.7026
  0
LINE
  5
EE
100
AcDbEntity
  8
0
  6
ByLayer
 62
    0
370
   -1
100
AcDbLine
 10
84.05880000000001
 20
36.7026
 11
98.0599
 21
36.7026
  0
LINE
  5
EF
100
AcDbEntity
  8
0
  6
ByLayer
 62
    0
370
   -1
100
AcDbLine
 10
98.0599
 20
36.7026
 11
98.0599
 21
22.7032
  0
LINE
  5
F0
100
AcDbEntity
  8
0
  6
ByLayer
 62
    0
370
   -1
100
AcDbLine
 10
98.0599
 20
22.7032
 11
84.05880000000001
 21
22.7032
  0
LINE
  5
F1
100
AcDbEntity
  8
0
  6
ByLayer
 62
    0
370
   -1
100
AcDbLine
 10
84.05880000000001
 20
22.7032
 11
84.05880000000001
 21
36.7026
  0
LINE
  5
F2
100
AcDbEntity
  8
0
  6
ByLayer
 62
    0
370
   -1
100
AcDbLine
 10
103.109
 20
36.7026
 11
117.11
 21
36.7026
  0
LINE
  5
F3
100
AcDbEntity
  8
0
  6
ByLayer
 62
    0
370
   -1
100
AcDbLine
 10
117.11
 20
36.7026
 11
117.11
 21
22.7032
  0
LINE
  5
F4
100
AcDbEntity
  8
0
  6
ByLayer
 62
    0
370
   -1
100
AcDbLine
 10
117.11
 20
22.7032
 11
103.109
 21
22.7032
  0
LINE
  5
F5
100
AcDbEntity
  8
0
  6
ByLayer
 62
    0
370
   -1
100
AcDbLine
 10
103.109
 20
22.7032
 11
103.109
 21
36.7026
  0
LINE
  5
F6
100
AcDbEntity
  8
0
  6
ByLayer
 62
    0
370
   -1
100
AcDbLine
 10
122.159
 20
36.7026
 11
136.16
 21
36.7026
  0
LINE
  5
F7
100
AcDbEntity
  8
0
  6
ByLayer
 62
    0
370
   -1
100
AcDbLine
 10
136.16
 20
36.7026
 11
136.16
 21
22.7032
  0
LINE
  5
F8
100
AcDbEntity
  8
0
  6
ByLayer
 62
    0
370
   -1
100
AcDbLine
 10
136.16
 20
22.7032
 11
122.159
 21
22.7032
  0
LINE
  5
F9
100
AcDbEntity
  8
0
  6
ByLayer
 62
    0
370
   -1
100
AcDbLine
 10
122.159
 20
22.7032
 11
122.159
 21
36.7026
  0
LINE
  5
FA
100
AcDbEntity
  8
0
  6
ByLayer
 62
    0
370
   -1
100
AcDbLine
 10
141.209
 20
36.7026
 11
155.21
 21
36.7026
  0
LINE
  5
FB
100
AcDbEntity
  8
0
  6
ByLayer
 62
    0
370
   -1
100
AcDbLine
 10
155.21
 20
36.7026
 11
155.21
 21
22.7032
  0
LINE
  5
FC
100
AcDbEntity
  8
0
  6
ByLayer
 62
    0
370
   -1
100
AcDbLine
 10
155.21
 20
22.7032
 11
141.209
 21
22.7032
  0
LINE
  5
FD
100
AcDbEntity
  8
0
  6
ByLayer
 62
    0
370
   -1
100
AcDbLine
 10
141.209
 20
22.7032
 11
141.209
 21
36.7026
  0
LINE
  5
FE
100
AcDbEntity
  8
0
  6
ByLayer
 62
    0
370
   -1
100
AcDbLine
 10
160.259
 20
36.7026
 11
174.26
 21
36.7026
  0
LINE
  5
FF
100
AcDbEntity
  8
0
  6
ByLayer
 62
    0
370
   -1
100
AcDbLine
 10
174.26
 20
36.7026
 11
174.26
 21
22.7032
  0
LINE
  5
100
100
AcDbEntity
  8
0
  6
ByLayer
 62
    0
370
   -1
100
AcDbLine
 10
174.26
 20
22.7032
 11
160.259
 21
22.7032
  0
LINE
  5
101
100
AcDbEntity
  8
0
  6
ByLayer
 62
    0
370
   -1
100
AcDbLine
 10
160.259
 20
22.7032
 11
160.259
 21
36.7026
  0
LINE
  5
102
100
AcDbEntity
  8
0
  6
ByLayer
 62
    0
370
   -1
100
AcDbLine
 10
179.309
 20
36.7026
 11
193.31
 21
36.7026
  0
LINE
  5
103
100
AcDbEntity
  8
0
  6
ByLayer
 62
    0
370
   -1
100
AcDbLine
 10
193.31
 20
36.7026
 11
193.31
 21
22.7032
  0
LINE
  5
104
100
AcDbEntity
  8
0
  6
ByLayer
 62
    0
370
   -1
100
AcDbLine
 10
193.31
 20
22.7032
 11
179.309
 21
22.7032
  0
LINE
  5
105
100
AcDbEntity
  8
0
  6
ByLayer
 62
    0
370
   -1
100
AcDbLine
 10
179.309
 20
22.7032
 11
179.309
 21
36.7026
  0
LINE
  5
106
100
AcDbEntity
  8
0
  6
ByLayer
 62
    0
370
   -1
100
AcDbLine
 10
198.359
 20
36.7026
 11
212.36
 21
36.7026
  0
LINE
  5
107
100
AcDbEntity
  8
0
  6
ByLayer
 62
    0
370
   -1
100
AcDbLine
 10
212.36
 20
36.7026
 11
212.36
 21
22.7032
  0
LINE
  5
108
100
AcDbEntity
  8
0
  6
ByLayer
 62
    0
370
   -1
100
AcDbLine
 10
212.36
 20
22.7032
 11
198.359
 21
22.7032
  0
LINE
  5
109
100
AcDbEntity
  8
0
  6
ByLayer
 62
    0
370
   -1
100
AcDbLine
 10
198.359
 20
22.7032
 11
198.359
 21
36.7026
  0
LINE
  5
10A
100
AcDbEntity
  8
0
  6
ByLayer
 62
    0
370
   -1
100
AcDbLine
 10
217.409
 20
36.7026
 11
231.41
 21
36.7026
  0
LINE
  5
10B
100
AcDbEntity
  8
0
  6
ByLayer
 62
    0
370
   -1
100
AcDbLine
 10
231.41
 20
36.7026
 11
231.41
 21
22.7032
  0
LINE
  5
10C
100
AcDbEntity
  8
0
  6
ByLayer
 62
    0
370
   -1
100
AcDbLine
 10
231.41
 20
22.7032
 11
217.409
 21
22.7032
  0
LINE
  5
10D
100
AcDbEntity
  8
0
  6
ByLayer
 62
    0
370
   -1
100
AcDbLine
 10
217.409
 20
22.7032
 11
217.409
 21
36.7026
  0
LINE
  5
10E
100
AcDbEntity
  8
0
  6
ByLayer
 62
    0
370
   -1
100
AcDbLine
 10
312.659
 20
36.7026
 11
326.66
 21
36.7026
  0
LINE
  5
10F
100
AcDbEntity
  8
0
  6
ByLayer
 62
    0
370
   -1
100
AcDbLine
 10
326.66
 20
36.7026
 11
326.66
 21
22.7032
  0
LINE
  5
110
100
AcDbEntity
  8
0
  6
ByLayer
 62
    0
370
   -1
100
AcDbLine
 10
326.66
 20
22.7032
 11
312.659
 21
22.7032
  0
LINE
  5
111
100
AcDbEntity
  8
0
  6
ByLayer
 62
    0
370
   -1
100
AcDbLine
 10
312.659
 20
22.7032
 11
312.659
 21
36.7026
  0
LINE
  5
112
100
AcDbEntity
  8
0
  6
ByLayer
 62
    0
370
   -1
100
AcDbLine
 10
257.89
 20
55.7526
 11
257.89
 21
51.0536
  0
LINE
  5
113
100
AcDbEntity
  8
0
  6
ByLayer
 62
    0
370
   -1
100
AcDbLine
 10
257.89
 20
51.0536
 11
256.366
 21
51.0536
  0
LINE
  5
114
100
AcDbEntity
  8
0
  6
ByLayer
 62
    0
370
   -1
100
AcDbLine
 10
256.366
 20
51.0536
 11
256.366
 21
54.2837
  0
LINE
  5
115
100
AcDbEntity
  8
0
  6
ByLayer
 62
    0
370
   -1
100
AcDbLine
 10
256.366
 20
54.2837
 11
249.615
 21
54.2837
  0
LINE
  5
116
100
AcDbEntity
  8
0
  6
ByLayer
 62
    0
370
   -1
100
AcDbLine
 10
249.615
 20
54.2837
 11
249.615
 21
51.0536
  0
LINE
  5
117
100
AcDbEntity
  8
0
  6
ByLayer
 62
    0
370
   -1
100
AcDbLine
 10
249.615
 20
51.0536
 11
248.791
 21
51.0536
  0
LINE
  5
118
100
AcDbEntity
  8
0
  6
ByLayer
 62
    0
370
   -1
100
AcDbLine
 10
248.791
 20
51.0536
 11
248.791
 21
48.2533
  0
LINE
  5
119
100
AcDbEntity
  8
0
  6
ByLayer
 62
    0
370
   -1
100
AcDbLine
 10
248.791
 20
48.2533
 11
249.615
 21
48.2533
  0
LINE
  5
11A
100
AcDbEntity
  8
0
  6
ByLayer
 62
    0
370
   -1
100
AcDbLine
 10
249.615
 20
48.2533
 11
249.615
 21
41.9834
  0
LINE
  5
11B
100
AcDbEntity
  8
0
  6
ByLayer
 62
    0
370
   -1
100
AcDbLine
 10
249.615
 20
41.9834
 11
251.339
 21
41.9834
  0
LINE
  5
11C
100
AcDbEntity
  8
0
  6
ByLayer
 62
    0
370
   -1
100
AcDbLine
 10
251.339
 20
41.9834
 11
251.339
 21
40.7829
  0
LINE
  5
11D
100
AcDbEntity
  8
0
  6
ByLayer
 62
    0
370
   -1
100
AcDbLine
 10
251.339
 20
40.7829
 11
254.641
 21
40.7829
  0
LINE
  5
11E
100
AcDbEntity
  8
0
  6
ByLayer
 62
    0
370
   -1
100
AcDbLine
 10
254.641
 20
40.7829
 11
254.641
 21
41.9834
  0
LINE
  5
11F
100
AcDbEntity
  8
0
  6
ByLayer
 62
    0
370
   -1
100
AcDbLine
 10
254.641
 20
41.9834
 11
256.366
 21
41.9834
  0
LINE
  5
120
100
AcDbEntity
  8
0
  6
ByLayer
 62
    0
370
   -1
100
AcDbLine
 10
256.366
 20
41.9834
 11
256.366
 21
46.4538
  0
LINE
  5
121
100
AcDbEntity
  8
0
  6
ByLayer
 62
    0
370
   -1
100
AcDbLine
 10
256.366
 20
46.4538
 11
257.89
 21
46.4538
  0
LINE
  5
122
100
AcDbEntity
  8
0
  6
ByLayer
 62
    0
370
   -1
100
AcDbLine
 10
257.89
 20
46.4538
 11
257.89
 21
41.753
  0
LINE
  5
123
100
AcDbEntity
  8
0
  6
ByLayer
 62
    0
370
   -1
100
AcDbLine
 10
257.89
 20
41.753
 11
271.891
 21
41.753
  0
LINE
  5
124
100
AcDbEntity
  8
0
  6
ByLayer
 62
    0
370
   -1
100
AcDbLine
 10
271.891
 20
41.753
 11
271.891
 21
46.4538
  0
LINE
  5
125
100
AcDbEntity
  8
0
  6
ByLayer
 62
    0
370
   -1
100
AcDbLine
 10
271.891
 20
46.4538
 11
273.415
 21
46.4538
  0
LINE
  5
126
100
AcDbEntity
  8
0
  6
ByLayer
 62
    0
370
   -1
100
AcDbLine
 10
273.415
 20
46.4538
 11
273.415
 21
41.9834
  0
LINE
  5
127
100
AcDbEntity
  8
0
  6
ByLayer
 62
    0
370
   -1
100
AcDbLine
 10
273.415
 20
41.9834
 11
275.141
 21
41.9834
  0
LINE
  5
128
100
AcDbEntity
  8
0
  6
ByLayer
 62
    0
370
   -1
100
AcDbLine
 10
275.141
 20
41.9834
 11
275.141
 21
40.7829
  0
LINE
  5
129
100
AcDbEntity
  8
0
  6
ByLayer
 62
    0
370
   -1
100
AcDbLine
 10
275.141
 20
40.7829
 11
278.441
 21
40.7829
  0
LINE
  5
12A
100
AcDbEntity
  8
0
  6
ByLayer
 62
    0
370
   -1
100
AcDbLine
 10
278.441
 20
40.7829
 11
278.441
 21
41.9834
  0
LINE
  5
12B
100
AcDbEntity
  8
0
  6
ByLayer
 62
    0
370
   -1
100
AcDbLine
 10
278.441
 20
41.9834
 11
280.165
 21
41.9834
  0
LINE
  5
12C
100
AcDbEntity
  8
0
  6
ByLayer
 62
    0
370
   -1
100
AcDbLine
 10
280.165
 20
41.9834
 11
280.165
 21
48.2533
  0
LINE
  5
12D
100
AcDbEntity
  8
0
  6
ByLayer
 62
    0
370
   -1
100
AcDbLine
 10
280.165
 20
48.2533
 11
280.99
 21
48.2533
  0
LINE
  5
12E
100
AcDbEntity
  8
0
  6
ByLayer
 62
    0
370
   -1
100
AcDbLine
 10
280.99
 20
48.2533
 11
280.99
 21
51.0536
  0
LINE
  5
12F
100
AcDbEntity
  8
0
  6
ByLayer
 62
    0
370
   -1
100
AcDbLine
 10
280.99
 20
51.0536
 11
280.165
 21
51.0536
  0
LINE
  5
130
100
AcDbEntity
  8
0
  6
ByLayer
 62
    0
370
   -1
100
AcDbLine
 10
280.165
 20
51.0536
 11
280.165
 21
54.2837
  0
LINE
  5
131
100
AcDbEntity
  8
0
  6
ByLayer
 62
    0
370
   -1
100
AcDbLine
 10
280.165
 20
54.2837
 11
273.415
 21
54.2837
  0
LINE
  5
132
100
AcDbEntity
  8
0
  6
ByLayer
 62
    0
370
   -1
100
AcDbLine
 10
273.415
 20
54.2837
 11
273.415
 21
51.0536
  0
LINE
  5
133
100
AcDbEntity
  8
0
  6
ByLayer
 62
    0
370
   -1
100
AcDbLine
 10
273.415
 20
51.0536
 11
271.891
 21
51.0536
  0
LINE
  5
134
100
AcDbEntity
  8
0
  6
ByLayer
 62
    0
370
   -1
100
AcDbLine
 10
271.891
 20
51.0536
 11
271.891
 21
55.7526
  0
LINE
  5
135
100
AcDbEntity
  8
0
  6
ByLayer
 62
    0
370
   -1
100
AcDbLine
 10
271.891
 20
55.7526
 11
257.89
 21
55.7526
  0
LINE
  5
136
100
AcDbEntity
  8
0
  6
ByLayer
 62
    0
370
   -1
100
AcDbLine
 10
10.2402
 20
55.7526
 11
24.2411
 21
55.7526
  0
LINE
  5
137
100
AcDbEntity
  8
0
  6
ByLayer
 62
    0
370
   -1
100
AcDbLine
 10
24.2411
 20
55.7526
 11
24.2411
 21
41.753
  0
LINE
  5
138
100
AcDbEntity
  8
0
  6
ByLayer
 62
    0
370
   -1
100
AcDbLine
 10
24.2411
 20
41.753
 11
10.2402
 21
41.753
  0
LINE
  5
139
100
AcDbEntity
  8
0
  6
ByLayer
 62
    0
370
   -1
100
AcDbLine
 10
10.2402
 20
41.753
 11
10.2402
 21
55.7526
  0
LINE
  5
13A
100
AcDbEntity
  8
0
  6
ByLayer
 62
    0
370
   -1
100
AcDbLine
 10
36.4338
 20
55.7526
 11
50.4349
 21
55.7526
  0
LINE
  5
13B
100
AcDbEntity
  8
0
  6
ByLayer
 62
    0
370
   -1
100
AcDbLine
 10
50.4349
 20
55.7526
 11
50.4349
 21
41.753
  0
LINE
  5
13C
100
AcDbEntity
  8
0
  6
ByLayer
 62
    0
370
   -1
100
AcDbLine
 10
50.4349
 20
41.753
 11
36.4338
 21
41.753
  0
LINE
  5
13D
100
AcDbEntity
  8
0
  6
ByLayer
 62
    0
370
   -1
100
AcDbLine
 10
36.4338
 20
41.753
 11
36.4338
 21
55.7526
  0
LINE
  5
13E
100
AcDbEntity
  8
0
  6
ByLayer
 62
    0
370
   -1
100
AcDbLine
 10
55.4838
 20
55.7526
 11
69.4849
 21
55.7526
  0
LINE
  5
13F
100
AcDbEntity
  8
0
  6
ByLayer
 62
    0
370
   -1
100
AcDbLine
 10
69.4849
 20
55.7526
 11
69.4849
 21
41.753
  0
LINE
  5
140
100
AcDbEntity
  8
0
  6
ByLayer
 62
    0
370
   -1
100
AcDbLine
 10
69.4849
 20
41.753
 11
55.4838
 21
41.753
  0
LINE
  5
141
100
AcDbEntity
  8
0
  6
ByLayer
 62
    0
370
   -1
100
AcDbLine
 10
55.4838
 20
41.753
 11
55.4838
 21
55.7526
  0
LINE
  5
142
100
AcDbEntity
  8
0
  6
ByLayer
 62
    0
370
   -1
100
AcDbLine
 10
74.5338
 20
55.7526
 11
88.53489999999999
 21
55.7526
  0
LINE
  5
143
100
AcDbEntity
  8
0
  6
ByLayer
 62
    0
370
   -1
100
AcDbLine
 10
88.53489999999999
 20
55.7526
 11
88.53489999999999
 21
41.753
  0
LINE
  5
144
100
AcDbEntity
  8
0
  6
ByLayer
 62
    0
370
   -1
100
AcDbLine
 10
88.53489999999999
 20
41.753
 11
74.5338
 21
41.753
  0
LINE
  5
145
100
AcDbEntity
  8
0
  6
ByLayer
 62
    0
370
   -1
100
AcDbLine
 10
74.5338
 20
41.753
 11
74.5338
 21
55.7526
  0
LINE
  5
146
100
AcDbEntity
  8
0
  6
ByLayer
 62
    0
370
   -1
100
AcDbLine
 10
93.5838
 20
55.7526
 11
107.585
 21
55.7526
  0
LINE
  5
147
100
AcDbEntity
  8
0
  6
ByLayer
 62
    0
370
   -1
100
AcDbLine
 10
107.585
 20
55.7526
 11
107.585
 21
41.753
  0
LINE
  5
148
100
AcDbEntity
  8
0
  6
ByLayer
 62
    0
370
   -1
100
AcDbLine
 10
107.585
 20
41.753
 11
93.5838
 21
41.753
  0
LINE
  5
149
100
AcDbEntity
  8
0
  6
ByLayer
 62
    0
370
   -1
100
AcDbLine
 10
93.5838
 20
41.753
 11
93.5838
 21
55.7526
  0
LINE
  5
14A
100
AcDbEntity
  8
0
  6
ByLayer
 62
    0
370
   -1
100
AcDbLine
 10
112.634
 20
55.7526
 11
126.635
 21
55.7526
  0
LINE
  5
14B
100
AcDbEntity
  8
0
  6
ByLayer
 62
    0
370
   -1
100
AcDbLine
 10
126.635
 20
55.7526
 11
126.635
 21
41.753
  0
LINE
  5
14C
100
AcDbEntity
  8
0
  6
ByLayer
 62
    0
370
   -1
100
AcDbLine
 10
126.635
 20
41.753
 11
112.634
 21
41.753
  0
LINE
  5
14D
100
AcDbEntity
  8
0
  6
ByLayer
 62
    0
370
   -1
100
AcDbLine
 10
112.634
 20
41.753
 11
112.634
 21
55.7526
  0
LINE
  5
14E
100
AcDbEntity
  8
0
  6
ByLayer
 62
    0
370
   -1
100
AcDbLine
 10
131.684
 20
55.7526
 11
145.685
 21
55.7526
  0
LINE
  5
14F
100
AcDbEntity
  8
0
  6
ByLayer
 62
    0
370
   -1
100
AcDbLine
 10
145.685
 20
55.7526
 11
145.685
 21
41.753
  0
LINE
  5
150
100
AcDbEntity
  8
0
  6
ByLayer
 62
    0
370
   -1
100
AcDbLine
 10
145.685
 20
41.753
 11
131.684
 21
41.753
  0
LINE
  5
151
100
AcDbEntity
  8
0
  6
ByLayer
 62
    0
370
   -1
100
AcDbLine
 10
131.684
 20
41.753
 11
131.684
 21
55.7526
  0
LINE
  5
152
100
AcDbEntity
  8
0
  6
ByLayer
 62
    0
370
   -1
100
AcDbLine
 10
150.734
 20
55.7526
 11
164.735
 21
55.7526
  0
LINE
  5
153
100
AcDbEntity
  8
0
  6
ByLayer
 62
    0
370
   -1
100
AcDbLine
 10
164.735
 20
55.7526
 11
164.735
 21
41.753
  0
LINE
  5
154
100
AcDbEntity
  8
0
  6
ByLayer
 62
    0
370
   -1
100
AcDbLine
 10
164.735
 20
41.753
 11
150.734
 21
41.753
  0
LINE
  5
155
100
AcDbEntity
  8
0
  6
ByLayer
 62
    0
370
   -1
100
AcDbLine
 10
150.734
 20
41.753
 11
150.734
 21
55.7526
  0
LINE
  5
156
100
AcDbEntity
  8
0
  6
ByLayer
 62
    0
370
   -1
100
AcDbLine
 10
169.784
 20
55.7526
 11
183.785
 21
55.7526
  0
LINE
  5
157
100
AcDbEntity
  8
0
  6
ByLayer
 62
    0
370
   -1
100
AcDbLine
 10
183.785
 20
55.7526
 11
183.785
 21
41.753
  0
LINE
  5
158
100
AcDbEntity
  8
0
  6
ByLayer
 62
    0
370
   -1
100
AcDbLine
 10
183.785
 20
41.753
 11
169.784
 21
41.753
  0
LINE
  5
159
100
AcDbEntity
  8
0
  6
ByLayer
 62
    0
370
   -1
100
AcDbLine
 10
169.784
 20
41.753
 11
169.784
 21
55.7526
  0
LINE
  5
15A
100
AcDbEntity
  8
0
  6
ByLayer
 62
    0
370
   -1
100
AcDbLine
 10
188.834
 20
55.7526
 11
202.835
 21
55.7526
  0
LINE
  5
15B
100
AcDbEntity
  8
0
  6
ByLayer
 62
    0
370
   -1
100
AcDbLine
 10
202.835
 20
55.7526
 11
202.835
 21
41.753
  0
LINE
  5
15C
100
AcDbEntity
  8
0
  6
ByLayer
 62
    0
370
   -1
100
AcDbLine
 10
202.835
 20
41.753
 11
188.834
 21
41.753
  0
LINE
  5
15D
100
AcDbEntity
  8
0
  6
ByLayer
 62
    0
370
   -1
100
AcDbLine
 10
188.834
 20
41.753
 11
188.834
 21
55.7526
  0
LINE
  5
15E
100
AcDbEntity
  8
0
  6
ByLayer
 62
    0
370
   -1
100
AcDbLine
 10
207.884
 20
55.7526
 11
221.885
 21
55.7526
  0
LINE
  5
15F
100
AcDbEntity
  8
0
  6
ByLayer
 62
    0
370
   -1
100
AcDbLine
 10
221.885
 20
55.7526
 11
221.885
 21
41.753
  0
LINE
  5
160
100
AcDbEntity
  8
0
  6
ByLayer
 62
    0
370
   -1
100
AcDbLine
 10
221.885
 20
41.753
 11
207.884
 21
41.753
  0
LINE
  5
161
100
AcDbEntity
  8
0
  6
ByLayer
 62
    0
370
   -1
100
AcDbLine
 10
207.884
 20
41.753
 11
207.884
 21
55.7526
  0
LINE
  5
162
100
AcDbEntity
  8
0
  6
ByLayer
 62
    0
370
   -1
100
AcDbLine
 10
226.934
 20
55.7526
 11
240.935
 21
55.7526
  0
LINE
  5
163
100
AcDbEntity
  8
0
  6
ByLayer
 62
    0
370
   -1
100
AcDbLine
 10
240.935
 20
55.7526
 11
240.935
 21
41.753
  0
LINE
  5
164
100
AcDbEntity
  8
0
  6
ByLayer
 62
    0
370
   -1
100
AcDbLine
 10
240.935
 20
41.753
 11
226.934
 21
41.753
  0
LINE
  5
165
100
AcDbEntity
  8
0
  6
ByLayer
 62
    0
370
   -1
100
AcDbLine
 10
226.934
 20
41.753
 11
226.934
 21
55.7526
  0
LINE
  5
166
100
AcDbEntity
  8
0
  6
ByLayer
 62
    0
370
   -1
100
AcDbLine
 10
7.85894
 20
74.8026
 11
21.8598
 21
74.8026
  0
LINE
  5
167
100
AcDbEntity
  8
0
  6
ByLayer
 62
    0
370
   -1
100
AcDbLine
 10
21.8598
 20
74.8026
 11
21.8598
 21
60.803
  0
LINE
  5
168
100
AcDbEntity
  8
0
  6
ByLayer
 62
    0
370
   -1
100
AcDbLine
 10
21.8598
 20
60.803
 11
7.85894
 21
60.803
  0
LINE
  5
169
100
AcDbEntity
  8
0
  6
ByLayer
 62
    0
370
   -1
100
AcDbLine
 10
7.85894
 20
60.803
 11
7.85894
 21
74.8026
  0
LINE
  5
16A
100
AcDbEntity
  8
0
  6
ByLayer
 62
    0
370
   -1
100
AcDbLine
 10
31.6714
 20
74.8026
 11
45.671
 21
74.8026
  0
LINE
  5
16B
100
AcDbEntity
  8
0
  6
ByLayer
 62
    0
370
   -1
100
AcDbLine
 10
45.671
 20
74.8026
 11
45.671
 21
60.803
  0
LINE
  5
16C
100
AcDbEntity
  8
0
  6
ByLayer
 62
    0
370
   -1
100
AcDbLine
 10
45.671
 20
60.803
 11
31.6714
 21
60.803
  0
LINE
  5
16D
100
AcDbEntity
  8
0
  6
ByLayer
 62
    0
370
   -1
100
AcDbLine
 10
31.6714
 20
60.803
 11
31.6714
 21
74.8026
  0
LINE
  5
16E
100
AcDbEntity
  8
0
  6
ByLayer
 62
    0
370
   -1
100
AcDbLine
 10
50.7213
 20
74.8026
 11
64.721
 21
74.8026
  0
LINE
  5
16F
100
AcDbEntity
  8
0
  6
ByLayer
 62
    0
370
   -1
100
AcDbLine
 10
64.721
 20
74.8026
 11
64.721
 21
60.803
  0
LINE
  5
170
100
AcDbEntity
  8
0
  6
ByLayer
 62
    0
370
   -1
100
AcDbLine
 10
64.721
 20
60.803
 11
50.7213
 21
60.803
  0
LINE
  5
171
100
AcDbEntity
  8
0
  6
ByLayer
 62
    0
370
   -1
100
AcDbLine
 10
50.7213
 20
60.803
 11
50.7213
 21
74.8026
  0
LINE
  5
172
100
AcDbEntity
  8
0
  6
ByLayer
 62
    0
370
   -1
100
AcDbLine
 10
69.7713
 20
74.8026
 11
83.771
 21
74.8026
  0
LINE
  5
173
100
AcDbEntity
  8
0
  6
ByLayer
 62
    0
370
   -1
100
AcDbLine
 10
83.771
 20
74.8026
 11
83.771
 21
60.803
  0
LINE
  5
174
100
AcDbEntity
  8
0
  6
ByLayer
 62
    0
370
   -1
100
AcDbLine
 10
83.771
 20
60.803
 11
69.7713
 21
60.803
  0
LINE
  5
175
100
AcDbEntity
  8
0
  6
ByLayer
 62
    0
370
   -1
100
AcDbLine
 10
69.7713
 20
60.803
 11
69.7713
 21
74.8026
  0
LINE
  5
176
100
AcDbEntity
  8
0
  6
ByLayer
 62
    0
370
   -1
100
AcDbLine
 10
88.82129999999999
 20
74.8026
 11
102.821
 21
74.8026
  0
LINE
  5
177
100
AcDbEntity
  8
0
  6
ByLayer
 62
    0
370
   -1
100
AcDbLine
 10
102.821
 20
74.8026
 11
102.821
 21
60.803
  0
LINE
  5
178
100
AcDbEntity
  8
0
  6
ByLayer
 62
    0
370
   -1
100
AcDbLine
 10
102.821
 20
60.803
 11
88.82129999999999
 21
60.803
  0
LINE
  5
179
100
AcDbEntity
  8
0
  6
ByLayer
 62
    0
370
   -1
100
AcDbLine
 10
88.82129999999999
 20
60.803
 11
88.82129999999999
 21
74.8026
  0
LINE
  5
17A
100
AcDbEntity
  8
0
  6
ByLayer
 62
    0
370
   -1
100
AcDbLine
 10
107.871
 20
74.8026
 11
121.871
 21
74.8026
  0
LINE
  5
17B
100
AcDbEntity
  8
0
  6
ByLayer
 62
    0
370
   -1
100
AcDbLine
 10
121.871
 20
74.8026
 11
121.871
 21
60.803
  0
LINE
  5
17C
100
AcDbEntity
  8
0
  6
ByLayer
 62
    0
370
   -1
100
AcDbLine
 10
121.871
 20
60.803
 11
107.871
 21
60.803
  0
LINE
  5
17D
100
AcDbEntity
  8
0
  6
ByLayer
 62
    0
370
   -1
100
AcDbLine
 10
107.871
 20
60.803
 11
107.871
 21
74.8026
  0
LINE
  5
17E
100
AcDbEntity
  8
0
  6
ByLayer
 62
    0
370
   -1
100
AcDbLine
 10
126.921
 20
74.8026
 11
140.921
 21
74.8026
  0
LINE
  5
17F
100
AcDbEntity
  8
0
  6
ByLayer
 62
    0
370
   -1
100
AcDbLine
 10
140.921
 20
74.8026
 11
140.921
 21
60.803
  0
LINE
  5
180
100
AcDbEntity
  8
0
  6
ByLayer
 62
    0
370
   -1
100
AcDbLine
 10
140.921
 20
60.803
 11
126.921
 21
60.803
  0
LINE
  5
181
100
AcDbEntity
  8
0
  6
ByLayer
 62
    0
370
   -1
100
AcDbLine
 10
126.921
 20
60.803
 11
126.921
 21
74.8026
  0
LINE
  5
182
100
AcDbEntity
  8
0
  6
ByLayer
 62
    0
370
   -1
100
AcDbLine
 10
145.971
 20
74.8026
 11
159.971
 21
74.8026
  0
LINE
  5
183
100
AcDbEntity
  8
0
  6
ByLayer
 62
    0
370
   -1
100
AcDbLine
 10
159.971
 20
74.8026
 11
159.971
 21
60.803
  0
LINE
  5
184
100
AcDbEntity
  8
0
  6
ByLayer
 62
    0
370
   -1
100
AcDbLine
 10
159.971
 20
60.803
 11
145.971
 21
60.803
  0
LINE
  5
185
100
AcDbEntity
  8
0
  6
ByLayer
 62
    0
370
   -1
100
AcDbLine
 10
145.971
 20
60.803
 11
145.971
 21
74.8026
  0
LINE
  5
186
100
AcDbEntity
  8
0
  6
ByLayer
 62
    0
370
   -1
100
AcDbLine
 10
165.021
 20
74.8026
 11
179.021
 21
74.8026
  0
LINE
  5
187
100
AcDbEntity
  8
0
  6
ByLayer
 62
    0
370
   -1
100
AcDbLine
 10
179.021
 20
74.8026
 11
179.021
 21
60.803
  0
LINE
  5
188
100
AcDbEntity
  8
0
  6
ByLayer
 62
    0
370
   -1
100
AcDbLine
 10
179.021
 20
60.803
 11
165.021
 21
60.803
  0
LINE
  5
189
100
AcDbEntity
  8
0
  6
ByLayer
 62
    0
370
   -1
100
AcDbLine
 10
165.021
 20
60.803
 11
165.021
 21
74.8026
  0
LINE
  5
18A
100
AcDbEntity
  8
0
  6
ByLayer
 62
    0
370
   -1
100
AcDbLine
 10
184.071
 20
74.8026
 11
198.071
 21
74.8026
  0
LINE
  5
18B
100
AcDbEntity
  8
0
  6
ByLayer
 62
    0
370
   -1
100
AcDbLine
 10
198.071
 20
74.8026
 11
198.071
 21
60.803
  0
LINE
  5
18C
100
AcDbEntity
  8
0
  6
ByLayer
 62
    0
370
   -1
100
AcDbLine
 10
198.071
 20
60.803
 11
184.071
 21
60.803
  0
LINE
  5
18D
100
AcDbEntity
  8
0
  6
ByLayer
 62
    0
370
   -1
100
AcDbLine
 10
184.071
 20
60.803
 11
184.071
 21
74.8026
  0
LINE
  5
18E
100
AcDbEntity
  8
0
  6
ByLayer
 62
    0
370
   -1
100
AcDbLine
 10
203.121
 20
74.8026
 11
217.121
 21
74.8026
  0
LINE
  5
18F
100
AcDbEntity
  8
0
  6
ByLayer
 62
    0
370
   -1
100
AcDbLine
 10
217.121
 20
74.8026
 11
217.121
 21
60.803
  0
LINE
  5
190
100
AcDbEntity
  8
0
  6
ByLayer
 62
    0
370
   -1
100
AcDbLine
 10
217.121
 20
60.803
 11
203.121
 21
60.803
  0
LINE
  5
191
100
AcDbEntity
  8
0
  6
ByLayer
 62
    0
370
   -1
100
AcDbLine
 10
203.121
 20
60.803
 11
203.121
 21
74.8026
  0
LINE
  5
192
100
AcDbEntity
  8
0
  6
ByLayer
 62
    0
370
   -1
100
AcDbLine
 10
222.171
 20
74.8026
 11
236.171
 21
74.8026
  0
LINE
  5
193
100
AcDbEntity
  8
0
  6
ByLayer
 62
    0
370
   -1
100
AcDbLine
 10
236.171
 20
74.8026
 11
236.171
 21
60.803
  0
LINE
  5
194
100
AcDbEntity
  8
0
  6
ByLayer
 62
    0
370
   -1
100
AcDbLine
 10
236.171
 20
60.803
 11
222.171
 21
60.803
  0
LINE
  5
195
100
AcDbEntity
  8
0
  6
ByLayer
 62
    0
370
   -1
100
AcDbLine
 10
222.171
 20
60.803
 11
222.171
 21
74.8026
  0
LINE
  5
196
100
AcDbEntity
  8
0
  6
ByLayer
 62
    0
370
   -1
100
AcDbLine
 10
241.221
 20
74.8026
 11
255.221
 21
74.8026
  0
LINE
  5
197
100
AcDbEntity
  8
0
  6
ByLayer
 62
    0
370
   -1
100
AcDbLine
 10
255.221
 20
74.8026
 11
255.221
 21
60.803
  0
LINE
  5
198
100
AcDbEntity
  8
0
  6
ByLayer
 62
    0
370
   -1
100
AcDbLine
 10
255.221
 20
60.803
 11
241.221
 21
60.803
  0
LINE
  5
199
100
AcDbEntity
  8
0
  6
ByLayer
 62
    0
370
   -1
100
AcDbLine
 10
241.221
 20
60.803
 11
241.221
 21
74.8026
  0
LINE
  5
19A
100
AcDbEntity
  8
0
  6
ByLayer
 62
    0
370
   -1
100
AcDbLine
 10
265.034
 20
74.8026
 11
279.035
 21
74.8026
  0
LINE
  5
19B
100
AcDbEntity
  8
0
  6
ByLayer
 62
    0
370
   -1
100
AcDbLine
 10
279.035
 20
74.8026
 11
279.035
 21
60.803
  0
LINE
  5
19C
100
AcDbEntity
  8
0
  6
ByLayer
 62
    0
370
   -1
100
AcDbLine
 10
279.035
 20
60.803
 11
265.034
 21
60.803
  0
LINE
  5
19D
100
AcDbEntity
  8
0
  6
ByLayer
 62
    0
370
   -1
100
AcDbLine
 10
265.034
 20
60.803
 11
265.034
 21
74.8026
  0
LINE
  5
19E
100
AcDbEntity
  8
0
  6
ByLayer
 62
    0
370
   -1
100
AcDbLine
 10
293.609
 20
74.8026
 11
307.61
 21
74.8026
  0
LINE
  5
19F
100
AcDbEntity
  8
0
  6
ByLayer
 62
    0
370
   -1
100
AcDbLine
 10
307.61
 20
74.8026
 11
307.61
 21
60.803
  0
LINE
  5
1A0
100
AcDbEntity
  8
0
  6
ByLayer
 62
    0
370
   -1
100
AcDbLine
 10
307.61
 20
60.803
 11
293.609
 21
60.803
  0
LINE
  5
1A1
100
AcDbEntity
  8
0
  6
ByLayer
 62
    0
370
   -1
100
AcDbLine
 10
293.609
 20
60.803
 11
293.609
 21
74.8026
  0
LINE
  5
1A2
100
AcDbEntity
  8
0
  6
ByLayer
 62
    0
370
   -1
100
AcDbLine
 10
312.659
 20
74.8026
 11
326.66
 21
74.8026
  0
LINE
  5
1A3
100
AcDbEntity
  8
0
  6
ByLayer
 62
    0
370
   -1
100
AcDbLine
 10
326.66
 20
74.8026
 11
326.66
 21
60.803
  0
LINE
  5
1A4
100
AcDbEntity
  8
0
  6
ByLayer
 62
    0
370
   -1
100
AcDbLine
 10
326.66
 20
60.803
 11
312.659
 21
60.803
  0
LINE
  5
1A5
100
AcDbEntity
  8
0
  6
ByLayer
 62
    0
370
   -1
100
AcDbLine
 10
312.659
 20
60.803
 11
312.659
 21
74.8026
  0
LINE
  5
1A6
100
AcDbEntity
  8
0
  6
ByLayer
 62
    0
370
   -1
100
AcDbLine
 10
331.709
 20
74.8026
 11
345.71
 21
74.8026
  0
LINE
  5
1A7
100
AcDbEntity
  8
0
  6
ByLayer
 62
    0
370
   -1
100
AcDbLine
 10
345.71
 20
74.8026
 11
345.71
 21
60.803
  0
LINE
  5
1A8
100
AcDbEntity
  8
0
  6
ByLayer
 62
    0
370
   -1
100
AcDbLine
 10
345.71
 20
60.803
 11
331.709
 21
60.803
  0
LINE
  5
1A9
100
AcDbEntity
  8
0
  6
ByLayer
 62
    0
370
   -1
100
AcDbLine
 10
331.709
 20
60.803
 11
331.709
 21
74.8026
  0
LINE
  5
1AA
100
AcDbEntity
  8
0
  6
ByLayer
 62
    0
370
   -1
100
AcDbLine
 10
260.271
 20
93.8526
 11
260.271
 21
89.1536
  0
LINE
  5
1AB
100
AcDbEntity
  8
0
  6
ByLayer
 62
    0
370
   -1
100
AcDbLine
 10
260.271
 20
89.1536
 11
258.746
 21
89.1536
  0
LINE
  5
1AC
100
AcDbEntity
  8
0
  6
ByLayer
 62
    0
370
   -1
100
AcDbLine
 10
258.746
 20
89.1536
 11
258.746
 21
92.3837
  0
LINE
  5
1AD
100
AcDbEntity
  8
0
  6
ByLayer
 62
    0
370
   -1
100
AcDbLine
 10
258.746
 20
92.3837
 11
251.996
 21
92.3837
  0
LINE
  5
1AE
100
AcDbEntity
  8
0
  6
ByLayer
 62
    0
370
   -1
100
AcDbLine
 10
251.996
 20
92.3837
 11
251.996
 21
89.1536
  0
LINE
  5
1AF
100
AcDbEntity
  8
0
  6
ByLayer
 62
    0
370
   -1
100
AcDbLine
 10
251.996
 20
89.1536
 11
251.171
 21
89.1536
  0
LINE
  5
1B0
100
AcDbEntity
  8
0
  6
ByLayer
 62
    0
370
   -1
100
AcDbLine
 10
251.171
 20
89.1536
 11
251.171
 21
86.3533
  0
LINE
  5
1B1
100
AcDbEntity
  8
0
  6
ByLayer
 62
    0
370
   -1
100
AcDbLine
 10
251.171
 20
86.3533
 11
251.996
 21
86.3533
  0
LINE
  5
1B2
100
AcDbEntity
  8
0
  6
ByLayer
 62
    0
370
   -1
100
AcDbLine
 10
251.996
 20
86.3533
 11
251.996
 21
80.0834
  0
LINE
  5
1B3
100
AcDbEntity
  8
0
  6
ByLayer
 62
    0
370
   -1
100
AcDbLine
 10
251.996
 20
80.0834
 11
253.722
 21
80.0834
  0
LINE
  5
1B4
100
AcDbEntity
  8
0
  6
ByLayer
 62
    0
370
   -1
100
AcDbLine
 10
253.722
 20
80.0834
 11
253.722
 21
78.88290000000001
  0
LINE
  5
1B5
100
AcDbEntity
  8
0
  6
ByLayer
 62
    0
370
   -1
100
AcDbLine
 10
253.722
 20
78.88290000000001
 11
257.022
 21
78.88290000000001
  0
LINE
  5
1B6
100
AcDbEntity
  8
0
  6
ByLayer
 62
    0
370
   -1
100
AcDbLine
 10
257.022
 20
78.88290000000001
 11
257.022
 21
80.0834
  0
LINE
  5
1B7
100
AcDbEntity
  8
0
  6
ByLayer
 62
    0
370
   -1
100
AcDbLine
 10
257.022
 20
80.0834
 11
258.746
 21
80.0834
  0
LINE
  5
1B8
100
AcDbEntity
  8
0
  6
ByLayer
 62
    0
370
   -1
100
AcDbLine
 10
258.746
 20
80.0834
 11
258.746
 21
84.5538
  0
LINE
  5
1B9
100
AcDbEntity
  8
0
  6
ByLayer
 62
    0
370
   -1
100
AcDbLine
 10
258.746
 20
84.5538
 11
260.271
 21
84.5538
  0
LINE
  5
1BA
100
AcDbEntity
  8
0
  6
ByLayer
 62
    0
370
   -1
100
AcDbLine
 10
260.271
 20
84.5538
 11
260.271
 21
79.85299999999999
  0
LINE
  5
1BB
100
AcDbEntity
  8
0
  6
ByLayer
 62
    0
370
   -1
100
AcDbLine
 10
260.271
 20
79.85299999999999
 11
274.271
 21
79.85299999999999
  0
LINE
  5
1BC
100
AcDbEntity
  8
0
  6
ByLayer
 62
    0
370
   -1
100
AcDbLine
 10
274.271
 20
79.85299999999999
 11
274.271
 21
84.5538
  0
LINE
  5
1BD
100
AcDbEntity
  8
0
  6
ByLayer
 62
    0
370
   -1
100
AcDbLine
 10
274.271
 20
84.5538
 11
275.796
 21
84.5538
  0
LINE
  5
1BE
100
AcDbEntity
  8
0
  6
ByLayer
 62
    0
370
   -1
100
AcDbLine
 10
275.796
 20
84.5538
 11
275.796
 21
80.0834
  0
LINE
  5
1BF
100
AcDbEntity
  8
0
  6
ByLayer
 62
    0
370
   -1
100
AcDbLine
 10
275.796
 20
80.0834
 11
277.522
 21
80.0834
  0
LINE
  5
1C0
100
AcDbEntity
  8
0
  6
ByLayer
 62
    0
370
   -1
100
AcDbLine
 10
277.522
 20
80.0834
 11
277.522
 21
78.88290000000001
  0
LINE
  5
1C1
100
AcDbEntity
  8
0
  6
ByLayer
 62
    0
370
   -1
100
AcDbLine
 10
277.522
 20
78.88290000000001
 11
280.822
 21
78.88290000000001
  0
LINE
  5
1C2
100
AcDbEntity
  8
0
  6
ByLayer
 62
    0
370
   -1
100
AcDbLine
 10
280.822
 20
78.88290000000001
 11
280.822
 21
80.0834
  0
LINE
  5
1C3
100
AcDbEntity
  8
0
  6
ByLayer
 62
    0
370
   -1
100
AcDbLine
 10
280.822
 20
80.0834
 11
282.546
 21
80.0834
  0
LINE
  5
1C4
100
AcDbEntity
  8
0
  6
ByLayer
 62
    0
370
   -1
100
AcDbLine
 10
282.546
 20
80.0834
 11
282.546
 21
86.3533
  0
LINE
  5
1C5
100
AcDbEntity
  8
0
  6
ByLayer
 62
    0
370
   -1
100
AcDbLine
 10
282.546
 20
86.3533
 11
283.372
 21
86.3533
  0
LINE
  5
1C6
100
AcDbEntity
  8
0
  6
ByLayer
 62
    0
370
   -1
100
AcDbLine
 10
283.372
 20
86.3533
 11
283.372
 21
89.1536
  0
LINE
  5
1C7
100
AcDbEntity
  8
0
  6
ByLayer
 62
    0
370
   -1
100
AcDbLine
 10
283.372
 20
89.1536
 11
282.546
 21
89.1536
  0
LINE
  5
1C8
100
AcDbEntity
  8
0
  6
ByLayer
 62
    0
370
   -1
100
AcDbLine
 10
282.546
 20
89.1536
 11
282.546
 21
92.3837
  0
LINE
  5
1C9
100
AcDbEntity
  8
0
  6
ByLayer
 62
    0
370
   -1
100
AcDbLine
 10
282.546
 20
92.3837
 11
275.796
 21
92.3837
  0
LINE
  5
1CA
100
AcDbEntity
  8
0
  6
ByLayer
 62
    0
370
   -1
100
AcDbLine
 10
275.796
 20
92.3837
 11
275.796
 21
89.1536
  0
LINE
  5
1CB
100
AcDbEntity
  8
0
  6
ByLayer
 62
    0
370
   -1
100
AcDbLine
 10
275.796
 20
89.1536
 11
274.271
 21
89.1536
  0
LINE
  5
1CC
100
AcDbEntity
  8
0
  6
ByLayer
 62
    0
370
   -1
100
AcDbLine
 10
274.271
 20
89.1536
 11
274.271
 21
93.8526
  0
LINE
  5
1CD
100
AcDbEntity
  8
0
  6
ByLayer
 62
    0
370
   -1
100
AcDbLine
 10
274.271
 20
93.8526
 11
260.271
 21
93.8526
  0
LINE
  5
1CE
100
AcDbEntity
  8
0
  6
ByLayer
 62
    0
370
   -1
100
AcDbLine
 10
3.09645
 20
93.8526
 11
17.0959
 21
93.8526
  0
LINE
  5
1CF
100
AcDbEntity
  8
0
  6
ByLayer
 62
    0
370
   -1
100
AcDbLine
 10
17.0959
 20
93.8526
 11
17.0959
 21
79.85299999999999
  0
LINE
  5
1D0
100
AcDbEntity
  8
0
  6
ByLayer
 62
    0
370
   -1
100
AcDbLine
 10
17.0959
 20
79.85299999999999
 11
3.09645
 21
79.85299999999999
  0
LINE
  5
1D1
100
AcDbEntity
  8
0
  6
ByLayer
 62
    0
370
   -1
100
AcDbLine
 10
3.09645
 20
79.85299999999999
 11
3.09645
 21
93.8526
  0
LINE
  5
1D2
100
AcDbEntity
  8
0
  6
ByLayer
 62
    0
370
   -1
100
AcDbLine
 10
22.1464
 20
93.8526
 11
36.146
 21
93.8526
  0
LINE
  5
1D3
100
AcDbEntity
  8
0
  6
ByLayer
 62
    0
370
   -1
100
AcDbLine
 10
36.146
 20
93.8526
 11
36.146
 21
79.85299999999999
  0
LINE
  5
1D4
100
AcDbEntity
  8
0
  6
ByLayer
 62
    0
370
   -1
100
AcDbLine
 10
36.146
 20
79.85299999999999
 11
22.1464
 21
79.85299999999999
  0
LINE
  5
1D5
100
AcDbEntity
  8
0
  6
ByLayer
 62
    0
370
   -1
100
AcDbLine
 10
22.1464
 20
79.85299999999999
 11
22.1464
 21
93.8526
  0
LINE
  5
1D6
100
AcDbEntity
  8
0
  6
ByLayer
 62
    0
370
   -1
100
AcDbLine
 10
41.1963
 20
93.8526
 11
55.196
 21
93.8526
  0
LINE
  5
1D7
100
AcDbEntity
  8
0
  6
ByLayer
 62
    0
370
   -1
100
AcDbLine
 10
55.196
 20
93.8526
 11
55.196
 21
79.85299999999999
  0
LINE
  5
1D8
100
AcDbEntity
  8
0
  6
ByLayer
 62
    0
370
   -1
100
AcDbLine
 10
55.196
 20
79.85299999999999
 11
41.1963
 21
79.85299999999999
  0
LINE
  5
1D9
100
AcDbEntity
  8
0
  6
ByLayer
 62
    0
370
   -1
100
AcDbLine
 10
41.1963
 20
79.85299999999999
 11
41.1963
 21
93.8526
  0
LINE
  5
1DA
100
AcDbEntity
  8
0
  6
ByLayer
 62
    0
370
   -1
100
AcDbLine
 10
60.2463
 20
93.8526
 11
74.246
 21
93.8526
  0
LINE
  5
1DB
100
AcDbEntity
  8
0
  6
ByLayer
 62
    0
370
   -1
100
AcDbLine
 10
74.246
 20
93.8526
 11
74.246
 21
79.85299999999999
  0
LINE
  5
1DC
100
AcDbEntity
  8
0
  6
ByLayer
 62
    0
370
   -1
100
AcDbLine
 10
74.246
 20
79.85299999999999
 11
60.2463
 21
79.85299999999999
  0
LINE
  5
1DD
100
AcDbEntity
  8
0
  6
ByLayer
 62
    0
370
   -1
100
AcDbLine
 10
60.2463
 20
79.85299999999999
 11
60.2463
 21
93.8526
  0
LINE
  5
1DE
100
AcDbEntity
  8
0
  6
ByLayer
 62
    0
370
   -1
100
AcDbLine
 10
79.2963
 20
93.8526
 11
93.29600000000001
 21
93.8526
  0
LINE
  5
1DF
100
AcDbEntity
  8
0
  6
ByLayer
 62
    0
370
   -1
100
AcDbLine
 10
93.29600000000001
 20
93.8526
 11
93.29600000000001
 21
79.85299999999999
  0
LINE
  5
1E0
100
AcDbEntity
  8
0
  6
ByLayer
 62
    0
370
   -1
100
AcDbLine
 10
93.29600000000001
 20
79.85299999999999
 11
79.2963
 21
79.85299999999999
  0
LINE
  5
1E1
100
AcDbEntity
  8
0
  6
ByLayer
 62
    0
370
   -1
100
AcDbLine
 10
79.2963
 20
79.85299999999999
 11
79.2963
 21
93.8526
  0
LINE
  5
1E2
100
AcDbEntity
  8
0
  6
ByLayer
 62
    0
370
   -1
100
AcDbLine
 10
98.3463
 20
93.8526
 11
112.346
 21
93.8526
  0
LINE
  5
1E3
100
AcDbEntity
  8
0
  6
ByLayer
 62
    0
370
   -1
100
AcDbLine
 10
112.346
 20
93.8526
 11
112.346
 21
79.85299999999999
  0
LINE
  5
1E4
100
AcDbEntity
  8
0
  6
ByLayer
 62
    0
370
   -1
100
AcDbLine
 10
112.346
 20
79.85299999999999
 11
98.3463
 21
79.85299999999999
  0
LINE
  5
1E5
100
AcDbEntity
  8
0
  6
ByLayer
 62
    0
370
   -1
100
AcDbLine
 10
98.3463
 20
79.85299999999999
 11
98.3463
 21
93.8526
  0
LINE
  5
1E6
100
AcDbEntity
  8
0
  6
ByLayer
 62
    0
370
   -1
100
AcDbLine
 10
117.396
 20
93.8526
 11
131.396
 21
93.8526
  0
LINE
  5
1E7
100
AcDbEntity
  8
0
  6
ByLayer
 62
    0
370
   -1
100
AcDbLine
 10
131.396
 20
93.8526
 11
131.396
 21
79.85299999999999
  0
LINE
  5
1E8
100
AcDbEntity
  8
0
  6
ByLayer
 62
    0
370
   -1
100
AcDbLine
 10
131.396
 20
79.85299999999999
 11
117.396
 21
79.85299999999999
  0
LINE
  5
1E9
100
AcDbEntity
  8
0
  6
ByLayer
 62
    0
370
   -1
100
AcDbLine
 10
117.396
 20
79.85299999999999
 11
117.396
 21
93.8526
  0
LINE
  5
1EA
100
AcDbEntity
  8
0
  6
ByLayer
 62
    0
370
   -1
100
AcDbLine
 10
136.446
 20
93.8526
 11
150.446
 21
93.8526
  0
LINE
  5
1EB
100
AcDbEntity
  8
0
  6
ByLayer
 62
    0
370
   -1
100
AcDbLine
 10
150.446
 20
93.8526
 11
150.446
 21
79.85299999999999
  0
LINE
  5
1EC
100
AcDbEntity
  8
0
  6
ByLayer
 62
    0
370
   -1
100
AcDbLine
 10
150.446
 20
79.85299999999999
 11
136.446
 21
79.85299999999999
  0
LINE
  5
1ED
100
AcDbEntity
  8
0
  6
ByLayer
 62
    0
370
   -1
100
AcDbLine
 10
136.446
 20
79.85299999999999
 11
136.446
 21
93.8526
  0
LINE
  5
1EE
100
AcDbEntity
  8
0
  6
ByLayer
 62
    0
370
   -1
100
AcDbLine
 10
155.496
 20
93.8526
 11
169.496
 21
93.8526
  0
LINE
  5
1EF
100
AcDbEntity
  8
0
  6
ByLayer
 62
    0
370
   -1
100
AcDbLine
 10
169.496
 20
93.8526
 11
169.496
 21
79.85299999999999
  0
LINE
  5
1F0
100
AcDbEntity
  8
0
  6
ByLayer
 62
    0
370
   -1
100
AcDbLine
 10
169.496
 20
79.85299999999999
 11
155.496
 21
79.85299999999999
  0
LINE
  5
1F1
100
AcDbEntity
  8
0
  6
ByLayer
 62
    0
370
   -1
100
AcDbLine
 10
155.496
 20
79.85299999999999
 11
155.496
 21
93.8526
  0
LINE
  5
1F2
100
AcDbEntity
  8
0
  6
ByLayer
 62
    0
370
   -1
100
AcDbLine
 10
174.546
 20
93.8526
 11
188.546
 21
93.8526
  0
LINE
  5
1F3
100
AcDbEntity
  8
0
  6
ByLayer
 62
    0
370
   -1
100
AcDbLine
 10
188.546
 20
93.8526
 11
188.546
 21
79.85299999999999
  0
LINE
  5
1F4
100
AcDbEntity
  8
0
  6
ByLayer
 62
    0
370
   -1
100
AcDbLine
 10
188.546
 20
79.85299999999999
 11
174.546
 21
79.85299999999999
  0
LINE
  5
1F5
100
AcDbEntity
  8
0
  6
ByLayer
 62
    0
370
   -1
100
AcDbLine
 10
174.546
 20
79.85299999999999
 11
174.546
 21
93.8526
  0
LINE
  5
1F6
100
AcDbEntity
  8
0
  6
ByLayer
 62
    0
370
   -1
100
AcDbLine
 10
193.596
 20
93.8526
 11
207.596
 21
93.8526
  0
LINE
  5
1F7
100
AcDbEntity
  8
0
  6
ByLayer
 62
    0
370
   -1
100
AcDbLine
 10
207.596
 20
93.8526
 11
207.596
 21
79.85299999999999
  0
LINE
  5
1F8
100
AcDbEntity
  8
0
  6
ByLayer
 62
    0
370
   -1
100
AcDbLine
 10
207.596
 20
79.85299999999999
 11
193.596
 21
79.85299999999999
  0
LINE
  5
1F9
100
AcDbEntity
  8
0
  6
ByLayer
 62
    0
370
   -1
100
AcDbLine
 10
193.596
 20
79.85299999999999
 11
193.596
 21
93.8526
  0
LINE
  5
1FA
100
AcDbEntity
  8
0
  6
ByLayer
 62
    0
370
   -1
100
AcDbLine
 10
212.646
 20
93.8526
 11
226.646
 21
93.8526
  0
LINE
  5
1FB
100
AcDbEntity
  8
0
  6
ByLayer
 62
    0
370
   -1
100
AcDbLine
 10
226.646
 20
93.8526
 11
226.646
 21
79.85299999999999
  0
LINE
  5
1FC
100
AcDbEntity
  8
0
  6
ByLayer
 62
    0
370
   -1
100
AcDbLine
 10
226.646
 20
79.85299999999999
 11
212.646
 21
79.85299999999999
  0
LINE
  5
1FD
100
AcDbEntity
  8
0
  6
ByLayer
 62
    0
370
   -1
100
AcDbLine
 10
212.646
 20
79.85299999999999
 11
212.646
 21
93.8526
  0
LINE
  5
1FE
100
AcDbEntity
  8
0
  6
ByLayer
 62
    0
370
   -1
100
AcDbLine
 10
231.696
 20
93.8526
 11
245.696
 21
93.8526
  0
LINE
  5
1FF
100
AcDbEntity
  8
0
  6
ByLayer
 62
    0
370
   -1
100
AcDbLine
 10
245.696
 20
93.8526
 11
245.696
 21
79.85299999999999
  0
LINE
  5
200
100
AcDbEntity
  8
0
  6
ByLayer
 62
    0
370
   -1
100
AcDbLine
 10
245.696
 20
79.85299999999999
 11
231.696
 21
79.85299999999999
  0
LINE
  5
201
100
AcDbEntity
  8
0
  6
ByLayer
 62
    0
370
   -1
100
AcDbLine
 10
231.696
 20
79.85299999999999
 11
231.696
 21
93.8526
  0
LINE
  5
202
100
AcDbEntity
  8
0
  6
ByLayer
 62
    0
370
   -1
100
AcDbLine
 10
293.609
 20
93.8526
 11
307.61
 21
93.8526
  0
LINE
  5
203
100
AcDbEntity
  8
0
  6
ByLayer
 62
    0
370
   -1
100
AcDbLine
 10
307.61
 20
93.8526
 11
307.61
 21
79.85299999999999
  0
LINE
  5
204
100
AcDbEntity
  8
0
  6
ByLayer
 62
    0
370
   -1
100
AcDbLine
 10
307.61
 20
79.85299999999999
 11
293.609
 21
79.85299999999999
  0
LINE
  5
205
100
AcDbEntity
  8
0
  6
ByLayer
 62
    0
370
   -1
100
AcDbLine
 10
293.609
 20
79.85299999999999
 11
293.609
 21
93.8526
  0
LINE
  5
206
100
AcDbEntity
  8
0
  6
ByLayer
 62
    0
370
   -1
100
AcDbLine
 10
312.659
 20
93.8526
 11
326.66
 21
93.8526
  0
LINE
  5
207
100
AcDbEntity
  8
0
  6
ByLayer
 62
    0
370
   -1
100
AcDbLine
 10
326.66
 20
93.8526
 11
326.66
 21
79.85299999999999
  0
LINE
  5
208
100
AcDbEntity
  8
0
  6
ByLayer
 62
    0
370
   -1
100
AcDbLine
 10
326.66
 20
79.85299999999999
 11
312.659
 21
79.85299999999999
  0
LINE
  5
209
100
AcDbEntity
  8
0
  6
ByLayer
 62
    0
370
   -1
100
AcDbLine
 10
312.659
 20
79.85299999999999
 11
312.659
 21
93.8526
  0
LINE
  5
20A
100
AcDbEntity
  8
0
  6
ByLayer
 62
    0
370
   -1
100
AcDbLine
 10
331.709
 20
93.8526
 11
345.71
 21
93.8526
  0
LINE
  5
20B
100
AcDbEntity
  8
0
  6
ByLayer
 62
    0
370
   -1
100
AcDbLine
 10
345.71
 20
93.8526
 11
345.71
 21
79.85299999999999
  0
LINE
  5
20C
100
AcDbEntity
  8
0
  6
ByLayer
 62
    0
370
   -1
100
AcDbLine
 10
345.71
 20
79.85299999999999
 11
331.709
 21
79.85299999999999
  0
LINE
  5
20D
100
AcDbEntity
  8
0
  6
ByLayer
 62
    0
370
   -1
100
AcDbLine
 10
331.709
 20
79.85299999999999
 11
331.709
 21
93.8526
  0
LINE
  5
20E
100
AcDbEntity
  8
0
  6
ByLayer
 62
    0
370
   -1
100
AcDbLine
 10
3.09645
 20
117.665
 11
17.0959
 21
117.665
  0
LINE
  5
20F
100
AcDbEntity
  8
0
  6
ByLayer
 62
    0
370
   -1
100
AcDbLine
 10
17.0959
 20
117.665
 11
17.0959
 21
103.666
  0
LINE
  5
210
100
AcDbEntity
  8
0
  6
ByLayer
 62
    0
370
   -1
100
AcDbLine
 10
17.0959
 20
103.666
 11
3.09645
 21
103.666
  0
LINE
  5
211
100
AcDbEntity
  8
0
  6
ByLayer
 62
    0
370
   -1
100
AcDbLine
 10
3.09645
 20
103.666
 11
3.09645
 21
117.665
  0
LINE
  5
212
100
AcDbEntity
  8
0
  6
ByLayer
 62
    0
370
   -1
100
AcDbLine
 10
26.9089
 20
117.665
 11
40.9099
 21
117.665
  0
LINE
  5
213
100
AcDbEntity
  8
0
  6
ByLayer
 62
    0
370
   -1
100
AcDbLine
 10
40.9099
 20
117.665
 11
40.9099
 21
103.666
  0
LINE
  5
214
100
AcDbEntity
  8
0
  6
ByLayer
 62
    0
370
   -1
100
AcDbLine
 10
40.9099
 20
103.666
 11
26.9089
 21
103.666
  0
LINE
  5
215
100
AcDbEntity
  8
0
  6
ByLayer
 62
    0
370
   -1
100
AcDbLine
 10
26.9089
 20
103.666
 11
26.9089
 21
117.665
  0
LINE
  5
216
100
AcDbEntity
  8
0
  6
ByLayer
 62
    0
370
   -1
100
AcDbLine
 10
45.9588
 20
117.665
 11
59.9585
 21
117.665
  0
LINE
  5
217
100
AcDbEntity
  8
0
  6
ByLayer
 62
    0
370
   -1
100
AcDbLine
 10
59.9585
 20
117.665
 11
59.9585
 21
103.666
  0
LINE
  5
218
100
AcDbEntity
  8
0
  6
ByLayer
 62
    0
370
   -1
100
AcDbLine
 10
59.9585
 20
103.666
 11
45.9588
 21
103.666
  0
LINE
  5
219
100
AcDbEntity
  8
0
  6
ByLayer
 62
    0
370
   -1
100
AcDbLine
 10
45.9588
 20
103.666
 11
45.9588
 21
117.665
  0
LINE
  5
21A
100
AcDbEntity
  8
0
  6
ByLayer
 62
    0
370
   -1
100
AcDbLine
 10
65.00879999999999
 20
117.665
 11
79.0085
 21
117.665
  0
LINE
  5
21B
100
AcDbEntity
  8
0
  6
ByLayer
 62
    0
370
   -1
100
AcDbLine
 10
79.0085
 20
117.665
 11
79.0085
 21
103.666
  0
LINE
  5
21C
100
AcDbEntity
  8
0
  6
ByLayer
 62
    0
370
   -1
100
AcDbLine
 10
79.0085
 20
103.666
 11
65.00879999999999
 21
103.666
  0
LINE
  5
21D
100
AcDbEntity
  8
0
  6
ByLayer
 62
    0
370
   -1
100
AcDbLine
 10
65.00879999999999
 20
103.666
 11
65.00879999999999
 21
117.665
  0
LINE
  5
21E
100
AcDbEntity
  8
0
  6
ByLayer
 62
    0
370
   -1
100
AcDbLine
 10
84.05880000000001
 20
117.665
 11
98.0585
 21
117.665
  0
LINE
  5
21F
100
AcDbEntity
  8
0
  6
ByLayer
 62
    0
370
   -1
100
AcDbLine
 10
98.0585
 20
117.665
 11
98.0585
 21
103.666
  0
LINE
  5
220
100
AcDbEntity
  8
0
  6
ByLayer
 62
    0
370
   -1
100
AcDbLine
 10
98.0585
 20
103.666
 11
84.05880000000001
 21
103.666
  0
LINE
  5
221
100
AcDbEntity
  8
0
  6
ByLayer
 62
    0
370
   -1
100
AcDbLine
 10
84.05880000000001
 20
103.666
 11
84.05880000000001
 21
117.665
  0
LINE
  5
222
100
AcDbEntity
  8
0
  6
ByLayer
 62
    0
370
   -1
100
AcDbLine
 10
107.871
 20
117.665
 11
121.871
 21
117.665
  0
LINE
  5
223
100
AcDbEntity
  8
0
  6
ByLayer
 62
    0
370
   -1
100
AcDbLine
 10
121.871
 20
117.665
 11
121.871
 21
103.666
  0
LINE
  5
224
100
AcDbEntity
  8
0
  6
ByLayer
 62
    0
370
   -1
100
AcDbLine
 10
121.871
 20
103.666
 11
107.871
 21
103.666
  0
LINE
  5
225
100
AcDbEntity
  8
0
  6
ByLayer
 62
    0
370
   -1
100
AcDbLine
 10
107.871
 20
103.666
 11
107.871
 21
117.665
  0
LINE
  5
226
100
AcDbEntity
  8
0
  6
ByLayer
 62
    0
370
   -1
100
AcDbLine
 10
126.921
 20
117.665
 11
140.921
 21
117.665
  0
LINE
  5
227
100
AcDbEntity
  8
0
  6
ByLayer
 62
    0
370
   -1
100
AcDbLine
 10
140.921
 20
117.665
 11
140.921
 21
103.666
  0
LINE
  5
228
100
AcDbEntity
  8
0
  6
ByLayer
 62
    0
370
   -1
100
AcDbLine
 10
140.921
 20
103.666
 11
126.921
 21
103.666
  0
LINE
  5
229
100
AcDbEntity
  8
0
  6
ByLayer
 62
    0
370
   -1
100
AcDbLine
 10
126.921
 20
103.666
 11
126.921
 21
117.665
  0
LINE
  5
22A
100
AcDbEntity
  8
0
  6
ByLayer
 62
    0
370
   -1
100
AcDbLine
 10
145.971
 20
117.665
 11
159.971
 21
117.665
  0
LINE
  5
22B
100
AcDbEntity
  8
0
  6
ByLayer
 62
    0
370
   -1
100
AcDbLine
 10
159.971
 20
117.665
 11
159.971
 21
103.666
  0
LINE
  5
22C
100
AcDbEntity
  8
0
  6
ByLayer
 62
    0
370
   -1
100
AcDbLine
 10
159.971
 20
103.666
 11
145.971
 21
103.666
  0
LINE
  5
22D
100
AcDbEntity
  8
0
  6
ByLayer
 62
    0
370
   -1
100
AcDbLine
 10
145.971
 20
103.666
 11
145.971
 21
117.665
  0
LINE
  5
22E
100
AcDbEntity
  8
0
  6
ByLayer
 62
    0
370
   -1
100
AcDbLine
 10
165.021
 20
117.665
 11
179.021
 21
117.665
  0
LINE
  5
22F
100
AcDbEntity
  8
0
  6
ByLayer
 62
    0
370
   -1
100
AcDbLine
 10
179.021
 20
117.665
 11
179.021
 21
103.666
  0
LINE
  5
230
100
AcDbEntity
  8
0
  6
ByLayer
 62
    0
370
   -1
100
AcDbLine
 10
179.021
 20
103.666
 11
165.021
 21
103.666
  0
LINE
  5
231
100
AcDbEntity
  8
0
  6
ByLayer
 62
    0
370
   -1
100
AcDbLine
 10
165.021
 20
103.666
 11
165.021
 21
117.665
  0
LINE
  5
232
100
AcDbEntity
  8
0
  6
ByLayer
 62
    0
370
   -1
100
AcDbLine
 10
188.834
 20
117.665
 11
202.835
 21
117.665
  0
LINE
  5
233
100
AcDbEntity
  8
0
  6
ByLayer
 62
    0
370
   -1
100
AcDbLine
 10
202.835
 20
117.665
 11
202.835
 21
103.666
  0
LINE
  5
234
100
AcDbEntity
  8
0
  6
ByLayer
 62
    0
370
   -1
100
AcDbLine
 10
202.835
 20
103.666
 11
188.834
 21
103.666
  0
LINE
  5
235
100
AcDbEntity
  8
0
  6
ByLayer
 62
    0
370
   -1
100
AcDbLine
 10
188.834
 20
103.666
 11
188.834
 21
117.665
  0
LINE
  5
236
100
AcDbEntity
  8
0
  6
ByLayer
 62
    0
370
   -1
100
AcDbLine
 10
207.884
 20
117.665
 11
221.885
 21
117.665
  0
LINE
  5
237
100
AcDbEntity
  8
0
  6
ByLayer
 62
    0
370
   -1
100
AcDbLine
 10
221.885
 20
117.665
 11
221.885
 21
103.666
  0
LINE
  5
238
100
AcDbEntity
  8
0
  6
ByLayer
 62
    0
370
   -1
100
AcDbLine
 10
221.885
 20
103.666
 11
207.884
 21
103.666
  0
LINE
  5
239
100
AcDbEntity
  8
0
  6
ByLayer
 62
    0
370
   -1
100
AcDbLine
 10
207.884
 20
103.666
 11
207.884
 21
117.665
  0
LINE
  5
23A
100
AcDbEntity
  8
0
  6
ByLayer
 62
    0
370
   -1
100
AcDbLine
 10
226.934
 20
117.665
 11
240.935
 21
117.665
  0
LINE
  5
23B
100
AcDbEntity
  8
0
  6
ByLayer
 62
    0
370
   -1
100
AcDbLine
 10
240.935
 20
117.665
 11
240.935
 21
103.666
  0
LINE
  5
23C
100
AcDbEntity
  8
0
  6
ByLayer
 62
    0
370
   -1
100
AcDbLine
 10
240.935
 20
103.666
 11
226.934
 21
103.666
  0
LINE
  5
23D
100
AcDbEntity
  8
0
  6
ByLayer
 62
    0
370
   -1
100
AcDbLine
 10
226.934
 20
103.666
 11
226.934
 21
117.665
  0
LINE
  5
23E
100
AcDbEntity
  8
0
  6
ByLayer
 62
    0
370
   -1
100
AcDbLine
 10
245.984
 20
117.665
 11
259.985
 21
117.665
  0
LINE
  5
23F
100
AcDbEntity
  8
0
  6
ByLayer
 62
    0
370
   -1
100
AcDbLine
 10
259.985
 20
117.665
 11
259.985
 21
103.666
  0
LINE
  5
240
100
AcDbEntity
  8
0
  6
ByLayer
 62
    0
370
   -1
100
AcDbLine
 10
259.985
 20
103.666
 11
245.984
 21
103.666
  0
LINE
  5
241
100
AcDbEntity
  8
0
  6
ByLayer
 62
    0
370
   -1
100
AcDbLine
 10
245.984
 20
103.666
 11
245.984
 21
117.665
  0
LINE
  5
242
100
AcDbEntity
  8
0
  6
ByLayer
 62
    0
370
   -1
100
AcDbLine
 10
269.796
 20
117.665
 11
283.796
 21
117.665
  0
LINE
  5
243
100
AcDbEntity
  8
0
  6
ByLayer
 62
    0
370
   -1
100
AcDbLine
 10
283.796
 20
117.665
 11
283.796
 21
103.666
  0
LINE
  5
244
100
AcDbEntity
  8
0
  6
ByLayer
 62
    0
370
   -1
100
AcDbLine
 10
283.796
 20
103.666
 11
269.796
 21
103.666
  0
LINE
  5
245
100
AcDbEntity
  8
0
  6
ByLayer
 62
    0
370
   -1
100
AcDbLine
 10
269.796
 20
103.666
 11
269.796
 21
117.665
  0
LINE
  5
246
100
AcDbEntity
  8
0
  6
ByLayer
 62
    0
370
   -1
100
AcDbLine
 10
293.609
 20
117.665
 11
307.61
 21
117.665
  0
LINE
  5
247
100
AcDbEntity
  8
0
  6
ByLayer
 62
    0
370
   -1
100
AcDbLine
 10
307.61
 20
117.665
 11
307.61
 21
103.666
  0
LINE
  5
248
100
AcDbEntity
  8
0
  6
ByLayer
 62
    0
370
   -1
100
AcDbLine
 10
307.61
 20
103.666
 11
293.609
 21
103.666
  0
LINE
  5
249
100
AcDbEntity
  8
0
  6
ByLayer
 62
    0
370
   -1
100
AcDbLine
 10
293.609
 20
103.666
 11
293.609
 21
117.665
  0
LINE
  5
24A
100
AcDbEntity
  8
0
  6
ByLayer
 62
    0
370
   -1
100
AcDbLine
 10
312.659
 20
117.665
 11
326.66
 21
117.665
  0
LINE
  5
24B
100
AcDbEntity
  8
0
  6
ByLayer
 62
    0
370
   -1
100
AcDbLine
 10
326.66
 20
117.665
 11
326.66
 21
103.666
  0
LINE
  5
24C
100
AcDbEntity
  8
0
  6
ByLayer
 62
    0
370
   -1
100
AcDbLine
 10
326.66
 20
103.666
 11
312.659
 21
103.666
  0
LINE
  5
24D
100
AcDbEntity
  8
0
  6
ByLayer
 62
    0
370
   -1
100
AcDbLine
 10
312.659
 20
103.666
 11
312.659
 21
117.665
  0
LINE
  5
24E
100
AcDbEntity
  8
0
  6
ByLayer
 62
    0
370
   -1
100
AcDbLine
 10
331.709
 20
117.665
 11
345.71
 21
117.665
  0
LINE
  5
24F
100
AcDbEntity
  8
0
  6
ByLayer
 62
    0
370
   -1
100
AcDbLine
 10
345.71
 20
117.665
 11
345.71
 21
103.666
  0
LINE
  5
250
100
AcDbEntity
  8
0
  6
ByLayer
 62
    0
370
   -1
100
AcDbLine
 10
345.71
 20
103.666
 11
331.709
 21
103.666
  0
LINE
  5
251
100
AcDbEntity
  8
0
  6
ByLayer
 62
    0
370
   -1
100
AcDbLine
 10
331.709
 20
103.666
 11
331.709
 21
117.665
  0
ENDBLK
  5
51
330
4F
100
AcDbEntity
  8
0
100
AcDbBlockEnd
  0
ENDSEC
  0
SECTION
  2
ENTITIES
  0
IMAGE
  5
254
100
AcDbEntity
  8
Plate
  6
ByLayer
 62
  256
370
   -1
100
AcDbRasterImage
 10
29.27025165295351
 20
91.62352256051925
 30
0
 11
1
 21
0
 31
0
 12
6.123031769111886e-17
 22
1
 32
0
 13
1
 23
1
340
252
 70
    1
280
    0
281
   50
282
   50
283
    0
360
253
  0
LINE
  5
255
100
AcDbEntity
  8
flame
  6
ByLayer
 62
  256
370
   -1
100
AcDbLine
 10
0
 20
0
 11
420
 21
0
  0
LINE
  5
256
100
AcDbEntity
  8
flame
  6
ByLayer
 62
  256
370
   -1
100
AcDbLine
 10
420
 20
0
 11
420
 21
297
  0
LINE
  5
257
100
AcDbEntity
  8
flame
  6
ByLayer
 62
  256
370
   -1
100
AcDbLine
 10
420
 20
297
 11
0
 21
297
  0
LINE
  5
258
100
AcDbEntity
  8
flame
  6
ByLayer
 62
  256
370
   -1
100
AcDbLine
 10
0
 20
297
 11
0
 21
0
  0
LINE
  5
259
100
AcDbEntity
  8
flame
  6
ByLayer
 62
  256
370
   -1
100
AcDbLine
 10
410
 20
287
 11
10
 21
287
  0
LINE
  5
25A
100
AcDbEntity
  8
flame
  6
ByLayer
 62
  256
370
   -1
100
AcDbLine
 10
10
 20
287
 11
10
 21
10
  0
LINE
  5
25B
100
AcDbEntity
  8
flame
  6
ByLayer
 62
  256
370
   -1
100
AcDbLine
 10
10
 20
10
 11
410
 21
10
  0
LINE
  5
25C
100
AcDbEntity
  8
flame
  6
ByLayer
 62
  256
370
   -1
100
AcDbLine
 10
410
 20
10
 11
410
 21
287
  0
INSERT
  5
25D
100
AcDbEntity
  8
0
  6
ByLayer
 62
  256
370
   -1
100
AcDbBlockReference
  2
suit80_7u_plate_references
 10
36.27505623561974
 20
100.5526898362814
 30
0
 41
1
 42
1
 43
0
 50
0
 70
    1
 71
    1
 44
0
 45
0
  0
LWPOLYLINE
  5
25E
100
AcDbEntity
  8
Plate
  6
ByLayer
 62
  256
370
   -1
100
AcDbPolyline
 90
    4
 70
    1
 43
0
 10
39.37150623561974
 20
218.2176898362814
 10
53.37095623561973
 20
218.2176898362814
 10
53.37095623561973
 20
204.2186898362814
 10
39.37150623561974
 20
204.2186898362814
  0
LWPOLYLINE
  5
25F
100
AcDbEntity
  8
Plate
  6
ByLayer
 62
  256
370
   -1
100
AcDbPolyline
 90
    4
 70
    1
 43
0
 10
63.18395623561972
 20
218.2176898362814
 10
77.18495623561972
 20
218.2176898362814
 10
77.18495623561972
 20
204.2186898362814
 10
63.18395623561972
 20
204.2186898362814
  0
LWPOLYLINE
  5
260
100
AcDbEntity
  8
Plate
  6
ByLayer
 62
  256
370
   -1
100
AcDbPolyline
 90
    4
 70
    1
 43
0
 10
82.23385623561973
 20
218.2176898362814
 10
96.23355623561972
 20
218.2176898362814
 10
96.23355623561972
 20
204.2186898362814
 10
82.23385623561973
 20
204.2186898362814
  0
LWPOLYLINE
  5
261
100
AcDbEntity
  8
Plate
  6
ByLayer
 62
  256
370
   -1
100
AcDbPolyline
 90
    4
 70
    1
 43
0
 10
101.2838562356197
 20
218.2176898362814
 10
115.2835562356197
 20
218.2176898362814
 10
115.2835562356197
 20
204.2186898362814
 10
101.2838562356197
 20
204.2186898362814
  0
LWPOLYLINE
  5
262
100
AcDbEntity
  8
Plate
  6
ByLayer
 62
  256
370
   -1
100
AcDbPolyline
 90
    4
 70
    1
 43
0
 10
120.3338562356197
 20
218.2176898362814
 10
134.3335562356197
 20
218.2176898362814
 10
134.3335562356197
 20
204.2186898362814
 10
120.3338562356197
 20
204.2186898362814
  0
LWPOLYLINE
  5
263
100
AcDbEntity
  8
Plate
  6
ByLayer
 62
  256
370
   -1
100
AcDbPolyline
 90
    4
 70
    1
 43
0
 10
144.1460562356197
 20
218.2176898362814
 10
158.1460562356197
 20
218.2176898362814
 10
158.1460562356197
 20
204.2186898362814
 10
144.1460562356197
 20
204.2186898362814
  0
LWPOLYLINE
  5
264
100
AcDbEntity
  8
Plate
  6
ByLayer
 62
  256
370
   -1
100
AcDbPolyline
 90
    4
 70
    1
 43
0
 10
163.1960562356197
 20
218.2176898362814
 10
177.1960562356197
 20
218.2176898362814
 10
177.1960562356197
 20
204.2186898362814
 10
163.1960562356197
 20
204.2186898362814
  0
LWPOLYLINE
  5
265
100
AcDbEntity
  8
Plate
  6
ByLayer
 62
  256
370
   -1
100
AcDbPolyline
 90
    4
 70
    1
 43
0
 10
182.2460562356197
 20
218.2176898362814
 10
196.2460562356197
 20
218.2176898362814
 10
196.2460562356197
 20
204.2186898362814
 10
182.2460562356197
 20
204.2186898362814
  0
LWPOLYLINE
  5
266
100
AcDbEntity
  8
Plate
  6
ByLayer
 62
  256
370
   -1
100
AcDbPolyline
 90
    4
 70
    1
 43
0
 10
201.2960562356197
 20
218.2176898362814
 10
215.2960562356197
 20
218.2176898362814
 10
215.2960562356197
 20
204.2186898362814
 10
201.2960562356197
 20
204.2186898362814
  0
LWPOLYLINE
  5
267
100
AcDbEntity
  8
Plate
  6
ByLayer
 62
  256
370
   -1
100
AcDbPolyline
 90
    4
 70
    1
 43
0
 10
225.1090562356197
 20
218.2176898362814
 10
239.1100562356197
 20
218.2176898362814
 10
239.1100562356197
 20
204.2186898362814
 10
225.1090562356197
 20
204.2186898362814
  0
LWPOLYLINE
  5
268
100
AcDbEntity
  8
Plate
  6
ByLayer
 62
  256
370
   -1
100
AcDbPolyline
 90
    4
 70
    1
 43
0
 10
244.1590562356197
 20
218.2176898362814
 10
258.1600562356197
 20
218.2176898362814
 10
258.1600562356197
 20
204.2186898362814
 10
244.1590562356197
 20
204.2186898362814
  0
LWPOLYLINE
  5
269
100
AcDbEntity
  8
Plate
  6
ByLayer
 62
  256
370
   -1
100
AcDbPolyline
 90
    4
 70
    1
 43
0
 10
263.2090562356197
 20
218.2176898362814
 10
277.2100562356197
 20
218.2176898362814
 10
277.2100562356197
 20
204.2186898362814
 10
263.2090562356197
 20
204.2186898362814
  0
LWPOLYLINE
  5
26A
100
AcDbEntity
  8
Plate
  6
ByLayer
 62
  256
370
   -1
100
AcDbPolyline
 90
    4
 70
    1
 43
0
 10
282.2590562356197
 20
218.2176898362814
 10
296.2600562356197
 20
218.2176898362814
 10
296.2600562356197
 20
204.2186898362814
 10
282.2590562356197
 20
204.2186898362814
  0
LWPOLYLINE
  5
26B
100
AcDbEntity
  8
Plate
  6
ByLayer
 62
  256
370
   -1
100
AcDbPolyline
 90
    4
 70
    1
 43
0
 10
306.0710562356197
 20
218.2176898362814
 10
320.0710562356197
 20
218.2176898362814
 10
320.0710562356197
 20
204.2186898362814
 10
306.0710562356197
 20
204.2186898362814
  0
LWPOLYLINE
  5
26C
100
AcDbEntity
  8
Plate
  6
ByLayer
 62
  256
370
   -1
100
AcDbPolyline
 90
    4
 70
    1
 43
0
 10
329.8840562356197
 20
218.2176898362814
 10
343.8850562356197
 20
218.2176898362814
 10
343.8850562356197
 20
204.2186898362814
 10
329.8840562356197
 20
204.2186898362814
  0
LWPOLYLINE
  5
26D
100
AcDbEntity
  8
Plate
  6
ByLayer
 62
  256
370
   -1
100
AcDbPolyline
 90
    4
 70
    1
 43
0
 10
348.9340562356197
 20
218.2176898362814
 10
362.9350562356197
 20
218.2176898362814
 10
362.9350562356197
 20
204.2186898362814
 10
348.9340562356197
 20
204.2186898362814
  0
LWPOLYLINE
  5
26E
100
AcDbEntity
  8
Plate
  6
ByLayer
 62
  256
370
   -1
100
AcDbPolyline
 90
    4
 70
    1
 43
0
 10
381.9850562356197
 20
218.2176898362814
 10
367.9840562356197
 20
218.2176898362814
 10
367.9840562356197
 20
204.2186898362814
 10
381.9850562356197
 20
204.2186898362814
  0
LWPOLYLINE
  5
26F
100
AcDbEntity
  8
Plate
  6
ByLayer
 62
  256
370
   -1
100
AcDbPolyline
 90
    4
 70
    1
 43
0
 10
39.37150623561974
 20
194.4052898362814
 10
53.37095623561973
 20
194.4052898362814
 10
53.37095623561973
 20
180.4056898362814
 10
39.37150623561974
 20
180.4056898362814
  0
LWPOLYLINE
  5
270
100
AcDbEntity
  8
Plate
  6
ByLayer
 62
  256
370
   -1
100
AcDbPolyline
 90
    4
 70
    1
 43
0
 10
44.13399623561973
 20
175.3552898362814
 10
58.13485623561974
 20
175.3552898362814
 10
58.13485623561974
 20
161.3556898362814
 10
44.13399623561973
 20
161.3556898362814
  0
LWPOLYLINE
  5
271
100
AcDbEntity
  8
Plate
  6
ByLayer
 62
  256
370
   -1
100
AcDbPolyline
 90
    4
 70
    1
 43
0
 10
46.51525623561972
 20
156.3052898362814
 10
60.51615623561972
 20
156.3052898362814
 10
60.51615623561972
 20
142.3056898362814
 10
46.51525623561972
 20
142.3056898362814
  0
LWPOLYLINE
  5
272
100
AcDbEntity
  8
Plate
  6
ByLayer
 62
  256
370
   -1
100
AcDbPolyline
 90
    4
 70
    1
 43
0
 10
44.13399623561973
 20
118.2053898362814
 10
58.13485623561974
 20
118.2053898362814
 10
58.13485623561974
 20
104.2058798362814
 10
44.13399623561973
 20
104.2058798362814
  0
LWPOLYLINE
  5
273
100
AcDbEntity
  8
Plate
  6
ByLayer
 62
  256
370
   -1
100
AcDbPolyline
 90
    4
 70
    1
 43
0
 10
67.94645623561973
 20
118.2053898362814
 10
81.94605623561972
 20
118.2053898362814
 10
81.94605623561972
 20
104.2058798362814
 10
67.94645623561973
 20
104.2058798362814
  0
LWPOLYLINE
  5
274
100
AcDbEntity
  8
Plate
  6
ByLayer
 62
  256
370
   -1
100
AcDbPolyline
 90
    4
 70
    1
 43
0
 10
91.7588562356197
 20
118.2053898362814
 10
105.7599562356197
 20
118.2053898362814
 10
105.7599562356197
 20
104.2058798362814
 10
91.7588562356197
 20
104.2058798362814
  0
LWPOLYLINE
  5
275
100
AcDbEntity
  8
Plate
  6
ByLayer
 62
  256
370
   -1
100
AcDbPolyline
 90
    4
 70
    1
 43
0
 10
329.8840562356197
 20
194.4052898362814
 10
343.8850562356197
 20
194.4052898362814
 10
343.8850562356197
 20
180.4056898362814
 10
329.8840562356197
 20
180.4056898362814
  0
LWPOLYLINE
  5
276
100
AcDbEntity
  8
Plate
  6
ByLayer
 62
  256
370
   -1
100
AcDbPolyline
 90
    4
 70
    1
 43
0
 10
348.9340562356197
 20
194.4052898362814
 10
362.9350562356197
 20
194.4052898362814
 10
362.9350562356197
 20
180.4056898362814
 10
348.9340562356197
 20
180.4056898362814
  0
LWPOLYLINE
  5
277
100
AcDbEntity
  8
Plate
  6
ByLayer
 62
  256
370
   -1
100
AcDbPolyline
 90
    4
 70
    1
 43
0
 10
367.9840562356197
 20
194.4052898362814
 10
381.9850562356197
 20
194.4052898362814
 10
381.9850562356197
 20
180.4056898362814
 10
367.9840562356197
 20
180.4056898362814
  0
LWPOLYLINE
  5
278
100
AcDbEntity
  8
Plate
  6
ByLayer
 62
  256
370
   -1
100
AcDbPolyline
 90
    4
 70
    1
 43
0
 10
329.8840562356197
 20
175.3552898362814
 10
343.8850562356197
 20
175.3552898362814
 10
343.8850562356197
 20
161.3556898362814
 10
329.8840562356197
 20
161.3556898362814
  0
LWPOLYLINE
  5
279
100
AcDbEntity
  8
Plate
  6
ByLayer
 62
  256
370
   -1
100
AcDbPolyline
 90
    4
 70
    1
 43
0
 10
362.9350562356197
 20
175.3552898362814
 10
348.9340562356198
 20
175.3552898362814
 10
348.9340562356198
 20
161.3556898362814
 10
362.9350562356197
 20
161.3556898362814
  0
LWPOLYLINE
  5
27A
100
AcDbEntity
  8
Plate
  6
ByLayer
 62
  256
370
   -1
100
AcDbPolyline
 90
    4
 70
    1
 43
0
 10
367.9840562356197
 20
175.3552898362814
 10
381.9850562356197
 20
175.3552898362814
 10
381.9850562356197
 20
161.3556898362814
 10
367.9840562356197
 20
161.3556898362814
  0
LWPOLYLINE
  5
27B
100
AcDbEntity
  8
Plate
  6
ByLayer
 62
  256
370
   -1
100
AcDbPolyline
 90
    4
 70
    1
 43
0
 10
348.9340562356197
 20
137.2552898362815
 10
362.9350562356197
 20
137.2552898362815
 10
362.9350562356197
 20
123.2558898362814
 10
348.9340562356197
 20
123.2558898362814
  0
LWPOLYLINE
  5
27C
100
AcDbEntity
  8
Plate
  6
ByLayer
 62
  256
370
   -1
100
AcDbPolyline
 90
    4
 70
    1
 43
0
 10
329.8840562356197
 20
118.2053898362814
 10
343.8850562356197
 20
118.2053898362814
 10
343.8850562356197
 20
104.2058798362814
 10
329.8840562356197
 20
104.2058798362814
  0
LWPOLYLINE
  5
27D
100
AcDbEntity
  8
Plate
  6
ByLayer
 62
  256
370
   -1
100
AcDbPolyline
 90
    4
 70
    1
 43
0
 10
348.9340562356197
 20
118.2053898362814
 10
362.9350562356197
 20
118.2053898362814
 10
362.9350562356197
 20
104.2058798362814
 10
348.9340562356197
 20
104.2058798362814
  0
LWPOLYLINE
  5
27E
100
AcDbEntity
  8
Plate
  6
ByLayer
 62
  256
370
   -1
100
AcDbPolyline
 90
    4
 70
    1
 43
0
 10
367.9840562356197
 20
118.2053898362814
 10
381.9850562356197
 20
118.2053898362814
 10
381.9850562356197
 20
104.2058798362814
 10
367.9840562356197
 20
104.2058798362814
  0
LWPOLYLINE
  5
27F
100
AcDbEntity
  8
Plate
  6
ByLayer
 62
  256
370
   -1
100
AcDbPolyline
 90
    4
 70
    1
 43
0
 10
315.3100562356197
 20
118.2053898362814
 10
301.3090562356197
 20
118.2053898362814
 10
301.3090562356197
 20
104.2058798362814
 10
315.3100562356197
 20
104.2058798362814
  0
LWPOLYLINE
  5
280
100
AcDbEntity
  8
Plate
  6
ByLayer
 62
  256
370
   -1
100
AcDbPolyline
 90
    4
 70
    1
 43
0
 10
291.4960562356197
 20
118.2053898362814
 10
277.4960562356197
 20
118.2053898362814
 10
277.4960562356197
 20
104.2058798362814
 10
291.4960562356197
 20
104.2058798362814
  0
LWPOLYLINE
  5
281
100
AcDbEntity
  8
Plate
  6
ByLayer
 62
  256
370
   -1
100
AcDbPolyline
 90
    4
 70
    1
 43
0
 10
267.6850562356197
 20
118.2053898362814
 10
253.6840562356197
 20
118.2053898362814
 10
253.6840562356197
 20
104.2058798362814
 10
267.6850562356197
 20
104.2058798362814
  0
LWPOLYLINE
  5
282
100
AcDbEntity
  8
Plate
  6
ByLayer
 62
  256
370
   -1
100
AcDbPolyline
 90
    4
 70
    1
 43
0
 10
72.42105623561972
 20
194.4052898362814
 10
58.42145623561973
 20
194.4052898362814
 10
58.42145623561973
 20
180.4056898362814
 10
72.42105623561972
 20
180.4056898362814
  0
LWPOLYLINE
  5
283
100
AcDbEntity
  8
Plate
  6
ByLayer
 62
  256
370
   -1
100
AcDbPolyline
 90
    4
 70
    1
 43
0
 10
77.47135623561971
 20
194.4052898362814
 10
91.47105623561973
 20
194.4052898362814
 10
91.47105623561973
 20
180.4056898362814
 10
77.47135623561971
 20
180.4056898362814
  0
LWPOLYLINE
  5
284
100
AcDbEntity
  8
Plate
  6
ByLayer
 62
  256
370
   -1
100
AcDbPolyline
 90
    4
 70
    1
 43
0
 10
96.52135623561972
 20
194.4052898362814
 10
110.5210562356197
 20
194.4052898362814
 10
110.5210562356197
 20
180.4056898362814
 10
96.52135623561972
 20
180.4056898362814
  0
LWPOLYLINE
  5
285
100
AcDbEntity
  8
Plate
  6
ByLayer
 62
  256
370
   -1
100
AcDbPolyline
 90
    4
 70
    1
 43
0
 10
115.5713562356197
 20
194.4052898362814
 10
129.5710562356197
 20
194.4052898362814
 10
129.5710562356197
 20
180.4056898362814
 10
115.5713562356197
 20
180.4056898362814
  0
LWPOLYLINE
  5
286
100
AcDbEntity
  8
Plate
  6
ByLayer
 62
  256
370
   -1
100
AcDbPolyline
 90
    4
 70
    1
 43
0
 10
134.6213562356197
 20
194.4052898362814
 10
148.6210562356197
 20
194.4052898362814
 10
148.6210562356197
 20
180.4056898362814
 10
134.6213562356197
 20
180.4056898362814
  0
LWPOLYLINE
  5
287
100
AcDbEntity
  8
Plate
  6
ByLayer
 62
  256
370
   -1
100
AcDbPolyline
 90
    4
 70
    1
 43
0
 10
153.6710562356197
 20
194.4052898362814
 10
167.6710562356197
 20
194.4052898362814
 10
167.6710562356197
 20
180.4056898362814
 10
153.6710562356197
 20
180.4056898362814
  0
LWPOLYLINE
  5
288
100
AcDbEntity
  8
Plate
  6
ByLayer
 62
  256
370
   -1
100
AcDbPolyline
 90
    4
 70
    1
 43
0
 10
186.7210562356197
 20
194.4052898362814
 10
172.7210562356197
 20
194.4052898362814
 10
172.7210562356197
 20
180.4056898362814
 10
186.7210562356197
 20
180.4056898362814
  0
LWPOLYLINE
  5
289
100
AcDbEntity
  8
Plate
  6
ByLayer
 62
  256
370
   -1
100
AcDbPolyline
 90
    4
 70
    1
 43
0
 10
205.7710562356198
 20
194.4052898362814
 10
191.7710562356197
 20
194.4052898362814
 10
191.7710562356197
 20
180.4056898362814
 10
205.7710562356198
 20
180.4056898362814
  0
LWPOLYLINE
  5
28A
100
AcDbEntity
  8
Plate
  6
ByLayer
 62
  256
370
   -1
100
AcDbPolyline
 90
    4
 70
    1
 43
0
 10
224.8210562356197
 20
194.4052898362814
 10
210.8210562356197
 20
194.4052898362814
 10
210.8210562356197
 20
180.4056898362814
 10
224.8210562356197
 20
180.4056898362814
  0
LWPOLYLINE
  5
28B
100
AcDbEntity
  8
Plate
  6
ByLayer
 62
  256
370
   -1
100
AcDbPolyline
 90
    4
 70
    1
 43
0
 10
243.8710562356197
 20
194.4052898362814
 10
229.8710562356197
 20
194.4052898362814
 10
229.8710562356197
 20
180.4056898362814
 10
243.8710562356197
 20
180.4056898362814
  0
LWPOLYLINE
  5
28C
100
AcDbEntity
  8
Plate
  6
ByLayer
 62
  256
370
   -1
100
AcDbPolyline
 90
    4
 70
    1
 43
0
 10
262.9210562356197
 20
194.4052898362814
 10
248.9210562356197
 20
194.4052898362814
 10
248.9210562356197
 20
180.4056898362814
 10
262.9210562356197
 20
180.4056898362814
  0
LWPOLYLINE
  5
28D
100
AcDbEntity
  8
Plate
  6
ByLayer
 62
  256
370
   -1
100
AcDbPolyline
 90
    4
 70
    1
 43
0
 10
281.9710562356197
 20
194.4052898362814
 10
267.9710562356197
 20
194.4052898362814
 10
267.9710562356197
 20
180.4056898362814
 10
281.9710562356197
 20
180.4056898362814
  0
LWPOLYLINE
  5
28E
100
AcDbEntity
  8
Plate
  6
ByLayer
 62
  256
370
   -1
100
AcDbPolyline
 90
    4
 70
    1
 43
0
 10
301.3090562356197
 20
175.3552898362814
 10
315.3100562356197
 20
175.3552898362814
 10
315.3100562356197
 20
161.3556898362814
 10
301.3090562356197
 20
161.3556898362814
  0
LWPOLYLINE
  5
28F
100
AcDbEntity
  8
Plate
  6
ByLayer
 62
  256
370
   -1
100
AcDbPolyline
 90
    4
 70
    1
 43
0
 10
67.94645623561973
 20
175.3552898362814
 10
81.94605623561972
 20
175.3552898362814
 10
81.94605623561972
 20
161.3556898362814
 10
67.94645623561973
 20
161.3556898362814
  0
LWPOLYLINE
  5
290
100
AcDbEntity
  8
Plate
  6
ByLayer
 62
  256
370
   -1
100
AcDbPolyline
 90
    4
 70
    1
 43
0
 10
100.9960562356197
 20
175.3552898362814
 10
86.99635623561971
 20
175.3552898362814
 10
86.99635623561971
 20
161.3556898362814
 10
100.9960562356197
 20
161.3556898362814
  0
LWPOLYLINE
  5
291
100
AcDbEntity
  8
Plate
  6
ByLayer
 62
  256
370
   -1
100
AcDbPolyline
 90
    4
 70
    1
 43
0
 10
106.0463562356197
 20
175.3552898362814
 10
120.0460562356197
 20
175.3552898362814
 10
120.0460562356197
 20
161.3556898362814
 10
106.0463562356197
 20
161.3556898362814
  0
LWPOLYLINE
  5
292
100
AcDbEntity
  8
Plate
  6
ByLayer
 62
  256
370
   -1
100
AcDbPolyline
 90
    4
 70
    1
 43
0
 10
125.0963562356197
 20
175.3552898362814
 10
139.0960562356197
 20
175.3552898362814
 10
139.0960562356197
 20
161.3556898362814
 10
125.0963562356197
 20
161.3556898362814
  0
LWPOLYLINE
  5
293
100
AcDbEntity
  8
Plate
  6
ByLayer
 62
  256
370
   -1
100
AcDbPolyline
 90
    4
 70
    1
 43
0
 10
144.1460562356197
 20
175.3552898362814
 10
158.1460562356197
 20
175.3552898362814
 10
158.1460562356197
 20
161.3556898362815
 10
144.1460562356197
 20
161.3556898362815
  0
LWPOLYLINE
  5
294
100
AcDbEntity
  8
Plate
  6
ByLayer
 62
  256
370
   -1
100
AcDbPolyline
 90
    4
 70
    1
 43
0
 10
163.1960562356197
 20
175.3552898362814
 10
177.1960562356197
 20
175.3552898362814
 10
177.1960562356197
 20
161.3556898362815
 10
163.1960562356197
 20
161.3556898362815
  0
LWPOLYLINE
  5
295
100
AcDbEntity
  8
Plate
  6
ByLayer
 62
  256
370
   -1
100
AcDbPolyline
 90
    4
 70
    1
 43
0
 10
182.2460562356197
 20
175.3552898362814
 10
196.2460562356197
 20
175.3552898362814
 10
196.2460562356197
 20
161.3556898362814
 10
182.2460562356197
 20
161.3556898362814
  0
LWPOLYLINE
  5
296
100
AcDbEntity
  8
Plate
  6
ByLayer
 62
  256
370
   -1
100
AcDbPolyline
 90
    4
 70
    1
 43
0
 10
129.8588562356197
 20
156.3052898362814
 10
143.8600562356197
 20
156.3052898362814
 10
143.8600562356197
 20
142.3056898362814
 10
129.8588562356197
 20
142.3056898362814
  0
LWPOLYLINE
  5
297
100
AcDbEntity
  8
Plate
  6
ByLayer
 62
  256
370
   -1
100
AcDbPolyline
 90
    4
 70
    1
 43
0
 10
110.8088562356197
 20
156.3052898362814
 10
124.8099562356197
 20
156.3052898362814
 10
124.8099562356197
 20
142.3056898362814
 10
110.8088562356197
 20
142.3056898362814
  0
LWPOLYLINE
  5
298
100
AcDbEntity
  8
Plate
  6
ByLayer
 62
  256
370
   -1
100
AcDbPolyline
 90
    4
 70
    1
 43
0
 10
91.7588562356197
 20
156.3052898362814
 10
105.7599562356197
 20
156.3052898362814
 10
105.7599562356197
 20
142.3056898362814
 10
91.7588562356197
 20
142.3056898362814
  0
LWPOLYLINE
  5
299
100
AcDbEntity
  8
Plate
  6
ByLayer
 62
  256
370
   -1
100
AcDbPolyline
 90
    4
 70
    1
 43
0
 10
72.70885623561972
 20
156.3052898362814
 10
86.70995623561973
 20
156.3052898362814
 10
86.70995623561973
 20
142.3056898362814
 10
72.70885623561972
 20
142.3056898362814
  0
LWPOLYLINE
  5
29A
100
AcDbEntity
  8
Plate
  6
ByLayer
 62
  256
370
   -1
100
AcDbPolyline
 90
    4
 70
    1
 43
0
 10
148.9090562356197
 20
156.3052898362814
 10
162.9100562356197
 20
156.3052898362814
 10
162.9100562356197
 20
142.3056898362814
 10
148.9090562356197
 20
142.3056898362814
  0
LWPOLYLINE
  5
29B
100
AcDbEntity
  8
Plate
  6
ByLayer
 62
  256
370
   -1
100
AcDbPolyline
 90
    4
 70
    1
 43
0
 10
167.9590562356197
 20
156.3052898362814
 10
181.9600562356197
 20
156.3052898362814
 10
181.9600562356197
 20
142.3056898362814
 10
167.9590562356197
 20
142.3056898362814
  0
LWPOLYLINE
  5
29C
100
AcDbEntity
  8
Plate
  6
ByLayer
 62
  256
370
   -1
100
AcDbPolyline
 90
    4
 70
    1
 43
0
 10
187.0090562356197
 20
156.3052898362814
 10
201.0100562356197
 20
156.3052898362814
 10
201.0100562356197
 20
142.3056898362814
 10
187.0090562356197
 20
142.3056898362814
  0
LWPOLYLINE
  5
29D
100
AcDbEntity
  8
Plate
  6
ByLayer
 62
  256
370
   -1
100
AcDbPolyline
 90
    4
 70
    1
 43
0
 10
201.2960562356197
 20
175.3552898362814
 10
215.2960562356197
 20
175.3552898362814
 10
215.2960562356197
 20
161.3556898362815
 10
201.2960562356197
 20
161.3556898362815
  0
LWPOLYLINE
  5
29E
100
AcDbEntity
  8
Plate
  6
ByLayer
 62
  256
370
   -1
100
AcDbPolyline
 90
    4
 70
    1
 43
0
 10
220.3460562356197
 20
175.3552898362814
 10
234.3460562356197
 20
175.3552898362814
 10
234.3460562356197
 20
161.3556898362815
 10
220.3460562356197
 20
161.3556898362815
  0
LWPOLYLINE
  5
29F
100
AcDbEntity
  8
Plate
  6
ByLayer
 62
  256
370
   -1
100
AcDbPolyline
 90
    4
 70
    1
 43
0
 10
239.3960562356198
 20
175.3552898362814
 10
253.3960562356198
 20
175.3552898362814
 10
253.3960562356198
 20
161.3556898362815
 10
239.3960562356198
 20
161.3556898362815
  0
LWPOLYLINE
  5
2A0
100
AcDbEntity
  8
Plate
  6
ByLayer
 62
  256
370
   -1
100
AcDbPolyline
 90
    4
 70
    1
 43
0
 10
258.4460562356197
 20
175.3552898362814
 10
272.4460562356197
 20
175.3552898362814
 10
272.4460562356197
 20
161.3556898362815
 10
258.4460562356197
 20
161.3556898362815
  0
LWPOLYLINE
  5
2A1
100
AcDbEntity
  8
Plate
  6
ByLayer
 62
  256
370
   -1
100
AcDbPolyline
 90
    4
 70
    1
 43
0
 10
277.4960562356197
 20
175.3552898362814
 10
291.4960562356197
 20
175.3552898362814
 10
291.4960562356197
 20
161.3556898362815
 10
277.4960562356197
 20
161.3556898362815
  0
LWPOLYLINE
  5
2A2
100
AcDbEntity
  8
Plate
  6
ByLayer
 62
  256
370
   -1
100
AcDbPolyline
 90
    4
 70
    1
 43
0
 10
206.0590562356197
 20
156.3052898362814
 10
220.0600562356197
 20
156.3052898362814
 10
220.0600562356197
 20
142.3056898362814
 10
206.0590562356197
 20
142.3056898362814
  0
LWPOLYLINE
  5
2A3
100
AcDbEntity
  8
Plate
  6
ByLayer
 62
  256
370
   -1
100
AcDbPolyline
 90
    4
 70
    1
 43
0
 10
225.1090562356197
 20
156.3052898362814
 10
239.1100562356197
 20
156.3052898362814
 10
239.1100562356197
 20
142.3056898362814
 10
225.1090562356197
 20
142.3056898362814
  0
LWPOLYLINE
  5
2A4
100
AcDbEntity
  8
Plate
  6
ByLayer
 62
  256
370
   -1
100
AcDbPolyline
 90
    4
 70
    1
 43
0
 10
258.1600562356197
 20
156.3052898362814
 10
244.1590562356197
 20
156.3052898362814
 10
244.1590562356197
 20
142.3056898362814
 10
258.1600562356197
 20
142.3056898362814
  0
LWPOLYLINE
  5
2A5
100
AcDbEntity
  8
Plate
  6
ByLayer
 62
  256
370
   -1
100
AcDbPolyline
 90
    4
 70
    1
 43
0
 10
277.2100562356197
 20
156.3052898362814
 10
263.2090562356197
 20
156.3052898362814
 10
263.2090562356197
 20
142.3056898362814
 10
277.2100562356197
 20
142.3056898362814
  0
LWPOLYLINE
  5
2A6
100
AcDbEntity
  8
Plate
  6
ByLayer
 62
  256
370
   -1
100
AcDbPolyline
 90
    4
 70
    1
 43
0
 10
82.23385623561973
 20
137.2552898362815
 10
96.23355623561972
 20
137.2552898362815
 10
96.23355623561972
 20
123.2558898362814
 10
82.23385623561973
 20
123.2558898362814
  0
LWPOLYLINE
  5
2A7
100
AcDbEntity
  8
Plate
  6
ByLayer
 62
  256
370
   -1
100
AcDbPolyline
 90
    4
 70
    1
 43
0
 10
115.2849562356197
 20
137.2552898362815
 10
101.2838562356197
 20
137.2552898362815
 10
101.2838562356197
 20
123.2558898362814
 10
115.2849562356197
 20
123.2558898362814
  0
LWPOLYLINE
  5
2A8
100
AcDbEntity
  8
Plate
  6
ByLayer
 62
  256
370
   -1
100
AcDbPolyline
 90
    4
 70
    1
 43
0
 10
134.3349562356197
 20
137.2552898362815
 10
120.3338562356197
 20
137.2552898362815
 10
120.3338562356197
 20
123.2558898362814
 10
134.3349562356197
 20
123.2558898362814
  0
LWPOLYLINE
  5
2A9
100
AcDbEntity
  8
Plate
  6
ByLayer
 62
  256
370
   -1
100
AcDbPolyline
 90
    4
 70
    1
 43
0
 10
139.3840562356197
 20
137.2552898362815
 10
153.3850562356197
 20
137.2552898362815
 10
153.3850562356197
 20
123.2558898362814
 10
139.3840562356197
 20
123.2558898362814
  0
LWPOLYLINE
  5
2AA
100
AcDbEntity
  8
Plate
  6
ByLayer
 62
  256
370
   -1
100
AcDbPolyline
 90
    4
 70
    1
 43
0
 10
158.4340562356197
 20
137.2552898362815
 10
172.4350562356197
 20
137.2552898362815
 10
172.4350562356197
 20
123.2558898362814
 10
158.4340562356197
 20
123.2558898362814
  0
LWPOLYLINE
  5
2AB
100
AcDbEntity
  8
Plate
  6
ByLayer
 62
  256
370
   -1
100
AcDbPolyline
 90
    4
 70
    1
 43
0
 10
177.4840562356197
 20
137.2552898362814
 10
191.4850562356197
 20
137.2552898362814
 10
191.4850562356197
 20
123.2558898362814
 10
177.4840562356197
 20
123.2558898362814
  0
LWPOLYLINE
  5
2AC
100
AcDbEntity
  8
Plate
  6
ByLayer
 62
  256
370
   -1
100
AcDbPolyline
 90
    4
 70
    1
 43
0
 10
210.5350562356197
 20
137.2552898362815
 10
196.5340562356197
 20
137.2552898362815
 10
196.5340562356197
 20
123.2558898362814
 10
210.5350562356197
 20
123.2558898362814
  0
LWPOLYLINE
  5
2AD
100
AcDbEntity
  8
Plate
  6
ByLayer
 62
  256
370
   -1
100
AcDbPolyline
 90
    4
 70
    1
 43
0
 10
229.5850562356197
 20
137.2552898362815
 10
215.5840562356197
 20
137.2552898362815
 10
215.5840562356197
 20
123.2558898362814
 10
229.5850562356197
 20
123.2558898362814
  0
LWPOLYLINE
  5
2AE
100
AcDbEntity
  8
Plate
  6
ByLayer
 62
  256
370
   -1
100
AcDbPolyline
 90
    4
 70
    1
 43
0
 10
248.6350562356197
 20
137.2552898362815
 10
234.6340562356197
 20
137.2552898362815
 10
234.6340562356197
 20
123.2558898362814
 10
248.6350562356197
 20
123.2558898362814
  0
LWPOLYLINE
  5
2AF
100
AcDbEntity
  8
Plate
  6
ByLayer
 62
  256
370
   -1
100
AcDbPolyline
 90
    4
 70
    1
 43
0
 10
267.6850562356197
 20
137.2552898362815
 10
253.6840562356197
 20
137.2552898362815
 10
253.6840562356197
 20
123.2558898362814
 10
267.6850562356197
 20
123.2558898362814
  0
LINE
  5
2B0
100
AcDbEntity
  8
Plate
  6
ByLayer
 62
  256
370
   -1
100
AcDbLine
 10
310.5460562356197
 20
189.7062898362814
 11
310.5460562356197
 21
194.4052898362814
  0
LINE
  5
2B1
100
AcDbEntity
  8
Plate
  6
ByLayer
 62
  256
370
   -1
100
AcDbLine
 10
310.5460562356197
 20
194.4052898362814
 11
296.5460562356197
 21
194.4052898362814
  0
LINE
  5
2B2
100
AcDbEntity
  8
Plate
  6
ByLayer
 62
  256
370
   -1
100
AcDbLine
 10
296.5460562356197
 20
194.4052898362814
 11
296.5460562356197
 21
189.7062898362814
  0
LINE
  5
2B3
100
AcDbEntity
  8
Plate
  6
ByLayer
 62
  256
370
   -1
100
AcDbLine
 10
296.5460562356197
 20
189.7062898362814
 11
295.0210562356197
 21
189.7062898362814
  0
LINE
  5
2B4
100
AcDbEntity
  8
Plate
  6
ByLayer
 62
  256
370
   -1
100
AcDbLine
 10
295.0210562356197
 20
189.7062898362814
 11
295.0210562356197
 21
192.9363898362814
  0
LINE
  5
2B5
100
AcDbEntity
  8
Plate
  6
ByLayer
 62
  256
370
   -1
100
AcDbLine
 10
295.0210562356197
 20
192.9363898362814
 11
288.2710562356198
 21
192.9363898362814
  0
LINE
  5
2B6
100
AcDbEntity
  8
Plate
  6
ByLayer
 62
  256
370
   -1
100
AcDbLine
 10
288.2710562356198
 20
192.9363898362814
 11
288.2710562356198
 21
189.7062898362814
  0
LINE
  5
2B7
100
AcDbEntity
  8
Plate
  6
ByLayer
 62
  256
370
   -1
100
AcDbLine
 10
288.2710562356198
 20
189.7062898362814
 11
287.4460562356197
 21
189.7062898362814
  0
LINE
  5
2B8
100
AcDbEntity
  8
Plate
  6
ByLayer
 62
  256
370
   -1
100
AcDbLine
 10
287.4460562356197
 20
189.7062898362814
 11
287.4460562356197
 21
186.9059898362814
  0
LINE
  5
2B9
100
AcDbEntity
  8
Plate
  6
ByLayer
 62
  256
370
   -1
100
AcDbLine
 10
287.4460562356197
 20
186.9059898362814
 11
288.2710562356198
 21
186.9059898362814
  0
LINE
  5
2BA
100
AcDbEntity
  8
Plate
  6
ByLayer
 62
  256
370
   -1
100
AcDbLine
 10
288.2710562356198
 20
186.9059898362814
 11
288.2710562356198
 21
180.6360898362814
  0
LINE
  5
2BB
100
AcDbEntity
  8
Plate
  6
ByLayer
 62
  256
370
   -1
100
AcDbLine
 10
288.2710562356198
 20
180.6360898362814
 11
289.9970562356198
 21
180.6360898362814
  0
LINE
  5
2BC
100
AcDbEntity
  8
Plate
  6
ByLayer
 62
  256
370
   -1
100
AcDbLine
 10
289.9970562356198
 20
180.6360898362814
 11
289.9970562356198
 21
179.4355898362815
  0
LINE
  5
2BD
100
AcDbEntity
  8
Plate
  6
ByLayer
 62
  256
370
   -1
100
AcDbLine
 10
289.9970562356198
 20
179.4355898362815
 11
293.2970562356197
 21
179.4355898362815
  0
LINE
  5
2BE
100
AcDbEntity
  8
Plate
  6
ByLayer
 62
  256
370
   -1
100
AcDbLine
 10
293.2970562356197
 20
179.4355898362815
 11
293.2970562356197
 21
180.6360898362814
  0
LINE
  5
2BF
100
AcDbEntity
  8
Plate
  6
ByLayer
 62
  256
370
   -1
100
AcDbLine
 10
293.2970562356197
 20
180.6360898362814
 11
295.0210562356197
 21
180.6360898362814
  0
LINE
  5
2C0
100
AcDbEntity
  8
Plate
  6
ByLayer
 62
  256
370
   -1
100
AcDbLine
 10
295.0210562356197
 20
180.6360898362814
 11
295.0210562356197
 21
185.1064898362814
  0
LINE
  5
2C1
100
AcDbEntity
  8
Plate
  6
ByLayer
 62
  256
370
   -1
100
AcDbLine
 10
295.0210562356197
 20
185.1064898362814
 11
296.5460562356197
 21
185.1064898362814
  0
LINE
  5
2C2
100
AcDbEntity
  8
Plate
  6
ByLayer
 62
  256
370
   -1
100
AcDbLine
 10
296.5460562356197
 20
185.1064898362814
 11
296.5460562356197
 21
180.4056898362814
  0
LINE
  5
2C3
100
AcDbEntity
  8
Plate
  6
ByLayer
 62
  256
370
   -1
100
AcDbLine
 10
296.5460562356197
 20
180.4056898362814
 11
310.5460562356197
 21
180.4056898362814
  0
LINE
  5
2C4
100
AcDbEntity
  8
Plate
  6
ByLayer
 62
  256
370
   -1
100
AcDbLine
 10
310.5460562356197
 20
180.4056898362814
 11
310.5460562356197
 21
185.1064898362814
  0
LINE
  5
2C5
100
AcDbEntity
  8
Plate
  6
ByLayer
 62
  256
370
   -1
100
AcDbLine
 10
310.5460562356197
 20
185.1064898362814
 11
312.0710562356197
 21
185.1064898362814
  0
LINE
  5
2C6
100
AcDbEntity
  8
Plate
  6
ByLayer
 62
  256
370
   -1
100
AcDbLine
 10
312.0710562356197
 20
185.1064898362814
 11
312.0710562356197
 21
180.6360898362814
  0
LINE
  5
2C7
100
AcDbEntity
  8
Plate
  6
ByLayer
 62
  256
370
   -1
100
AcDbLine
 10
312.0710562356197
 20
180.6360898362814
 11
313.7970562356197
 21
180.6360898362814
  0
LINE
  5
2C8
100
AcDbEntity
  8
Plate
  6
ByLayer
 62
  256
370
   -1
100
AcDbLine
 10
313.7970562356197
 20
180.6360898362814
 11
313.7970562356197
 21
179.4355898362815
  0
LINE
  5
2C9
100
AcDbEntity
  8
Plate
  6
ByLayer
 62
  256
370
   -1
100
AcDbLine
 10
313.7970562356197
 20
179.4355898362815
 11
317.0970562356197
 21
179.4355898362815
  0
LINE
  5
2CA
100
AcDbEntity
  8
Plate
  6
ByLayer
 62
  256
370
   -1
100
AcDbLine
 10
317.0970562356197
 20
179.4355898362815
 11
317.0970562356197
 21
180.6360898362814
  0
LINE
  5
2CB
100
AcDbEntity
  8
Plate
  6
ByLayer
 62
  256
370
   -1
100
AcDbLine
 10
317.0970562356197
 20
180.6360898362814
 11
318.8210562356197
 21
180.6360898362814
  0
LINE
  5
2CC
100
AcDbEntity
  8
Plate
  6
ByLayer
 62
  256
370
   -1
100
AcDbLine
 10
318.8210562356197
 20
180.6360898362814
 11
318.8210562356197
 21
186.9059898362814
  0
LINE
  5
2CD
100
AcDbEntity
  8
Plate
  6
ByLayer
 62
  256
370
   -1
100
AcDbLine
 10
318.8210562356197
 20
186.9059898362814
 11
319.6470562356197
 21
186.9059898362814
  0
LINE
  5
2CE
100
AcDbEntity
  8
Plate
  6
ByLayer
 62
  256
370
   -1
100
AcDbLine
 10
319.6470562356197
 20
186.9059898362814
 11
319.6470562356197
 21
189.7062898362814
  0
LINE
  5
2CF
100
AcDbEntity
  8
Plate
  6
ByLayer
 62
  256
370
   -1
100
AcDbLine
 10
319.6470562356197
 20
189.7062898362814
 11
318.8210562356197
 21
189.7062898362814
  0
LINE
  5
2D0
100
AcDbEntity
  8
Plate
  6
ByLayer
 62
  256
370
   -1
100
AcDbLine
 10
318.8210562356197
 20
189.7062898362814
 11
318.8210562356197
 21
192.9363898362814
  0
LINE
  5
2D1
100
AcDbEntity
  8
Plate
  6
ByLayer
 62
  256
370
   -1
100
AcDbLine
 10
318.8210562356197
 20
192.9363898362814
 11
312.0710562356197
 21
192.9363898362814
  0
LINE
  5
2D2
100
AcDbEntity
  8
Plate
  6
ByLayer
 62
  256
370
   -1
100
AcDbLine
 10
312.0710562356197
 20
192.9363898362814
 11
312.0710562356197
 21
189.7062898362814
  0
LINE
  5
2D3
100
AcDbEntity
  8
Plate
  6
ByLayer
 62
  256
370
   -1
100
AcDbLine
 10
312.0710562356197
 20
189.7062898362814
 11
310.5460562356197
 21
189.7062898362814
  0
LINE
  5
2D4
100
AcDbEntity
  8
Plate
  6
ByLayer
 62
  256
370
   -1
100
AcDbLine
 10
308.1660562356197
 20
151.6062898362814
 11
308.1660562356197
 21
156.3052898362814
  0
LINE
  5
2D5
100
AcDbEntity
  8
Plate
  6
ByLayer
 62
  256
370
   -1
100
AcDbLine
 10
308.1660562356197
 20
156.3052898362814
 11
294.1650562356197
 21
156.3052898362814
  0
LINE
  5
2D6
100
AcDbEntity
  8
Plate
  6
ByLayer
 62
  256
370
   -1
100
AcDbLine
 10
294.1650562356197
 20
156.3052898362814
 11
294.1650562356197
 21
151.6062898362814
  0
LINE
  5
2D7
100
AcDbEntity
  8
Plate
  6
ByLayer
 62
  256
370
   -1
100
AcDbLine
 10
294.1650562356197
 20
151.6062898362814
 11
292.6410562356198
 21
151.6062898362814
  0
LINE
  5
2D8
100
AcDbEntity
  8
Plate
  6
ByLayer
 62
  256
370
   -1
100
AcDbLine
 10
292.6410562356198
 20
151.6062898362814
 11
292.6410562356198
 21
154.8363898362814
  0
LINE
  5
2D9
100
AcDbEntity
  8
Plate
  6
ByLayer
 62
  256
370
   -1
100
AcDbLine
 10
292.6410562356198
 20
154.8363898362814
 11
285.8900562356197
 21
154.8363898362814
  0
LINE
  5
2DA
100
AcDbEntity
  8
Plate
  6
ByLayer
 62
  256
370
   -1
100
AcDbLine
 10
285.8900562356197
 20
154.8363898362814
 11
285.8900562356197
 21
151.6062898362814
  0
LINE
  5
2DB
100
AcDbEntity
  8
Plate
  6
ByLayer
 62
  256
370
   -1
100
AcDbLine
 10
285.8900562356197
 20
151.6062898362814
 11
285.0660562356197
 21
151.6062898362814
  0
LINE
  5
2DC
100
AcDbEntity
  8
Plate
  6
ByLayer
 62
  256
370
   -1
100
AcDbLine
 10
285.0660562356197
 20
151.6062898362814
 11
285.0660562356197
 21
148.8059898362814
  0
LINE
  5
2DD
100
AcDbEntity
  8
Plate
  6
ByLayer
 62
  256
370
   -1
100
AcDbLine
 10
285.0660562356197
 20
148.8059898362814
 11
285.8900562356197
 21
148.8059898362814
  0
LINE
  5
2DE
100
AcDbEntity
  8
Plate
  6
ByLayer
 62
  256
370
   -1
100
AcDbLine
 10
285.8900562356197
 20
148.8059898362814
 11
285.8900562356197
 21
142.5360898362815
  0
LINE
  5
2DF
100
AcDbEntity
  8
Plate
  6
ByLayer
 62
  256
370
   -1
100
AcDbLine
 10
285.8900562356197
 20
142.5360898362815
 11
287.6140562356197
 21
142.5360898362815
  0
LINE
  5
2E0
100
AcDbEntity
  8
Plate
  6
ByLayer
 62
  256
370
   -1
100
AcDbLine
 10
287.6140562356197
 20
142.5360898362815
 11
287.6140562356197
 21
141.3355898362814
  0
LINE
  5
2E1
100
AcDbEntity
  8
Plate
  6
ByLayer
 62
  256
370
   -1
100
AcDbLine
 10
287.6140562356197
 20
141.3355898362814
 11
290.9160562356197
 21
141.3355898362814
  0
LINE
  5
2E2
100
AcDbEntity
  8
Plate
  6
ByLayer
 62
  256
370
   -1
100
AcDbLine
 10
290.9160562356197
 20
141.3355898362814
 11
290.9160562356197
 21
142.5360898362815
  0
LINE
  5
2E3
100
AcDbEntity
  8
Plate
  6
ByLayer
 62
  256
370
   -1
100
AcDbLine
 10
290.9160562356197
 20
142.5360898362815
 11
292.6410562356197
 21
142.5360898362815
  0
LINE
  5
2E4
100
AcDbEntity
  8
Plate
  6
ByLayer
 62
  256
370
   -1
100
AcDbLine
 10
292.6410562356197
 20
142.5360898362815
 11
292.6410562356197
 21
147.0064898362814
  0
LINE
  5
2E5
100
AcDbEntity
  8
Plate
  6
ByLayer
 62
  256
370
   -1
100
AcDbLine
 10
292.6410562356197
 20
147.0064898362814
 11
294.1650562356197
 21
147.0064898362814
  0
LINE
  5
2E6
100
AcDbEntity
  8
Plate
  6
ByLayer
 62
  256
370
   -1
100
AcDbLine
 10
294.1650562356197
 20
147.0064898362814
 11
294.1650562356197
 21
142.3056898362814
  0
LINE
  5
2E7
100
AcDbEntity
  8
Plate
  6
ByLayer
 62
  256
370
   -1
100
AcDbLine
 10
294.1650562356197
 20
142.3056898362814
 11
308.1660562356197
 21
142.3056898362814
  0
LINE
  5
2E8
100
AcDbEntity
  8
Plate
  6
ByLayer
 62
  256
370
   -1
100
AcDbLine
 10
308.1660562356197
 20
142.3056898362814
 11
308.1660562356197
 21
147.0064898362814
  0
LINE
  5
2E9
100
AcDbEntity
  8
Plate
  6
ByLayer
 62
  256
370
   -1
100
AcDbLine
 10
308.1660562356197
 20
147.0064898362814
 11
309.6900562356197
 21
147.0064898362814
  0
LINE
  5
2EA
100
AcDbEntity
  8
Plate
  6
ByLayer
 62
  256
370
   -1
100
AcDbLine
 10
309.6900562356197
 20
147.0064898362814
 11
309.6900562356197
 21
142.5360898362815
  0
LINE
  5
2EB
100
AcDbEntity
  8
Plate
  6
ByLayer
 62
  256
370
   -1
100
AcDbLine
 10
309.6900562356197
 20
142.5360898362815
 11
311.4160562356197
 21
142.5360898362815
  0
LINE
  5
2EC
100
AcDbEntity
  8
Plate
  6
ByLayer
 62
  256
370
   -1
100
AcDbLine
 10
311.4160562356197
 20
142.5360898362815
 11
311.4160562356197
 21
141.3355898362814
  0
LINE
  5
2ED
100
AcDbEntity
  8
Plate
  6
ByLayer
 62
  256
370
   -1
100
AcDbLine
 10
311.4160562356197
 20
141.3355898362814
 11
314.7160562356197
 21
141.3355898362814
  0
LINE
  5
2EE
100
AcDbEntity
  8
Plate
  6
ByLayer
 62
  256
370
   -1
100
AcDbLine
 10
314.7160562356197
 20
141.3355898362814
 11
314.7160562356197
 21
142.5360898362815
  0
LINE
  5
2EF
100
AcDbEntity
  8
Plate
  6
ByLayer
 62
  256
370
   -1
100
AcDbLine
 10
314.7160562356197
 20
142.5360898362815
 11
316.4400562356197
 21
142.5360898362815
  0
LINE
  5
2F0
100
AcDbEntity
  8
Plate
  6
ByLayer
 62
  256
370
   -1
100
AcDbLine
 10
316.4400562356197
 20
142.5360898362815
 11
316.4400562356197
 21
148.8059898362814
  0
LINE
  5
2F1
100
AcDbEntity
  8
Plate
  6
ByLayer
 62
  256
370
   -1
100
AcDbLine
 10
316.4400562356197
 20
148.8059898362814
 11
317.2650562356197
 21
148.8059898362814
  0
LINE
  5
2F2
100
AcDbEntity
  8
Plate
  6
ByLayer
 62
  256
370
   -1
100
AcDbLine
 10
317.2650562356197
 20
148.8059898362814
 11
317.2650562356197
 21
151.6062898362814
  0
LINE
  5
2F3
100
AcDbEntity
  8
Plate
  6
ByLayer
 62
  256
370
   -1
100
AcDbLine
 10
317.2650562356197
 20
151.6062898362814
 11
316.4400562356197
 21
151.6062898362814
  0
LINE
  5
2F4
100
AcDbEntity
  8
Plate
  6
ByLayer
 62
  256
370
   -1
100
AcDbLine
 10
316.4400562356197
 20
151.6062898362814
 11
316.4400562356198
 21
154.8363898362814
  0
LINE
  5
2F5
100
AcDbEntity
  8
Plate
  6
ByLayer
 62
  256
370
   -1
100
AcDbLine
 10
316.4400562356198
 20
154.8363898362814
 11
309.6900562356197
 21
154.8363898362814
  0
LINE
  5
2F6
100
AcDbEntity
  8
Plate
  6
ByLayer
 62
  256
370
   -1
100
AcDbLine
 10
309.6900562356197
 20
154.8363898362814
 11
309.6900562356197
 21
151.6062898362814
  0
LINE
  5
2F7
100
AcDbEntity
  8
Plate
  6
ByLayer
 62
  256
370
   -1
100
AcDbLine
 10
309.6900562356197
 20
151.6062898362814
 11
308.1660562356197
 21
151.6062898362814
  0
LINE
  5
2F8
100
AcDbEntity
  8
Plate
  6
ByLayer
 62
  256
370
   -1
100
AcDbLine
 10
289.4030562356197
 20
137.2552898362815
 11
303.4020562356197
 21
137.2552898362815
  0
LINE
  5
2F9
100
AcDbEntity
  8
Plate
  6
ByLayer
 62
  256
370
   -1
100
AcDbLine
 10
303.4020562356197
 20
137.2552898362815
 11
303.4020562356197
 21
132.5562898362815
  0
LINE
  5
2FA
100
AcDbEntity
  8
Plate
  6
ByLayer
 62
  256
370
   -1
100
AcDbLine
 10
303.4020562356197
 20
132.5562898362815
 11
304.9280562356197
 21
132.5562898362815
  0
LINE
  5
2FB
100
AcDbEntity
  8
Plate
  6
ByLayer
 62
  256
370
   -1
100
AcDbLine
 10
304.9280562356197
 20
132.5562898362815
 11
304.9280562356197
 21
135.7863898362814
  0
LINE
  5
2FC
100
AcDbEntity
  8
Plate
  6
ByLayer
 62
  256
370
   -1
100
AcDbLine
 10
304.9280562356197
 20
135.7863898362814
 11
311.6770562356197
 21
135.7863898362814
  0
LINE
  5
2FD
100
AcDbEntity
  8
Plate
  6
ByLayer
 62
  256
370
   -1
100
AcDbLine
 10
311.6770562356197
 20
135.7863898362814
 11
311.6770562356197
 21
132.5562898362815
  0
LINE
  5
2FE
100
AcDbEntity
  8
Plate
  6
ByLayer
 62
  256
370
   -1
100
AcDbLine
 10
311.6770562356197
 20
132.5562898362815
 11
312.5030562356197
 21
132.5562898362815
  0
LINE
  5
2FF
100
AcDbEntity
  8
Plate
  6
ByLayer
 62
  256
370
   -1
100
AcDbLine
 10
312.5030562356197
 20
132.5562898362815
 11
312.5030562356197
 21
129.7560898362814
  0
LINE
  5
300
100
AcDbEntity
  8
Plate
  6
ByLayer
 62
  256
370
   -1
100
AcDbLine
 10
312.5030562356197
 20
129.7560898362814
 11
311.6770562356197
 21
129.7560898362814
  0
LINE
  5
301
100
AcDbEntity
  8
Plate
  6
ByLayer
 62
  256
370
   -1
100
AcDbLine
 10
311.6770562356197
 20
129.7560898362814
 11
311.6770562356197
 21
123.4859898362814
  0
LINE
  5
302
100
AcDbEntity
  8
Plate
  6
ByLayer
 62
  256
370
   -1
100
AcDbLine
 10
311.6770562356197
 20
123.4859898362814
 11
309.9520562356197
 21
123.4859898362814
  0
LINE
  5
303
100
AcDbEntity
  8
Plate
  6
ByLayer
 62
  256
370
   -1
100
AcDbLine
 10
309.9520562356197
 20
123.4859898362814
 11
309.9520562356197
 21
122.2857898362814
  0
LINE
  5
304
100
AcDbEntity
  8
Plate
  6
ByLayer
 62
  256
370
   -1
100
AcDbLine
 10
309.9520562356197
 20
122.2857898362814
 11
306.6530562356197
 21
122.2857898362814
  0
LINE
  5
305
100
AcDbEntity
  8
Plate
  6
ByLayer
 62
  256
370
   -1
100
AcDbLine
 10
306.6530562356197
 20
122.2857898362814
 11
306.6530562356197
 21
123.4859898362814
  0
LINE
  5
306
100
AcDbEntity
  8
Plate
  6
ByLayer
 62
  256
370
   -1
100
AcDbLine
 10
306.6530562356197
 20
123.4859898362814
 11
304.9280562356197
 21
123.4859898362814
  0
LINE
  5
307
100
AcDbEntity
  8
Plate
  6
ByLayer
 62
  256
370
   -1
100
AcDbLine
 10
304.9280562356197
 20
123.4859898362814
 11
304.9280562356197
 21
127.9563898362814
  0
LINE
  5
308
100
AcDbEntity
  8
Plate
  6
ByLayer
 62
  256
370
   -1
100
AcDbLine
 10
304.9280562356197
 20
127.9563898362814
 11
303.4020562356197
 21
127.9563898362814
  0
LINE
  5
309
100
AcDbEntity
  8
Plate
  6
ByLayer
 62
  256
370
   -1
100
AcDbLine
 10
303.4020562356197
 20
127.9563898362814
 11
303.4020562356197
 21
123.2558898362814
  0
LINE
  5
30A
100
AcDbEntity
  8
Plate
  6
ByLayer
 62
  256
370
   -1
100
AcDbLine
 10
303.4020562356197
 20
123.2558898362814
 11
289.4030562356197
 21
123.2558898362814
  0
LINE
  5
30B
100
AcDbEntity
  8
Plate
  6
ByLayer
 62
  256
370
   -1
100
AcDbLine
 10
289.4030562356197
 20
123.2558898362814
 11
289.4030562356197
 21
127.9563898362814
  0
LINE
  5
30C
100
AcDbEntity
  8
Plate
  6
ByLayer
 62
  256
370
   -1
100
AcDbLine
 10
289.4030562356197
 20
127.9563898362814
 11
287.8760562356197
 21
127.9563898362814
  0
LINE
  5
30D
100
AcDbEntity
  8
Plate
  6
ByLayer
 62
  256
370
   -1
100
AcDbLine
 10
287.8760562356197
 20
127.9563898362814
 11
287.8760562356197
 21
123.4859898362814
  0
LINE
  5
30E
100
AcDbEntity
  8
Plate
  6
ByLayer
 62
  256
370
   -1
100
AcDbLine
 10
287.8760562356197
 20
123.4859898362814
 11
286.1520562356197
 21
123.4859898362814
  0
LINE
  5
30F
100
AcDbEntity
  8
Plate
  6
ByLayer
 62
  256
370
   -1
100
AcDbLine
 10
286.1520562356197
 20
123.4859898362814
 11
286.1520562356197
 21
122.2857898362814
  0
LINE
  5
310
100
AcDbEntity
  8
Plate
  6
ByLayer
 62
  256
370
   -1
100
AcDbLine
 10
286.1520562356197
 20
122.2857898362814
 11
282.8530562356197
 21
122.2857898362814
  0
LINE
  5
311
100
AcDbEntity
  8
Plate
  6
ByLayer
 62
  256
370
   -1
100
AcDbLine
 10
282.8530562356197
 20
122.2857898362814
 11
282.8530562356197
 21
123.4859898362814
  0
LINE
  5
312
100
AcDbEntity
  8
Plate
  6
ByLayer
 62
  256
370
   -1
100
AcDbLine
 10
282.8530562356197
 20
123.4859898362814
 11
281.1270562356197
 21
123.4859898362814
  0
LINE
  5
313
100
AcDbEntity
  8
Plate
  6
ByLayer
 62
  256
370
   -1
100
AcDbLine
 10
281.1270562356197
 20
123.4859898362814
 11
281.1270562356197
 21
129.7560898362814
  0
LINE
  5
314
100
AcDbEntity
  8
Plate
  6
ByLayer
 62
  256
370
   -1
100
AcDbLine
 10
281.1270562356197
 20
129.7560898362814
 11
280.3020562356197
 21
129.7560898362814
  0
LINE
  5
315
100
AcDbEntity
  8
Plate
  6
ByLayer
 62
  256
370
   -1
100
AcDbLine
 10
280.3020562356197
 20
129.7560898362814
 11
280.3020562356197
 21
132.5562898362815
  0
LINE
  5
316
100
AcDbEntity
  8
Plate
  6
ByLayer
 62
  256
370
   -1
100
AcDbLine
 10
280.3020562356197
 20
132.5562898362815
 11
281.1270562356197
 21
132.5562898362815
  0
LINE
  5
317
100
AcDbEntity
  8
Plate
  6
ByLayer
 62
  256
370
   -1
100
AcDbLine
 10
281.1270562356197
 20
132.5562898362815
 11
281.1270562356197
 21
135.7863898362814
  0
LINE
  5
318
100
AcDbEntity
  8
Plate
  6
ByLayer
 62
  256
370
   -1
100
AcDbLine
 10
281.1270562356197
 20
135.7863898362814
 11
287.8760562356197
 21
135.7863898362814
  0
LINE
  5
319
100
AcDbEntity
  8
Plate
  6
ByLayer
 62
  256
370
   -1
100
AcDbLine
 10
287.8760562356197
 20
135.7863898362814
 11
287.8760562356197
 21
132.5562898362815
  0
LINE
  5
31A
100
AcDbEntity
  8
Plate
  6
ByLayer
 62
  256
370
   -1
100
AcDbLine
 10
287.8760562356197
 20
132.5562898362815
 11
289.4030562356197
 21
132.5562898362815
  0
LINE
  5
31B
100
AcDbEntity
  8
Plate
  6
ByLayer
 62
  256
370
   -1
100
AcDbLine
 10
289.4030562356197
 20
132.5562898362815
 11
289.4030562356197
 21
137.2552898362815
  0
LINE
  5
31C
100
AcDbEntity
  8
Plate
  6
ByLayer
 62
  256
370
   -1
100
AcDbLine
 10
51.27775623561973
 20
137.2552898362815
 11
65.27725623561972
 21
137.2552898362815
  0
LINE
  5
31D
100
AcDbEntity
  8
Plate
  6
ByLayer
 62
  256
370
   -1
100
AcDbLine
 10
65.27725623561972
 20
137.2552898362815
 11
65.27725623561972
 21
132.5562898362815
  0
LINE
  5
31E
100
AcDbEntity
  8
Plate
  6
ByLayer
 62
  256
370
   -1
100
AcDbLine
 10
65.27725623561972
 20
132.5562898362815
 11
66.80275623561971
 21
132.5562898362815
  0
LINE
  5
31F
100
AcDbEntity
  8
Plate
  6
ByLayer
 62
  256
370
   -1
100
AcDbLine
 10
66.80275623561971
 20
132.5562898362815
 11
66.80275623561971
 21
135.7863898362814
  0
LINE
  5
320
100
AcDbEntity
  8
Plate
  6
ByLayer
 62
  256
370
   -1
100
AcDbLine
 10
66.80275623561971
 20
135.7863898362814
 11
73.55235623561973
 21
135.7863898362814
  0
LINE
  5
321
100
AcDbEntity
  8
Plate
  6
ByLayer
 62
  256
370
   -1
100
AcDbLine
 10
73.55235623561973
 20
135.7863898362814
 11
73.55235623561973
 21
132.5562898362815
  0
LINE
  5
322
100
AcDbEntity
  8
Plate
  6
ByLayer
 62
  256
370
   -1
100
AcDbLine
 10
73.55235623561973
 20
132.5562898362815
 11
74.3778562356197
 21
132.5562898362815
  0
LINE
  5
323
100
AcDbEntity
  8
Plate
  6
ByLayer
 62
  256
370
   -1
100
AcDbLine
 10
74.3778562356197
 20
132.5562898362815
 11
74.3778562356197
 21
129.7560898362814
  0
LINE
  5
324
100
AcDbEntity
  8
Plate
  6
ByLayer
 62
  256
370
   -1
100
AcDbLine
 10
74.3778562356197
 20
129.7560898362814
 11
73.55235623561973
 21
129.7560898362814
  0
LINE
  5
325
100
AcDbEntity
  8
Plate
  6
ByLayer
 62
  256
370
   -1
100
AcDbLine
 10
73.55235623561973
 20
129.7560898362814
 11
73.55235623561973
 21
123.4859898362814
  0
LINE
  5
326
100
AcDbEntity
  8
Plate
  6
ByLayer
 62
  256
370
   -1
100
AcDbLine
 10
73.55235623561973
 20
123.4859898362814
 11
71.82695623561972
 21
123.4859898362814
  0
LINE
  5
327
100
AcDbEntity
  8
Plate
  6
ByLayer
 62
  256
370
   -1
100
AcDbLine
 10
71.82695623561972
 20
123.4859898362814
 11
71.82695623561972
 21
122.2857898362814
  0
LINE
  5
328
100
AcDbEntity
  8
Plate
  6
ByLayer
 62
  256
370
   -1
100
AcDbLine
 10
71.82695623561972
 20
122.2857898362814
 11
68.52805623561972
 21
122.2857898362814
  0
LINE
  5
329
100
AcDbEntity
  8
Plate
  6
ByLayer
 62
  256
370
   -1
100
AcDbLine
 10
68.52805623561972
 20
122.2857898362814
 11
68.52805623561972
 21
123.4859898362814
  0
LINE
  5
32A
100
AcDbEntity
  8
Plate
  6
ByLayer
 62
  256
370
   -1
100
AcDbLine
 10
68.52805623561972
 20
123.4859898362814
 11
66.80275623561971
 21
123.4859898362814
  0
LINE
  5
32B
100
AcDbEntity
  8
Plate
  6
ByLayer
 62
  256
370
   -1
100
AcDbLine
 10
66.80275623561971
 20
123.4859898362814
 11
66.80275623561971
 21
127.9563898362814
  0
LINE
  5
32C
100
AcDbEntity
  8
Plate
  6
ByLayer
 62
  256
370
   -1
100
AcDbLine
 10
66.80275623561971
 20
127.9563898362814
 11
65.27725623561972
 21
127.9563898362814
  0
LINE
  5
32D
100
AcDbEntity
  8
Plate
  6
ByLayer
 62
  256
370
   -1
100
AcDbLine
 10
65.27725623561972
 20
127.9563898362814
 11
65.27725623561972
 21
123.2558898362814
  0
LINE
  5
32E
100
AcDbEntity
  8
Plate
  6
ByLayer
 62
  256
370
   -1
100
AcDbLine
 10
65.27725623561972
 20
123.2558898362814
 11
51.27775623561973
 21
123.2558898362814
  0
LINE
  5
32F
100
AcDbEntity
  8
Plate
  6
ByLayer
 62
  256
370
   -1
100
AcDbLine
 10
51.27775623561973
 20
123.2558898362814
 11
51.27775623561973
 21
127.9563898362814
  0
LINE
  5
330
100
AcDbEntity
  8
Plate
  6
ByLayer
 62
  256
370
   -1
100
AcDbLine
 10
51.27775623561973
 20
127.9563898362814
 11
49.75225623561972
 21
127.9563898362814
  0
LINE
  5
331
100
AcDbEntity
  8
Plate
  6
ByLayer
 62
  256
370
   -1
100
AcDbLine
 10
49.75225623561972
 20
127.9563898362814
 11
49.75225623561972
 21
123.4859898362814
  0
LINE
  5
332
100
AcDbEntity
  8
Plate
  6
ByLayer
 62
  256
370
   -1
100
AcDbLine
 10
49.75225623561972
 20
123.4859898362814
 11
48.02695623561973
 21
123.4859898362814
  0
LINE
  5
333
100
AcDbEntity
  8
Plate
  6
ByLayer
 62
  256
370
   -1
100
AcDbLine
 10
48.02695623561973
 20
123.4859898362814
 11
48.02695623561973
 21
122.2857898362814
  0
LINE
  5
334
100
AcDbEntity
  8
Plate
  6
ByLayer
 62
  256
370
   -1
100
AcDbLine
 10
48.02695623561973
 20
122.2857898362814
 11
44.72792623561973
 21
122.2857898362814
  0
LINE
  5
335
100
AcDbEntity
  8
Plate
  6
ByLayer
 62
  256
370
   -1
100
AcDbLine
 10
44.72792623561973
 20
122.2857898362814
 11
44.72792623561973
 21
123.4859898362814
  0
LINE
  5
336
100
AcDbEntity
  8
Plate
  6
ByLayer
 62
  256
370
   -1
100
AcDbLine
 10
44.72792623561973
 20
123.4859898362814
 11
43.00263623561973
 21
123.4859898362814
  0
LINE
  5
337
100
AcDbEntity
  8
Plate
  6
ByLayer
 62
  256
370
   -1
100
AcDbLine
 10
43.00263623561973
 20
123.4859898362814
 11
43.00263623561973
 21
129.7560898362814
  0
LINE
  5
338
100
AcDbEntity
  8
Plate
  6
ByLayer
 62
  256
370
   -1
100
AcDbLine
 10
43.00263623561973
 20
129.7560898362814
 11
42.17720623561973
 21
129.7560898362814
  0
LINE
  5
339
100
AcDbEntity
  8
Plate
  6
ByLayer
 62
  256
370
   -1
100
AcDbLine
 10
42.17720623561973
 20
129.7560898362814
 11
42.17720623561973
 21
132.5562898362815
  0
LINE
  5
33A
100
AcDbEntity
  8
Plate
  6
ByLayer
 62
  256
370
   -1
100
AcDbLine
 10
42.17720623561973
 20
132.5562898362815
 11
43.00263623561973
 21
132.5562898362815
  0
LINE
  5
33B
100
AcDbEntity
  8
Plate
  6
ByLayer
 62
  256
370
   -1
100
AcDbLine
 10
43.00263623561973
 20
132.5562898362815
 11
43.00263623561973
 21
135.7863898362814
  0
LINE
  5
33C
100
AcDbEntity
  8
Plate
  6
ByLayer
 62
  256
370
   -1
100
AcDbLine
 10
43.00263623561973
 20
135.7863898362814
 11
49.75225623561972
 21
135.7863898362814
  0
LINE
  5
33D
100
AcDbEntity
  8
Plate
  6
ByLayer
 62
  256
370
   -1
100
AcDbLine
 10
49.75225623561972
 20
135.7863898362814
 11
49.75225623561972
 21
132.5562898362815
  0
LINE
  5
33E
100
AcDbEntity
  8
Plate
  6
ByLayer
 62
  256
370
   -1
100
AcDbLine
 10
49.75225623561972
 20
132.5562898362815
 11
51.27775623561973
 21
132.5562898362815
  0
LINE
  5
33F
100
AcDbEntity
  8
Plate
  6
ByLayer
 62
  256
370
   -1
100
AcDbLine
 10
51.27775623561973
 20
132.5562898362815
 11
51.27775623561973
 21
137.2552898362815
  0
LINE
  5
340
100
AcDbEntity
  8
Plate
  6
ByLayer
 62
  256
370
   -1
100
AcDbLine
 10
186.7210562356197
 20
118.2053898362814
 11
172.7210562356197
 21
118.2053898362814
  0
LINE
  5
341
100
AcDbEntity
  8
Plate
  6
ByLayer
 62
  256
370
   -1
100
AcDbLine
 10
172.7210562356197
 20
118.2053898362814
 11
172.7210562356197
 21
113.5062898362814
  0
LINE
  5
342
100
AcDbEntity
  8
Plate
  6
ByLayer
 62
  256
370
   -1
100
AcDbLine
 10
172.7210562356197
 20
113.5062898362814
 11
125.9469562356197
 21
113.5062898362814
  0
LINE
  5
343
100
AcDbEntity
  8
Plate
  6
ByLayer
 62
  256
370
   -1
100
AcDbLine
 10
125.9469562356197
 20
113.5062898362814
 11
125.9469562356197
 21
116.7363898362814
  0
LINE
  5
344
100
AcDbEntity
  8
Plate
  6
ByLayer
 62
  256
370
   -1
100
AcDbLine
 10
125.9469562356197
 20
116.7363898362814
 11
119.1972562356197
 21
116.7363898362814
  0
LINE
  5
345
100
AcDbEntity
  8
Plate
  6
ByLayer
 62
  256
370
   -1
100
AcDbLine
 10
119.1972562356197
 20
116.7363898362814
 11
119.1972562356197
 21
113.5062898362814
  0
LINE
  5
346
100
AcDbEntity
  8
Plate
  6
ByLayer
 62
  256
370
   -1
100
AcDbLine
 10
119.1972562356197
 20
113.5062898362814
 11
118.3717562356197
 21
113.5062898362814
  0
LINE
  5
347
100
AcDbEntity
  8
Plate
  6
ByLayer
 62
  256
370
   -1
100
AcDbLine
 10
118.3717562356197
 20
113.5062898362814
 11
118.3717562356197
 21
110.7060898362814
  0
LINE
  5
348
100
AcDbEntity
  8
Plate
  6
ByLayer
 62
  256
370
   -1
100
AcDbLine
 10
118.3717562356197
 20
110.7060898362814
 11
119.1972562356197
 21
110.7060898362814
  0
LINE
  5
349
100
AcDbEntity
  8
Plate
  6
ByLayer
 62
  256
370
   -1
100
AcDbLine
 10
119.1972562356197
 20
110.7060898362814
 11
119.1972562356197
 21
104.4359998362814
  0
LINE
  5
34A
100
AcDbEntity
  8
Plate
  6
ByLayer
 62
  256
370
   -1
100
AcDbLine
 10
119.1972562356197
 20
104.4359998362814
 11
120.9209562356197
 21
104.4359998362814
  0
LINE
  5
34B
100
AcDbEntity
  8
Plate
  6
ByLayer
 62
  256
370
   -1
100
AcDbLine
 10
120.9209562356197
 20
104.4359998362814
 11
120.9209562356197
 21
103.2357298362814
  0
LINE
  5
34C
100
AcDbEntity
  8
Plate
  6
ByLayer
 62
  256
370
   -1
100
AcDbLine
 10
120.9209562356197
 20
103.2357298362814
 11
124.2214562356197
 21
103.2357298362814
  0
LINE
  5
34D
100
AcDbEntity
  8
Plate
  6
ByLayer
 62
  256
370
   -1
100
AcDbLine
 10
124.2214562356197
 20
103.2357298362814
 11
124.2214562356197
 21
104.4359998362814
  0
LINE
  5
34E
100
AcDbEntity
  8
Plate
  6
ByLayer
 62
  256
370
   -1
100
AcDbLine
 10
124.2214562356197
 20
104.4359998362814
 11
125.9469562356197
 21
104.4359998362814
  0
LINE
  5
34F
100
AcDbEntity
  8
Plate
  6
ByLayer
 62
  256
370
   -1
100
AcDbLine
 10
125.9469562356197
 20
104.4359998362814
 11
125.9469562356197
 21
108.9063598362815
  0
LINE
  5
350
100
AcDbEntity
  8
Plate
  6
ByLayer
 62
  256
370
   -1
100
AcDbLine
 10
125.9469562356197
 20
108.9063598362815
 11
172.7210562356197
 21
108.9063598362815
  0
LINE
  5
351
100
AcDbEntity
  8
Plate
  6
ByLayer
 62
  256
370
   -1
100
AcDbLine
 10
172.7210562356197
 20
108.9063598362815
 11
172.7210562356197
 21
104.2058798362814
  0
LINE
  5
352
100
AcDbEntity
  8
Plate
  6
ByLayer
 62
  256
370
   -1
100
AcDbLine
 10
172.7210562356197
 20
104.2058798362814
 11
186.7210562356197
 21
104.2058798362814
  0
LINE
  5
353
100
AcDbEntity
  8
Plate
  6
ByLayer
 62
  256
370
   -1
100
AcDbLine
 10
186.7210562356197
 20
104.2058798362814
 11
186.7210562356197
 21
108.9063598362815
  0
LINE
  5
354
100
AcDbEntity
  8
Plate
  6
ByLayer
 62
  256
370
   -1
100
AcDbLine
 10
186.7210562356197
 20
108.9063598362815
 11
233.4970562356198
 21
108.9063598362815
  0
LINE
  5
355
100
AcDbEntity
  8
Plate
  6
ByLayer
 62
  256
370
   -1
100
AcDbLine
 10
233.4970562356198
 20
108.9063598362815
 11
233.4970562356198
 21
104.4359998362814
  0
LINE
  5
356
100
AcDbEntity
  8
Plate
  6
ByLayer
 62
  256
370
   -1
100
AcDbLine
 10
233.4970562356198
 20
104.4359998362814
 11
235.2210562356197
 21
104.4359998362814
  0
LINE
  5
357
100
AcDbEntity
  8
Plate
  6
ByLayer
 62
  256
370
   -1
100
AcDbLine
 10
235.2210562356197
 20
104.4359998362814
 11
235.2210562356197
 21
103.2357298362814
  0
LINE
  5
358
100
AcDbEntity
  8
Plate
  6
ByLayer
 62
  256
370
   -1
100
AcDbLine
 10
235.2210562356197
 20
103.2357298362814
 11
238.5210562356198
 21
103.2357298362814
  0
LINE
  5
359
100
AcDbEntity
  8
Plate
  6
ByLayer
 62
  256
370
   -1
100
AcDbLine
 10
238.5210562356198
 20
103.2357298362814
 11
238.5210562356198
 21
104.4359998362814
  0
LINE
  5
35A
100
AcDbEntity
  8
Plate
  6
ByLayer
 62
  256
370
   -1
100
AcDbLine
 10
238.5210562356198
 20
104.4359998362814
 11
240.2470562356198
 21
104.4359998362814
  0
LINE
  5
35B
100
AcDbEntity
  8
Plate
  6
ByLayer
 62
  256
370
   -1
100
AcDbLine
 10
240.2470562356198
 20
104.4359998362814
 11
240.2470562356198
 21
110.7060898362814
  0
LINE
  5
35C
100
AcDbEntity
  8
Plate
  6
ByLayer
 62
  256
370
   -1
100
AcDbLine
 10
240.2470562356198
 20
110.7060898362814
 11
241.0720562356197
 21
110.7060898362814
  0
LINE
  5
35D
100
AcDbEntity
  8
Plate
  6
ByLayer
 62
  256
370
   -1
100
AcDbLine
 10
241.0720562356197
 20
110.7060898362814
 11
241.0720562356197
 21
113.5062898362814
  0
LINE
  5
35E
100
AcDbEntity
  8
Plate
  6
ByLayer
 62
  256
370
   -1
100
AcDbLine
 10
241.0720562356197
 20
113.5062898362814
 11
240.2470562356198
 21
113.5062898362814
  0
LINE
  5
35F
100
AcDbEntity
  8
Plate
  6
ByLayer
 62
  256
370
   -1
100
AcDbLine
 10
240.2470562356198
 20
113.5062898362814
 11
240.2470562356198
 21
116.7363898362814
  0
LINE
  5
360
100
AcDbEntity
  8
Plate
  6
ByLayer
 62
  256
370
   -1
100
AcDbLine
 10
240.2470562356198
 20
116.7363898362814
 11
233.4970562356198
 21
116.7363898362814
  0
LINE
  5
361
100
AcDbEntity
  8
Plate
  6
ByLayer
 62
  256
370
   -1
100
AcDbLine
 10
233.4970562356198
 20
116.7363898362814
 11
233.4970562356198
 21
113.5062898362814
  0
LINE
  5
362
100
AcDbEntity
  8
Plate
  6
ByLayer
 62
  256
370
   -1
100
AcDbLine
 10
233.4970562356198
 20
113.5062898362814
 11
186.7210562356197
 21
113.5062898362814
  0
LINE
  5
363
100
AcDbEntity
  8
Plate
  6
ByLayer
 62
  256
370
   -1
100
AcDbLine
 10
186.7210562356197
 20
113.5062898362814
 11
186.7210562356197
 21
118.2053898362814
  0
ARC
  5
364
100
AcDbEntity
  8
Plate
  6
ByLayer
 62
  256
370
   -1
100
AcDbCircle
 10
50.87014083561974
 20
222.4606898362814
 40
1
100
AcDbArc
 50
270
 51
90
  0
ARC
  5
365
100
AcDbEntity
  8
Plate
  6
ByLayer
 62
  256
370
   -1
100
AcDbCircle
 10
82.87014083561971
 20
222.4606898362814
 40
1
100
AcDbArc
 50
90
 51
270
  0
LINE
  5
366
100
AcDbEntity
  8
Plate
  6
ByLayer
 62
  256
370
   -1
100
AcDbLine
 10
82.87014083561971
 20
221.4606898362729
 11
121.6801408356197
 21
221.4606898362729
  0
ARC
  5
367
100
AcDbEntity
  8
Plate
  6
ByLayer
 62
  256
370
   -1
100
AcDbCircle
 10
121.6801408356197
 20
222.4606898362729
 40
1
100
AcDbArc
 50
270
 51
90
  0
ARC
  5
368
100
AcDbEntity
  8
Plate
  6
ByLayer
 62
  256
370
   -1
100
AcDbCircle
 10
189.6801408356197
 20
222.4606898362729
 40
1
100
AcDbArc
 50
90
 51
270
  0
LINE
  5
369
100
AcDbEntity
  8
Plate
  6
ByLayer
 62
  256
370
   -1
100
AcDbLine
 10
189.6801408356197
 20
221.4606898362729
 11
231.6801408356197
 21
221.4606898362729
  0
ARC
  5
36A
100
AcDbEntity
  8
Plate
  6
ByLayer
 62
  256
370
   -1
100
AcDbCircle
 10
231.6801376039895
 20
222.4606898362729
 40
1
100
AcDbArc
 50
270
 51
90
  0
ARC
  5
36B
100
AcDbEntity
  8
Plate
  6
ByLayer
 62
  256
370
   -1
100
AcDbCircle
 10
299.6801376039896
 20
222.4606898362729
 40
1
100
AcDbArc
 50
90
 51
270
  0
LINE
  5
36C
100
AcDbEntity
  8
Plate
  6
ByLayer
 62
  256
370
   -1
100
AcDbLine
 10
299.6801376039896
 20
221.4606898362619
 11
338.4901376039896
 21
221.4606898362619
  0
ARC
  5
36D
100
AcDbEntity
  8
Plate
  6
ByLayer
 62
  256
370
   -1
100
AcDbCircle
 10
338.4901376039896
 20
222.4606898362633
 40
1
100
AcDbArc
 50
270
 51
90
  0
ARC
  5
36E
100
AcDbEntity
  8
Plate
  6
ByLayer
 62
  256
370
   -1
100
AcDbCircle
 10
370.4901376039895
 20
222.4606898362633
 40
1
100
AcDbArc
 50
90
 51
270
  0
ARC
  5
36F
100
AcDbEntity
  8
Plate
  6
ByLayer
 62
  256
370
   -1
100
AcDbCircle
 10
370.4880562356197
 20
99.96196883628146
 40
1
100
AcDbArc
 50
90
 51
270
  0
ARC
  5
370
100
AcDbEntity
  8
Plate
  6
ByLayer
 62
  256
370
   -1
100
AcDbCircle
 10
338.4880562356197
 20
99.96196883628146
 40
1
100
AcDbArc
 50
270
 51
90
  0
LINE
  5
371
100
AcDbEntity
  8
Plate
  6
ByLayer
 62
  256
370
   -1
100
AcDbLine
 10
338.4880562356197
 20
100.96196883629
 11
299.6780562356197
 21
100.96196883629
  0
ARC
  5
372
100
AcDbEntity
  8
Plate
  6
ByLayer
 62
  256
370
   -1
100
AcDbCircle
 10
299.6780562356197
 20
99.96196883628996
 40
1
100
AcDbArc
 50
90
 51
270
  0
ARC
  5
373
100
AcDbEntity
  8
Plate
  6
ByLayer
 62
  256
370
   -1
100
AcDbCircle
 10
231.6780562356197
 20
99.96196883628996
 40
1
100
AcDbArc
 50
270
 51
90
  0
LINE
  5
374
100
AcDbEntity
  8
Plate
  6
ByLayer
 62
  256
370
   -1
100
AcDbLine
 10
231.6780562356197
 20
100.96196883629
 11
189.6780562356197
 21
100.96196883629
  0
ARC
  5
375
100
AcDbEntity
  8
Plate
  6
ByLayer
 62
  256
370
   -1
100
AcDbCircle
 10
189.6780594672499
 20
99.96196883628996
 40
1
100
AcDbArc
 50
90
 51
270
  0
ARC
  5
376
100
AcDbEntity
  8
Plate
  6
ByLayer
 62
  256
370
   -1
100
AcDbCircle
 10
121.6780594672499
 20
99.96196883628998
 40
1
100
AcDbArc
 50
270
 51
90
  0
LINE
  5
377
100
AcDbEntity
  8
Plate
  6
ByLayer
 62
  256
370
   -1
100
AcDbLine
 10
121.6780594672499
 20
100.961968836301
 11
82.86805946724982
 21
100.961968836301
  0
ARC
  5
378
100
AcDbEntity
  8
Plate
  6
ByLayer
 62
  256
370
   -1
100
AcDbCircle
 10
82.86805946724982
 20
99.96196883629959
 40
1
100
AcDbArc
 50
90
 51
270
  0
ARC
  5
379
100
AcDbEntity
  8
Plate
  6
ByLayer
 62
  256
370
   -1
100
AcDbCircle
 10
50.86805946724994
 20
99.96196883629959
 40
1
100
AcDbArc
 50
270
 51
90
  0
LINE
  5
37A
100
AcDbEntity
  8
Plate
  6
ByLayer
 62
  256
370
   -1
100
AcDbLine
 10
37.37014083561974
 20
221.4606898362814
 11
50.87014083561974
 21
221.4606898362814
  0
ARC
  5
37B
100
AcDbEntity
  8
Plate
  6
ByLayer
 62
  256
370
   -1
100
AcDbCircle
 10
37.37014083561974
 20
220.4606898362814
 40
1
100
AcDbArc
 50
90
 51
180
  0
ARC
  5
37C
100
AcDbEntity
  8
Plate
  6
ByLayer
 62
  256
370
   -1
100
AcDbCircle
 10
39.37014083561974
 20
225.4606898362814
 40
1
100
AcDbArc
 50
90
 51
180
  0
LINE
  5
37D
100
AcDbEntity
  8
Plate
  6
ByLayer
 62
  256
370
   -1
100
AcDbLine
 10
38.37014083561974
 20
224.4606898362814
 11
38.37014083561974
 21
225.4606898362814
  0
LINE
  5
37E
100
AcDbEntity
  8
Plate
  6
ByLayer
 62
  256
370
   -1
100
AcDbLine
 10
50.87014083561974
 20
223.4606898362814
 11
39.37014083561974
 21
223.4606898362814
  0
ARC
  5
37F
100
AcDbEntity
  8
Plate
  6
ByLayer
 62
  256
370
   -1
100
AcDbCircle
 10
39.37014083561974
 20
224.4606898362814
 40
1
100
AcDbArc
 50
180
 51
270
  0
LINE
  5
380
100
AcDbEntity
  8
Plate
  6
ByLayer
 62
  256
370
   -1
100
AcDbLine
 10
39.37014083561974
 20
226.4606898362814
 11
94.37014083561971
 21
226.4606898362814
  0
ARC
  5
381
100
AcDbEntity
  8
Plate
  6
ByLayer
 62
  256
370
   -1
100
AcDbCircle
 10
94.37014083561971
 20
225.4606898362814
 40
1
100
AcDbArc
 50
0
 51
90
  0
LINE
  5
382
100
AcDbEntity
  8
Plate
  6
ByLayer
 62
  256
370
   -1
100
AcDbLine
 10
95.37014083561971
 20
225.4606898362814
 11
95.37014083561971
 21
224.4606898362814
  0
LINE
  5
383
100
AcDbEntity
  8
Plate
  6
ByLayer
 62
  256
370
   -1
100
AcDbLine
 10
94.37014083561971
 20
223.4606898362814
 11
82.87014083561971
 21
223.4606898362814
  0
ARC
  5
384
100
AcDbEntity
  8
Plate
  6
ByLayer
 62
  256
370
   -1
100
AcDbCircle
 10
94.37014083561971
 20
224.4606898362814
 40
1
100
AcDbArc
 50
270
 51
0
  0
ARC
  5
385
100
AcDbEntity
  8
Plate
  6
ByLayer
 62
  256
370
   -1
100
AcDbCircle
 10
107.6801408356197
 20
225.4606898362729
 40
1
100
AcDbArc
 50
90
 51
180
  0
LINE
  5
386
100
AcDbEntity
  8
Plate
  6
ByLayer
 62
  256
370
   -1
100
AcDbLine
 10
106.6801408356197
 20
224.4606898362729
 11
106.6801408356197
 21
225.4606898362729
  0
LINE
  5
387
100
AcDbEntity
  8
Plate
  6
ByLayer
 62
  256
370
   -1
100
AcDbLine
 10
121.6801408356197
 20
223.4606898362729
 11
107.6801408356197
 21
223.4606898362729
  0
ARC
  5
388
100
AcDbEntity
  8
Plate
  6
ByLayer
 62
  256
370
   -1
100
AcDbCircle
 10
107.6801408356197
 20
224.4606898362729
 40
1
100
AcDbArc
 50
180
 51
270
  0
LINE
  5
389
100
AcDbEntity
  8
Plate
  6
ByLayer
 62
  256
370
   -1
100
AcDbLine
 10
107.6801408356197
 20
226.4606898362729
 11
203.6801408356197
 21
226.4606898362729
  0
ARC
  5
38A
100
AcDbEntity
  8
Plate
  6
ByLayer
 62
  256
370
   -1
100
AcDbCircle
 10
203.6801408356197
 20
225.4606898362729
 40
1
100
AcDbArc
 50
0
 51
90
  0
LINE
  5
38B
100
AcDbEntity
  8
Plate
  6
ByLayer
 62
  256
370
   -1
100
AcDbLine
 10
204.6801408356197
 20
225.4606898362729
 11
204.6801408356197
 21
224.4606898362729
  0
LINE
  5
38C
100
AcDbEntity
  8
Plate
  6
ByLayer
 62
  256
370
   -1
100
AcDbLine
 10
203.6801408356197
 20
223.4606898362729
 11
189.6801408356197
 21
223.4606898362729
  0
ARC
  5
38D
100
AcDbEntity
  8
Plate
  6
ByLayer
 62
  256
370
   -1
100
AcDbCircle
 10
203.6801408356197
 20
224.4606898362729
 40
1
100
AcDbArc
 50
270
 51
0
  0
ARC
  5
38E
100
AcDbEntity
  8
Plate
  6
ByLayer
 62
  256
370
   -1
100
AcDbCircle
 10
217.6801376039895
 20
225.4606898362729
 40
1
100
AcDbArc
 50
90
 51
180
  0
LINE
  5
38F
100
AcDbEntity
  8
Plate
  6
ByLayer
 62
  256
370
   -1
100
AcDbLine
 10
216.6801376039895
 20
224.4606898362729
 11
216.6801376039895
 21
225.4606898362729
  0
LINE
  5
390
100
AcDbEntity
  8
Plate
  6
ByLayer
 62
  256
370
   -1
100
AcDbLine
 10
231.6801376039895
 20
223.4606898362729
 11
217.6801376039895
 21
223.4606898362729
  0
ARC
  5
391
100
AcDbEntity
  8
Plate
  6
ByLayer
 62
  256
370
   -1
100
AcDbCircle
 10
217.6801376039895
 20
224.4606898362729
 40
1
100
AcDbArc
 50
180
 51
270
  0
LINE
  5
392
100
AcDbEntity
  8
Plate
  6
ByLayer
 62
  256
370
   -1
100
AcDbLine
 10
217.6801376039895
 20
226.4606898362729
 11
313.6801376039896
 21
226.4606898362729
  0
ARC
  5
393
100
AcDbEntity
  8
Plate
  6
ByLayer
 62
  256
370
   -1
100
AcDbCircle
 10
313.6801376039896
 20
225.4606898362729
 40
1
100
AcDbArc
 50
0
 51
90
  0
LINE
  5
394
100
AcDbEntity
  8
Plate
  6
ByLayer
 62
  256
370
   -1
100
AcDbLine
 10
314.6801376039896
 20
225.4606898362729
 11
314.6801376039896
 21
224.4606898362729
  0
LINE
  5
395
100
AcDbEntity
  8
Plate
  6
ByLayer
 62
  256
370
   -1
100
AcDbLine
 10
313.6801376039896
 20
223.4606898362729
 11
299.6801376039896
 21
223.4606898362729
  0
ARC
  5
396
100
AcDbEntity
  8
Plate
  6
ByLayer
 62
  256
370
   -1
100
AcDbCircle
 10
313.6801376039896
 20
224.4606898362729
 40
1
100
AcDbArc
 50
270
 51
0
  0
ARC
  5
397
100
AcDbEntity
  8
Plate
  6
ByLayer
 62
  256
370
   -1
100
AcDbCircle
 10
326.9901376039896
 20
225.4606898362633
 40
1
100
AcDbArc
 50
90
 51
180
  0
LINE
  5
398
100
AcDbEntity
  8
Plate
  6
ByLayer
 62
  256
370
   -1
100
AcDbLine
 10
325.9901376039896
 20
224.4606898362633
 11
325.9901376039896
 21
225.4606898362633
  0
LINE
  5
399
100
AcDbEntity
  8
Plate
  6
ByLayer
 62
  256
370
   -1
100
AcDbLine
 10
338.4901376039896
 20
223.4606898362633
 11
326.9901376039896
 21
223.4606898362633
  0
ARC
  5
39A
100
AcDbEntity
  8
Plate
  6
ByLayer
 62
  256
370
   -1
100
AcDbCircle
 10
326.9901376039896
 20
224.4606898362633
 40
1
100
AcDbArc
 50
180
 51
270
  0
LINE
  5
39B
100
AcDbEntity
  8
Plate
  6
ByLayer
 62
  256
370
   -1
100
AcDbLine
 10
326.9901376039896
 20
226.4606898362633
 11
381.9901376039895
 21
226.4606898362633
  0
ARC
  5
39C
100
AcDbEntity
  8
Plate
  6
ByLayer
 62
  256
370
   -1
100
AcDbCircle
 10
381.9901376039895
 20
225.4606898362633
 40
1
100
AcDbArc
 50
0
 51
90
  0
LINE
  5
39D
100
AcDbEntity
  8
Plate
  6
ByLayer
 62
  256
370
   -1
100
AcDbLine
 10
382.9901376039895
 20
225.4606898362633
 11
382.9901376039895
 21
224.4606898362633
  0
LINE
  5
39E
100
AcDbEntity
  8
Plate
  6
ByLayer
 62
  256
370
   -1
100
AcDbLine
 10
381.9901376039895
 20
223.4606898362633
 11
370.4901376039895
 21
223.4606898362633
  0
ARC
  5
39F
100
AcDbEntity
  8
Plate
  6
ByLayer
 62
  256
370
   -1
100
AcDbCircle
 10
381.9901376039895
 20
224.4606898362633
 40
1
100
AcDbArc
 50
270
 51
0
  0
LINE
  5
3A0
100
AcDbEntity
  8
Plate
  6
ByLayer
 62
  256
370
   -1
100
AcDbLine
 10
383.9880562356197
 20
221.4606898362814
 11
370.4880562356197
 21
221.4606898362814
  0
ARC
  5
3A1
100
AcDbEntity
  8
Plate
  6
ByLayer
 62
  256
370
   -1
100
AcDbCircle
 10
383.9880562356197
 20
220.4606898362814
 40
1
100
AcDbArc
 50
0
 51
90
  0
LINE
  5
3A2
100
AcDbEntity
  8
Plate
  6
ByLayer
 62
  256
370
   -1
100
AcDbLine
 10
384.9880562356197
 20
220.4606898362814
 11
384.9880562356197
 21
101.9619688362815
  0
LINE
  5
3A3
100
AcDbEntity
  8
Plate
  6
ByLayer
 62
  256
370
   -1
100
AcDbLine
 10
383.9880562356197
 20
100.9619688362815
 11
370.4880562356197
 21
100.9619688362815
  0
ARC
  5
3A4
100
AcDbEntity
  8
Plate
  6
ByLayer
 62
  256
370
   -1
100
AcDbCircle
 10
383.9880562356197
 20
101.9619688362815
 40
1
100
AcDbArc
 50
270
 51
0
  0
LINE
  5
3A5
100
AcDbEntity
  8
Plate
  6
ByLayer
 62
  256
370
   -1
100
AcDbLine
 10
36.37014083561974
 20
220.4606898362814
 11
36.37014083561974
 21
101.9619688362815
  0
LINE
  5
3A6
100
AcDbEntity
  8
Plate
  6
ByLayer
 62
  256
370
   -1
100
AcDbLine
 10
37.37014083561974
 20
100.9619688362815
 11
50.87014083561974
 21
100.9619688362815
  0
ARC
  5
3A7
100
AcDbEntity
  8
Plate
  6
ByLayer
 62
  256
370
   -1
100
AcDbCircle
 10
37.37014083561974
 20
101.9619688362815
 40
1
100
AcDbArc
 50
179.9999999999992
 51
270
  0
LINE
  5
3A8
100
AcDbEntity
  8
Plate
  6
ByLayer
 62
  256
370
   -1
100
AcDbLine
 10
39.36805946724997
 20
98.96196883629959
 11
50.86805946724994
 21
98.96196883629959
  0
ARC
  5
3A9
100
AcDbEntity
  8
Plate
  6
ByLayer
 62
  256
370
   -1
100
AcDbCircle
 10
39.36805946724997
 20
97.96196883629959
 40
1
100
AcDbArc
 50
90
 51
180
  0
LINE
  5
3AA
100
AcDbEntity
  8
Plate
  6
ByLayer
 62
  256
370
   -1
100
AcDbLine
 10
38.36805946724997
 20
96.96196883629959
 11
38.36805946724997
 21
97.96196883629959
  0
ARC
  5
3AB
100
AcDbEntity
  8
Plate
  6
ByLayer
 62
  256
370
   -1
100
AcDbCircle
 10
39.36805946724997
 20
96.96196883629959
 40
1
100
AcDbArc
 50
180
 51
270
  0
LINE
  5
3AC
100
AcDbEntity
  8
Plate
  6
ByLayer
 62
  256
370
   -1
100
AcDbLine
 10
82.86805946724982
 20
98.96196883629959
 11
94.36805946724982
 21
98.96196883629959
  0
ARC
  5
3AD
100
AcDbEntity
  8
Plate
  6
ByLayer
 62
  256
370
   -1
100
AcDbCircle
 10
94.36805946724982
 20
97.96196883629959
 40
1
100
AcDbArc
 50
0
 51
90
  0
LINE
  5
3AE
100
AcDbEntity
  8
Plate
  6
ByLayer
 62
  256
370
   -1
100
AcDbLine
 10
95.36805946724982
 20
97.96196883629959
 11
95.36805946724982
 21
96.96196883629959
  0
LINE
  5
3AF
100
AcDbEntity
  8
Plate
  6
ByLayer
 62
  256
370
   -1
100
AcDbLine
 10
94.36805946724982
 20
95.96196883629959
 11
39.36805946724997
 21
95.96196883629959
  0
ARC
  5
3B0
100
AcDbEntity
  8
Plate
  6
ByLayer
 62
  256
370
   -1
100
AcDbCircle
 10
94.36805946724982
 20
96.96196883629959
 40
1
100
AcDbArc
 50
270
 51
0
  0
LINE
  5
3B1
100
AcDbEntity
  8
Plate
  6
ByLayer
 62
  256
370
   -1
100
AcDbLine
 10
107.6780594672499
 20
98.96196883628998
 11
121.6780594672499
 21
98.96196883628998
  0
ARC
  5
3B2
100
AcDbEntity
  8
Plate
  6
ByLayer
 62
  256
370
   -1
100
AcDbCircle
 10
107.6780594672499
 20
97.96196883628998
 40
1
100
AcDbArc
 50
90
 51
180
  0
LINE
  5
3B3
100
AcDbEntity
  8
Plate
  6
ByLayer
 62
  256
370
   -1
100
AcDbLine
 10
106.6780594672499
 20
96.96196883628998
 11
106.6780594672499
 21
97.96196883628998
  0
ARC
  5
3B4
100
AcDbEntity
  8
Plate
  6
ByLayer
 62
  256
370
   -1
100
AcDbCircle
 10
107.6780594672499
 20
96.96196883628998
 40
1
100
AcDbArc
 50
180
 51
270
  0
LINE
  5
3B5
100
AcDbEntity
  8
Plate
  6
ByLayer
 62
  256
370
   -1
100
AcDbLine
 10
189.6780594672499
 20
98.96196883628996
 11
203.6780594672499
 21
98.96196883628996
  0
ARC
  5
3B6
100
AcDbEntity
  8
Plate
  6
ByLayer
 62
  256
370
   -1
100
AcDbCircle
 10
203.6780594672499
 20
97.96196883628996
 40
1
100
AcDbArc
 50
0
 51
90
  0
LINE
  5
3B7
100
AcDbEntity
  8
Plate
  6
ByLayer
 62
  256
370
   -1
100
AcDbLine
 10
204.6780594672499
 20
97.96196883628996
 11
204.6780594672499
 21
96.96196883628996
  0
LINE
  5
3B8
100
AcDbEntity
  8
Plate
  6
ByLayer
 62
  256
370
   -1
100
AcDbLine
 10
203.6780594672499
 20
95.96196883628996
 11
107.6780594672499
 21
95.96196883628998
  0
ARC
  5
3B9
100
AcDbEntity
  8
Plate
  6
ByLayer
 62
  256
370
   -1
100
AcDbCircle
 10
203.6780594672499
 20
96.96196883628996
 40
1
100
AcDbArc
 50
270
 51
0
  0
LINE
  5
3BA
100
AcDbEntity
  8
Plate
  6
ByLayer
 62
  256
370
   -1
100
AcDbLine
 10
217.6780562356197
 20
98.96196883628996
 11
231.6780562356197
 21
98.96196883628996
  0
ARC
  5
3BB
100
AcDbEntity
  8
Plate
  6
ByLayer
 62
  256
370
   -1
100
AcDbCircle
 10
217.6780562356197
 20
97.96196883628996
 40
1
100
AcDbArc
 50
90
 51
180
  0
LINE
  5
3BC
100
AcDbEntity
  8
Plate
  6
ByLayer
 62
  256
370
   -1
100
AcDbLine
 10
216.6780562356197
 20
96.96196883628998
 11
216.6780562356197
 21
97.96196883628996
  0
ARC
  5
3BD
100
AcDbEntity
  8
Plate
  6
ByLayer
 62
  256
370
   -1
100
AcDbCircle
 10
217.6780562356197
 20
96.96196883628998
 40
1
100
AcDbArc
 50
180
 51
270
  0
LINE
  5
3BE
100
AcDbEntity
  8
Plate
  6
ByLayer
 62
  256
370
   -1
100
AcDbLine
 10
299.6780562356197
 20
98.96196883628996
 11
313.6780562356196
 21
98.96196883628996
  0
ARC
  5
3BF
100
AcDbEntity
  8
Plate
  6
ByLayer
 62
  256
370
   -1
100
AcDbCircle
 10
313.6780562356196
 20
97.96196883628996
 40
1
100
AcDbArc
 50
0
 51
90
  0
LINE
  5
3C0
100
AcDbEntity
  8
Plate
  6
ByLayer
 62
  256
370
   -1
100
AcDbLine
 10
314.6780562356197
 20
97.96196883628996
 11
314.6780562356197
 21
96.96196883628996
  0
LINE
  5
3C1
100
AcDbEntity
  8
Plate
  6
ByLayer
 62
  256
370
   -1
100
AcDbLine
 10
313.6780562356197
 20
95.96196883628996
 11
217.6780562356197
 21
95.96196883628996
  0
ARC
  5
3C2
100
AcDbEntity
  8
Plate
  6
ByLayer
 62
  256
370
   -1
100
AcDbCircle
 10
313.6780562356197
 20
96.96196883628996
 40
1
100
AcDbArc
 50
270
 51
0
  0
LINE
  5
3C3
100
AcDbEntity
  8
Plate
  6
ByLayer
 62
  256
370
   -1
100
AcDbLine
 10
326.9880562356197
 20
98.96196883628146
 11
338.4880562356197
 21
98.96196883628146
  0
ARC
  5
3C4
100
AcDbEntity
  8
Plate
  6
ByLayer
 62
  256
370
   -1
100
AcDbCircle
 10
326.9880562356197
 20
97.96196883628146
 40
1
100
AcDbArc
 50
90
 51
180
  0
LINE
  5
3C5
100
AcDbEntity
  8
Plate
  6
ByLayer
 62
  256
370
   -1
100
AcDbLine
 10
325.9880562356197
 20
96.96196883628146
 11
325.9880562356197
 21
97.96196883628146
  0
ARC
  5
3C6
100
AcDbEntity
  8
Plate
  6
ByLayer
 62
  256
370
   -1
100
AcDbCircle
 10
326.9880562356197
 20
96.96196883628146
 40
1
100
AcDbArc
 50
180
 51
270
  0
LINE
  5
3C7
100
AcDbEntity
  8
Plate
  6
ByLayer
 62
  256
370
   -1
100
AcDbLine
 10
370.4880562356197
 20
98.96196883628146
 11
381.9880562356197
 21
98.96196883628146
  0
ARC
  5
3C8
100
AcDbEntity
  8
Plate
  6
ByLayer
 62
  256
370
   -1
100
AcDbCircle
 10
381.9880562356197
 20
97.96196883628146
 40
1
100
AcDbArc
 50
0
 51
90
  0
LINE
  5
3C9
100
AcDbEntity
  8
Plate
  6
ByLayer
 62
  256
370
   -1
100
AcDbLine
 10
382.9880562356197
 20
97.96196883628146
 11
382.9880562356197
 21
96.96196883628146
  0
LINE
  5
3CA
100
AcDbEntity
  8
Plate
  6
ByLayer
 62
  256
370
   -1
100
AcDbLine
 10
381.9880562356197
 20
95.96196883628146
 11
326.9880562356197
 21
95.96196883628146
  0
ARC
  5
3CB
100
AcDbEntity
  8
Plate
  6
ByLayer
 62
  256
370
   -1
100
AcDbCircle
 10
381.9880562356197
 20
96.96196883628146
 40
1
100
AcDbArc
 50
270
 51
0
  0
LINE
  5
3CC
100
AcDbEntity
  8
flame
  6
ByLayer
 62
  256
370
   -1
100
AcDbLine
 10
260
 20
34
 11
410
 21
34
  0
LINE
  5
3CD
100
AcDbEntity
  8
flame
  6
ByLayer
 62
  256
370
   -1
100
AcDbLine
 10
260
 20
10
 11
260
 21
34
  0
LINE
  5
3CE
100
AcDbEntity
  8
flame
  6
ByLayer
 62
  256
370
   -1
100
AcDbLine
 10
275
 20
10
 11
275
 21
34
  0
LINE
  5
3CF
100
AcDbEntity
  8
flame
  6
ByLayer
 62
  256
370
   -1
100
AcDbLine
 10
290
 20
10
 11
290
 21
34
  0
LINE
  5
3D0
100
AcDbEntity
  8
flame
  6
ByLayer
 62
  256
370
   -1
100
AcDbLine
 10
360
 20
10
 11
360
 21
34
  0
LINE
  5
3D1
100
AcDbEntity
  8
flame
  6
ByLayer
 62
  256
370
   -1
100
AcDbLine
 10
380
 20
10
 11
380
 21
34
  0
LINE
  5
3D2
100
AcDbEntity
  8
flame
  6
ByLayer
 62
  256
370
   -1
100
AcDbLine
 10
305
 20
10
 11
305
 21
18
  0
LINE
  5
3D3
100
AcDbEntity
  8
flame
  6
ByLayer
 62
  256
370
   -1
100
AcDbLine
 10
305
 20
18
 11
305
 21
34
  0
LINE
  5
3D4
100
AcDbEntity
  8
flame
  6
ByLayer
 62
  256
370
   -1
100
AcDbLine
 10
290
 20
22
 11
360
 21
22
  0
LINE
  5
3D5
100
AcDbEntity
  8
flame
  6
ByLayer
 62
  256
370
   -1
100
AcDbLine
 10
360
 20
26
 11
410
 21
26
  0
LINE
  5
3D6
100
AcDbEntity
  8
flame
  6
ByLayer
 62
  256
370
   -1
100
AcDbLine
 10
360
 20
18
 11
410
 21
18
  0
LINE
  5
3D7
100
AcDbEntity
  8
flame
  6
ByLayer
 62
  256
370
   -1
100
AcDbLine
 10
260
 20
26
 11
290
 21
26
  0
LINE
  5
3D8
100
AcDbEntity
  8
flame
  6
ByLayer
 62
  256
370
   -1
100
AcDbLine
 10
260
 20
18
 11
290
 21
18
  0
ENDSEC
  0
SECTION
  2
OBJECTS
  0
DICTIONARY
  5
C
330
0
100
AcDbDictionary
281
    1
  3
ACAD_GROUP
350
D
  3
ACAD_IMAGE_DICT
350
3D9
  0
DICTIONARY
  5
D
330
C
100
AcDbDictionary
281
    1
  0
IMAGEDEF_REACTOR
  5
253
330
254
100
AcDbRasterImageDefReactor
 90
    2
330
254
  0
DICTIONARY
  5
3D9
330
C
100
AcDbDictionary
281
    1
  3
suit80_7u_plate_references
350
252
  0
IMAGEDEF
  5
252
102
{ACAD_REACTORS
330
253
102
}
100
AcDbRasterImageDef
 90
    0
  1
K:/suit80_7u_plate_references.dxf
 10
1
 20
1
 11
1
 21
1
280
    1
281
    0
  0
PLOTSETTINGS
  5
3DA
100
AcDbPlotSettings
  6
1x1
 40
0
 41
0
 42
0
 43
0
  0
ENDSEC
  0
EOF
